SplineFontDB: 3.2
FontName: GotoMono-Italic
FullName: Goto Mono Italic
FamilyName: Goto Mono
Weight: Book
Copyright: Copyright 2015 Google LLC. All Rights Reserved.
Version: 2.6
ItalicAngle: -12
UnderlinePosition: -125
UnderlineWidth: 50
Ascent: 800
Descent: 200
InvalidEm: 0
sfntRevision: 0x00020189
LayerCount: 2
Layer: 0 0 "Back" 1
Layer: 1 0 "Fore" 0
XUID: [1021 328 1927437058 14855360]
StyleMap: 0x0001
FSType: 0
OS2Version: 3
OS2_WeightWidthSlopeOnly: 0
OS2_UseTypoMetrics: 0
CreationTime: 1604030168
ModificationTime: 1610461151
PfmFamily: 49
TTFWeight: 400
TTFWidth: 5
LineGap: 0
VLineGap: 0
Panose: 2 11 5 9 4 5 4 2 2 4
OS2TypoAscent: 1069
OS2TypoAOffset: 0
OS2TypoDescent: -293
OS2TypoDOffset: 0
OS2TypoLinegap: 0
OS2WinAscent: 1069
OS2WinAOffset: 0
OS2WinDescent: 293
OS2WinDOffset: 0
HheadAscent: 1069
HheadAOffset: 0
HheadDescent: -293
HheadDOffset: 0
OS2SubXSize: 650
OS2SubYSize: 600
OS2SubXOff: 0
OS2SubYOff: 75
OS2SupXSize: 650
OS2SupYSize: 600
OS2SupXOff: 0
OS2SupYOff: 350
OS2StrikeYSize: 50
OS2StrikeYPos: 322
OS2CapHeight: 714
OS2XHeight: 536
OS2Vendor: 'GOOG'
OS2CodePages: 0000019f.dfd70000
OS2UnicodeRanges: e00002ff.0200fcff.08000039.00100000
Lookup: 1 0 0 "'aalt' Access All Alternates lookup 0" { "'aalt' Access All Alternates lookup 0 subtable"  } ['aalt' ('DFLT' <'dflt' > 'cyrl' <'MKD ' 'SRB ' 'dflt' > 'grek' <'dflt' > 'latn' <'APPH' 'CAT ' 'IPPH' 'MAH ' 'MOL ' 'NAV ' 'ROM ' 'dflt' > ) ]
Lookup: 3 0 0 "'aalt' Access All Alternates lookup 1" { "'aalt' Access All Alternates lookup 1 subtable"  } ['aalt' ('DFLT' <'dflt' > 'cyrl' <'MKD ' 'SRB ' 'dflt' > 'grek' <'dflt' > 'latn' <'APPH' 'CAT ' 'IPPH' 'MAH ' 'MOL ' 'NAV ' 'ROM ' 'dflt' > ) ]
Lookup: 4 0 0 "'ccmp' Glyph Composition/Decomposition lookup 2" { "'ccmp' Glyph Composition/Decomposition lookup 2 subtable"  } ['ccmp' ('DFLT' <'dflt' > 'cyrl' <'MKD ' 'SRB ' 'dflt' > 'grek' <'dflt' > 'latn' <'APPH' 'CAT ' 'IPPH' 'MAH ' 'MOL ' 'NAV ' 'ROM ' 'dflt' > ) ]

StartChar: .notdef
Encoding: 1114112 -1 0
Width: 563
Flags: HW
LayerCount: 2
Fore
SplineSet
76 0 m 1
 203 714 l 1
 614 714 l 1
 487 0 l 1
 76 0 l 1
136 51 m 1
 445 51 l 1
 554 663 l 1
 245 663 l 1
 136 51 l 1
EndSplineSet
EndChar

StartChar: exclam
Encoding: 33 33 4
Width: 563
Flags: HW
LayerCount: 2
Fore
SplineSet
284 202 m 1
 358 714 l 1
 464 714 l 1
 357 202 l 1
 284 202 l 1
282 -11 m 0
 253 -11 233 4 232 36 c 0
 232 42 231 49 233 57 c 0
 241 105 271 124 306 124 c 0
 334 124 355 111 356 79 c 0
 356 72 356 65 354 57 c 0
 346 10 315 -11 282 -11 c 0
EndSplineSet
Substitution2: "'smcp' Lowercase to Small Capitals lookup 35 subtable" exclam.sc
Substitution2: "'c2sc' Capitals to Small Capitals lookup 34 subtable" exclam.sc
Substitution2: "'aalt' Access All Alternates lookup 0 subtable" exclam.sc
EndChar

StartChar: quotedbl
Encoding: 34 34 5
Width: 563
Flags: HW
LayerCount: 2
Fore
SplineSet
424 456 m 1
 451 714 l 1
 546 714 l 1
 481 456 l 1
 424 456 l 1
245 456 m 1
 272 714 l 1
 366 714 l 1
 302 456 l 1
 245 456 l 1
EndSplineSet
EndChar

StartChar: numbersign
Encoding: 35 35 6
Width: 563
Flags: HW
LayerCount: 2
Fore
SplineSet
99 0 m 1
 170 212 l 1
 65 212 l 1
 76 278 l 1
 193 278 l 1
 250 441 l 1
 137 441 l 1
 148 506 l 1
 272 506 l 1
 343 714 l 1
 412 714 l 1
 340 506 l 1
 455 506 l 1
 526 714 l 1
 592 714 l 1
 521 506 l 1
 627 506 l 1
 616 441 l 1
 499 441 l 1
 442 278 l 1
 556 278 l 1
 545 212 l 1
 420 212 l 1
 346 0 l 1
 278 0 l 1
 352 212 l 1
 238 212 l 1
 166 0 l 1
 99 0 l 1
260 278 m 1
 374 278 l 1
 431 441 l 1
 317 441 l 1
 260 278 l 1
EndSplineSet
EndChar

StartChar: dollar
Encoding: 36 36 7
Width: 563
Flags: HW
LayerCount: 2
Fore
SplineSet
258 35 m 1
 193 36 137 48 99 68 c 1
 114 151 l 1
 153 129 210 110 271 109 c 1
 310 331 l 1
 216 366 167 405 165 475 c 0
 165 488 167 502 169 517 c 0
 187 614 266 677 374 686 c 1
 386 759 l 1
 444 759 l 1
 432 687 l 1
 493 685 538 671 581 651 c 1
 543 580 l 1
 506 597 465 610 419 613 c 1
 380 394 l 1
 477 360 529 326 532 254 c 0
 532 241 531 227 529 212 c 0
 512 120 434 54 317 39 c 1
 300 -58 l 1
 242 -58 l 1
 258 35 l 1
361 612 m 1
 297 605 259 569 250 518 c 0
 248 508 248 499 248 491 c 0
 249 455 270 435 325 416 c 1
 361 612 l 1
330 113 m 1
 401 124 440 160 449 211 c 0
 451 220 451 227 451 234 c 0
 450 270 425 290 365 310 c 1
 330 113 l 1
EndSplineSet
EndChar

StartChar: percent
Encoding: 37 37 8
Width: 563
Flags: HW
LayerCount: 2
Fore
SplineSet
208 383 m 0
 141 383 98 425 95 501 c 0
 94 517 96 534 99 553 c 0
 118 661 182 722 270 722 c 0
 336 722 381 680 384 604 c 0
 385 588 384 572 381 553 c 0
 362 445 295 383 208 383 c 0
219 439 m 0
 265 439 295 476 308 553 c 0
 311 574 313 591 312 606 c 0
 311 647 293 665 259 665 c 0
 212 665 185 631 171 553 c 0
 168 533 165 516 166 501 c 0
 167 459 185 439 219 439 c 0
69 62 m 1
 543 652 l 1
 620 652 l 1
 146 62 l 1
 69 62 l 1
419 -9 m 0
 352 -9 308 33 305 109 c 0
 304 125 306 142 309 161 c 0
 328 269 393 330 481 330 c 0
 547 330 593 288 596 212 c 0
 597 196 594 180 591 161 c 0
 572 53 506 -9 419 -9 c 0
430 47 m 0
 476 47 505 84 518 161 c 0
 521 182 525 199 524 214 c 0
 523 255 504 273 470 273 c 0
 423 273 395 239 381 161 c 0
 378 141 376 124 377 109 c 0
 378 67 396 47 430 47 c 0
EndSplineSet
EndChar

StartChar: ampersand
Encoding: 38 38 9
Width: 563
Flags: HW
LayerCount: 2
Fore
SplineSet
214 -10 m 0
 117 -10 70 45 67 123 c 0
 66 138 68 155 71 172 c 0
 89 272 156 335 235 392 c 1
 215 434 199 481 197 530 c 0
 196 546 198 562 201 579 c 0
 216 666 280 725 367 725 c 0
 440 725 480 682 482 618 c 0
 482 606 483 593 480 579 c 0
 465 494 401 430 335 379 c 1
 432 207 l 1
 462 253 486 303 498 346 c 1
 579 346 l 1
 555 273 517 199 470 138 c 1
 548 0 l 1
 447 0 l 1
 409 71 l 1
 353 22 286 -10 214 -10 c 0
280 578 m 0
 277 565 277 552 277 539 c 0
 278 503 289 467 302 438 c 1
 344 470 392 517 403 580 c 0
 405 589 405 598 405 606 c 0
 404 639 386 657 355 657 c 0
 317 657 289 628 280 578 c 0
155 175 m 0
 153 164 153 154 153 144 c 0
 155 96 184 64 236 64 c 0
 286 64 332 93 374 135 c 1
 268 330 l 1
 214 289 167 242 155 175 c 0
EndSplineSet
Substitution2: "'smcp' Lowercase to Small Capitals lookup 35 subtable" ampersand.sc
Substitution2: "'c2sc' Capitals to Small Capitals lookup 34 subtable" ampersand.sc
Substitution2: "'aalt' Access All Alternates lookup 0 subtable" ampersand.sc
EndChar

StartChar: quotesingle
Encoding: 39 39 10
Width: 563
Flags: HW
LayerCount: 2
Fore
SplineSet
334 456 m 1
 361 714 l 1
 456 714 l 1
 391 456 l 1
 334 456 l 1
EndSplineSet
EndChar

StartChar: parenleft
Encoding: 40 40 11
Width: 563
Flags: HW
LayerCount: 2
Fore
SplineSet
302 -160 m 1
 251 -84 225 9 221 110 c 0
 219 162 223 217 233 273 c 0
 262 438 339 595 457 714 c 1
 536 714 l 1
 422 587 347 432 319 274 c 0
 310 221 306 167 308 115 c 0
 311 16 336 -79 380 -160 c 1
 302 -160 l 1
EndSplineSet
Substitution2: "'smcp' Lowercase to Small Capitals lookup 35 subtable" parenleft.sc
Substitution2: "'c2sc' Capitals to Small Capitals lookup 34 subtable" parenleft.sc
Substitution2: "'sups' Superscript lookup 23 subtable" uni207D
Substitution2: "'subs' Subscript lookup 22 subtable" uni208D
AlternateSubs2: "'aalt' Access All Alternates lookup 1 subtable" uni208D uni207D parenleft.sc
EndChar

StartChar: parenright
Encoding: 41 41 12
Width: 563
Flags: HW
LayerCount: 2
Fore
SplineSet
353 714 m 1
 404 638 429 545 433 444 c 0
 435 392 431 337 421 281 c 0
 392 116 316 -41 198 -160 c 1
 119 -160 l 1
 233 -33 307 122 335 280 c 0
 344 334 349 387 347 439 c 0
 344 538 319 633 275 714 c 1
 353 714 l 1
EndSplineSet
Substitution2: "'smcp' Lowercase to Small Capitals lookup 35 subtable" parenright.sc
Substitution2: "'c2sc' Capitals to Small Capitals lookup 34 subtable" parenright.sc
Substitution2: "'sups' Superscript lookup 23 subtable" uni207E
Substitution2: "'subs' Subscript lookup 22 subtable" uni208E
AlternateSubs2: "'aalt' Access All Alternates lookup 1 subtable" uni208E uni207E parenright.sc
EndChar

StartChar: asterisk
Encoding: 42 42 13
Width: 563
Flags: HW
LayerCount: 2
Fore
SplineSet
420 368 m 1
 373 511 l 1
 274 369 l 1
 211 414 l 1
 330 539 l 1
 188 556 l 1
 216 632 l 1
 360 592 l 1
 375 752 l 1
 456 752 l 1
 414 592 l 1
 574 635 l 1
 575 554 l 1
 425 538 l 1
 503 413 l 1
 420 368 l 1
EndSplineSet
EndChar

StartChar: plus
Encoding: 43 43 14
Width: 563
Flags: HW
LayerCount: 2
Fore
SplineSet
269 120 m 1
 304 318 l 1
 132 318 l 1
 143 388 l 1
 315 388 l 1
 352 586 l 1
 423 586 l 1
 386 388 l 1
 556 388 l 1
 545 318 l 1
 375 318 l 1
 340 120 l 1
 269 120 l 1
EndSplineSet
Substitution2: "'sups' Superscript lookup 23 subtable" uni207A
Substitution2: "'subs' Subscript lookup 22 subtable" uni208A
AlternateSubs2: "'aalt' Access All Alternates lookup 1 subtable" uni208A uni207A
EndChar

StartChar: comma
Encoding: 44 44 15
Width: 563
Flags: HW
LayerCount: 2
Fore
SplineSet
168 -137 m 1
 204 -53 242 50 265 124 c 1
 366 124 l 1
 372 112 l 1
 339 35 285 -60 238 -137 c 1
 168 -137 l 1
EndSplineSet
EndChar

StartChar: hyphen
Encoding: 45 45 16
Width: 563
Flags: HW
LayerCount: 2
Fore
SplineSet
181 231 m 1
 195 310 l 1
 478 310 l 1
 464 231 l 1
 181 231 l 1
EndSplineSet
EndChar

StartChar: period
Encoding: 46 46 17
Width: 563
Flags: HW
LayerCount: 2
Fore
SplineSet
279 -11 m 0
 251 -11 231 4 230 36 c 0
 230 42 229 49 231 57 c 0
 239 105 269 124 303 124 c 0
 331 124 353 112 354 79 c 0
 354 73 354 65 352 57 c 0
 344 10 313 -11 279 -11 c 0
EndSplineSet
EndChar

StartChar: slash
Encoding: 47 47 18
Width: 563
Flags: HW
LayerCount: 2
Fore
SplineSet
83 -1 m 1
 480 715 l 1
 562 715 l 1
 166 -1 l 1
 83 -1 l 1
EndSplineSet
Substitution2: "'frac' Diagonal Fractions lookup 26 subtable" fraction
Substitution2: "'aalt' Access All Alternates lookup 0 subtable" fraction
EndChar

StartChar: zero
Encoding: 48 48 19
Width: 563
Flags: HW
LayerCount: 2
Fore
SplineSet
279 -10 m 0
 159 -10 104 63 99 194 c 0
 97 241 102 296 113 358 c 0
 154 589 242 724 410 724 c 0
 531 724 587 651 592 519 c 0
 594 472 588 419 577 358 c 0
 536 127 448 -10 279 -10 c 0
198 358 m 0
 188 302 184 254 184 213 c 1
 485 605 l 1
 466 634 437 648 396 648 c 0
 293 648 232 553 198 358 c 0
293 66 m 0
 397 66 459 161 494 358 c 0
 504 416 509 466 508 507 c 0
 508 512 508 517 508 521 c 1
 202 122 l 1
 218 86 248 66 293 66 c 0
EndSplineSet
Substitution2: "'zero' Slashed Zero lookup 37 subtable" zero.slash
Substitution2: "'onum' Oldstyle Figures lookup 33 subtable" zero.osf
Substitution2: "'frac' Diagonal Fractions lookup 27 subtable" zero.numr
Substitution2: "'dnom' Denominators lookup 25 subtable" zero.dnom
Substitution2: "'numr' Numerators lookup 24 subtable" zero.numr
Substitution2: "'sups' Superscript lookup 23 subtable" uni2070
Substitution2: "'subs' Subscript lookup 22 subtable" uni2080
AlternateSubs2: "'aalt' Access All Alternates lookup 1 subtable" uni2070 zero.osf zero.dnom zero.numr uni2080
EndChar

StartChar: one
Encoding: 49 49 20
Width: 563
Flags: HW
LayerCount: 2
Fore
SplineSet
122 0 m 1
 133 60 l 1
 277 70 l 1
 343 447 l 2
 353 503 369 579 378 623 c 1
 354 609 342 603 310 587 c 2
 221 543 l 1
 194 609 l 1
 405 714 l 1
 477 714 l 1
 363 70 l 1
 500 60 l 1
 489 0 l 1
 122 0 l 1
EndSplineSet
Substitution2: "'onum' Oldstyle Figures lookup 33 subtable" one.osf
Substitution2: "'frac' Diagonal Fractions lookup 27 subtable" one.numr
Substitution2: "'dnom' Denominators lookup 25 subtable" one.dnom
Substitution2: "'numr' Numerators lookup 24 subtable" one.numr
Substitution2: "'sups' Superscript lookup 23 subtable" uni00B9
Substitution2: "'subs' Subscript lookup 22 subtable" uni2081
AlternateSubs2: "'aalt' Access All Alternates lookup 1 subtable" uni00B9 one.osf one.dnom one.numr uni2081
EndChar

StartChar: two
Encoding: 50 50 21
Width: 563
Flags: HW
LayerCount: 2
Fore
SplineSet
66 0 m 1
 79 75 l 1
 285 263 l 2
 392 360 465 432 482 525 c 0
 485 539 484 551 484 562 c 0
 482 620 444 647 386 647 c 0
 327 647 269 618 219 581 c 1
 182 641 l 1
 243 688 318 724 405 724 c 0
 509 724 572 673 575 582 c 0
 576 566 573 549 570 530 c 0
 551 420 472 336 359 231 c 2
 196 84 l 1
 195 80 l 1
 522 80 l 1
 508 0 l 1
 66 0 l 1
EndSplineSet
Substitution2: "'onum' Oldstyle Figures lookup 33 subtable" two.osf
Substitution2: "'frac' Diagonal Fractions lookup 27 subtable" two.numr
Substitution2: "'dnom' Denominators lookup 25 subtable" two.dnom
Substitution2: "'numr' Numerators lookup 24 subtable" two.numr
Substitution2: "'sups' Superscript lookup 23 subtable" uni00B2
Substitution2: "'subs' Subscript lookup 22 subtable" uni2082
AlternateSubs2: "'aalt' Access All Alternates lookup 1 subtable" uni00B2 two.osf two.dnom two.numr uni2082
EndChar

StartChar: three
Encoding: 51 51 22
Width: 563
Flags: HW
LayerCount: 2
Fore
SplineSet
240 -10 m 0
 184 -10 120 -1 71 29 c 1
 86 113 l 1
 135 83 199 67 258 67 c 0
 367 67 425 122 439 203 c 0
 442 215 442 227 442 237 c 0
 440 303 385 330 290 330 c 2
 225 330 l 1
 240 408 l 1
 306 408 l 2
 404 408 466 462 480 540 c 0
 482 550 482 560 482 569 c 0
 480 618 447 647 382 647 c 0
 322 647 264 623 219 594 c 1
 186 655 l 1
 244 695 318 724 401 724 c 0
 513 724 571 670 574 589 c 0
 574 575 573 561 571 546 c 0
 554 453 488 391 399 376 c 1
 398 373 l 1
 484 361 530 318 533 246 c 0
 533 232 532 216 529 199 c 0
 507 78 411 -10 240 -10 c 0
EndSplineSet
Substitution2: "'onum' Oldstyle Figures lookup 33 subtable" three.osf
Substitution2: "'frac' Diagonal Fractions lookup 27 subtable" three.numr
Substitution2: "'dnom' Denominators lookup 25 subtable" three.dnom
Substitution2: "'numr' Numerators lookup 24 subtable" three.numr
Substitution2: "'sups' Superscript lookup 23 subtable" uni00B3
Substitution2: "'subs' Subscript lookup 22 subtable" uni2083
AlternateSubs2: "'aalt' Access All Alternates lookup 1 subtable" uni00B3 three.osf three.dnom three.numr uni2083
EndChar

StartChar: four
Encoding: 52 52 23
Width: 563
Flags: HW
LayerCount: 2
Fore
SplineSet
335 0 m 1
 363 160 l 1
 74 160 l 1
 88 235 l 1
 447 718 l 1
 549 718 l 1
 464 238 l 1
 560 238 l 1
 545 160 l 1
 449 160 l 1
 421 0 l 1
 335 0 l 1
175 238 m 1
 378 238 l 1
 409 413 l 2
 422 486 442 579 452 625 c 1
 448 625 l 1
 434 595 404 550 387 525 c 2
 175 238 l 1
EndSplineSet
Substitution2: "'onum' Oldstyle Figures lookup 33 subtable" four.osf
Substitution2: "'frac' Diagonal Fractions lookup 27 subtable" four.numr
Substitution2: "'dnom' Denominators lookup 25 subtable" four.dnom
Substitution2: "'numr' Numerators lookup 24 subtable" four.numr
Substitution2: "'sups' Superscript lookup 23 subtable" uni2074
Substitution2: "'subs' Subscript lookup 22 subtable" uni2084
AlternateSubs2: "'aalt' Access All Alternates lookup 1 subtable" uni2074 four.osf four.dnom four.numr uni2084
EndChar

StartChar: five
Encoding: 53 53 24
Width: 563
Flags: HW
LayerCount: 2
Fore
SplineSet
238 -10 m 0
 177 -10 116 3 79 29 c 1
 94 113 l 1
 133 83 189 67 247 67 c 0
 350 67 417 114 435 216 c 0
 437 231 439 245 439 258 c 0
 437 329 387 365 306 365 c 0
 269 365 223 357 193 350 c 1
 155 378 l 1
 241 714 l 1
 574 714 l 1
 560 634 l 1
 303 634 l 1
 248 428 l 1
 277 433 316 438 347 438 c 0
 453 438 528 385 532 280 c 0
 533 262 530 244 527 223 c 0
 502 80 396 -10 238 -10 c 0
EndSplineSet
Substitution2: "'onum' Oldstyle Figures lookup 33 subtable" five.osf
Substitution2: "'frac' Diagonal Fractions lookup 27 subtable" five.numr
Substitution2: "'dnom' Denominators lookup 25 subtable" five.dnom
Substitution2: "'numr' Numerators lookup 24 subtable" five.numr
Substitution2: "'sups' Superscript lookup 23 subtable" uni2075
Substitution2: "'subs' Subscript lookup 22 subtable" uni2085
AlternateSubs2: "'aalt' Access All Alternates lookup 1 subtable" uni2075 five.osf five.dnom five.numr uni2085
EndChar

StartChar: six
Encoding: 54 54 25
Width: 563
Flags: HW
LayerCount: 2
Fore
SplineSet
287 -10 m 0
 176 -10 107 54 102 188 c 0
 101 223 105 264 113 309 c 0
 151 519 251 724 498 724 c 0
 524 724 559 721 578 715 c 1
 565 638 l 1
 545 646 515 650 487 650 c 0
 313 650 243 519 209 364 c 1
 215 364 l 1
 249 413 307 450 386 450 c 0
 487 450 548 395 551 296 c 0
 552 276 550 253 546 229 c 0
 520 81 420 -10 287 -10 c 0
301 64 m 0
 377 64 439 114 459 228 c 0
 462 248 465 265 464 281 c 0
 462 345 427 381 360 381 c 0
 274 381 202 314 189 244 c 0
 186 228 184 211 185 194 c 0
 187 126 222 64 301 64 c 0
EndSplineSet
Substitution2: "'onum' Oldstyle Figures lookup 33 subtable" six.osf
Substitution2: "'frac' Diagonal Fractions lookup 27 subtable" six.numr
Substitution2: "'dnom' Denominators lookup 25 subtable" six.dnom
Substitution2: "'numr' Numerators lookup 24 subtable" six.numr
Substitution2: "'sups' Superscript lookup 23 subtable" uni2076
Substitution2: "'subs' Subscript lookup 22 subtable" uni2086
AlternateSubs2: "'aalt' Access All Alternates lookup 1 subtable" uni2076 six.osf six.dnom six.numr uni2086
EndChar

StartChar: seven
Encoding: 55 55 26
Width: 563
Flags: HW
LayerCount: 2
Fore
SplineSet
156 0 m 1
 528 634 l 1
 169 634 l 1
 183 714 l 1
 633 714 l 1
 621 643 l 1
 251 0 l 1
 156 0 l 1
EndSplineSet
Substitution2: "'onum' Oldstyle Figures lookup 33 subtable" seven.osf
Substitution2: "'frac' Diagonal Fractions lookup 27 subtable" seven.numr
Substitution2: "'dnom' Denominators lookup 25 subtable" seven.dnom
Substitution2: "'numr' Numerators lookup 24 subtable" seven.numr
Substitution2: "'sups' Superscript lookup 23 subtable" uni2077
Substitution2: "'subs' Subscript lookup 22 subtable" uni2087
AlternateSubs2: "'aalt' Access All Alternates lookup 1 subtable" uni2077 seven.osf seven.dnom seven.numr uni2087
EndChar

StartChar: eight
Encoding: 56 56 27
Width: 563
Flags: HW
LayerCount: 2
Fore
SplineSet
274 -10 m 0
 164 -10 94 41 91 133 c 0
 90 148 92 163 95 180 c 0
 113 280 180 337 265 374 c 1
 218 406 182 449 180 512 c 0
 180 525 182 538 184 553 c 0
 204 667 306 724 411 724 c 0
 504 724 575 680 578 593 c 0
 578 580 579 567 576 553 c 0
 561 466 500 414 419 378 c 1
 484 341 531 296 534 224 c 0
 534 211 535 197 532 183 c 0
 512 68 409 -10 274 -10 c 0
356 414 m 1
 425 443 477 481 489 549 c 0
 491 559 491 568 491 576 c 0
 489 625 453 650 396 650 c 0
 329 650 280 616 268 548 c 0
 266 538 266 528 266 520 c 0
 268 466 309 439 356 414 c 1
291 63 m 0
 378 63 434 113 447 186 c 0
 449 196 449 205 449 214 c 0
 447 265 408 297 330 340 c 1
 247 303 195 255 182 181 c 0
 180 170 180 159 180 149 c 0
 182 97 216 63 291 63 c 0
EndSplineSet
Substitution2: "'onum' Oldstyle Figures lookup 33 subtable" eight.osf
Substitution2: "'frac' Diagonal Fractions lookup 27 subtable" eight.numr
Substitution2: "'dnom' Denominators lookup 25 subtable" eight.dnom
Substitution2: "'numr' Numerators lookup 24 subtable" eight.numr
Substitution2: "'sups' Superscript lookup 23 subtable" uni2078
Substitution2: "'subs' Subscript lookup 22 subtable" uni2088
AlternateSubs2: "'aalt' Access All Alternates lookup 1 subtable" uni2078 eight.osf eight.dnom eight.numr uni2088
EndChar

StartChar: nine
Encoding: 57 57 28
Width: 563
Flags: HW
LayerCount: 2
Fore
SplineSet
197 -10 m 0
 168 -10 137 -7 117 -1 c 1
 130 77 l 1
 150 68 179 64 207 64 c 0
 370 64 445 196 479 350 c 1
 474 350 l 1
 436 300 380 264 303 264 c 0
 202 264 142 319 139 418 c 0
 138 439 141 462 145 487 c 0
 171 633 270 724 404 724 c 0
 512 724 581 662 586 526 c 0
 587 489 583 447 575 398 c 0
 542 208 440 -10 197 -10 c 0
328 333 m 0
 409 333 485 389 501 478 c 0
 504 491 504 506 504 520 c 0
 502 582 470 650 389 650 c 0
 309 650 249 595 230 488 c 0
 227 467 224 449 225 433 c 0
 227 366 264 333 328 333 c 0
EndSplineSet
Substitution2: "'onum' Oldstyle Figures lookup 33 subtable" nine.osf
Substitution2: "'frac' Diagonal Fractions lookup 27 subtable" nine.numr
Substitution2: "'dnom' Denominators lookup 25 subtable" nine.dnom
Substitution2: "'numr' Numerators lookup 24 subtable" nine.numr
Substitution2: "'sups' Superscript lookup 23 subtable" uni2079
Substitution2: "'subs' Subscript lookup 22 subtable" uni2089
AlternateSubs2: "'aalt' Access All Alternates lookup 1 subtable" uni2079 nine.osf nine.dnom nine.numr uni2089
EndChar

StartChar: colon
Encoding: 58 58 29
Width: 563
Flags: HW
LayerCount: 2
Fore
SplineSet
355 411 m 0
 326 411 306 424 305 456 c 0
 305 462 305 470 307 478 c 0
 315 527 344 546 379 546 c 0
 407 546 428 532 429 500 c 0
 429 493 429 486 427 478 c 0
 419 431 389 411 355 411 c 0
280 -11 m 0
 251 -11 231 4 230 36 c 0
 230 42 229 49 231 57 c 0
 239 105 269 124 304 124 c 0
 332 124 353 112 354 79 c 0
 354 73 354 65 352 57 c 0
 344 10 313 -11 280 -11 c 0
EndSplineSet
EndChar

StartChar: semicolon
Encoding: 59 59 30
Width: 563
Flags: HW
LayerCount: 2
Fore
SplineSet
367 411 m 0
 338 411 317 425 316 457 c 0
 316 463 316 470 318 478 c 0
 326 527 356 546 391 546 c 0
 419 546 440 532 441 500 c 0
 441 493 441 486 439 478 c 0
 431 431 400 411 367 411 c 0
166 -137 m 1
 202 -53 241 50 264 124 c 1
 365 124 l 1
 370 112 l 1
 338 35 284 -60 236 -137 c 1
 166 -137 l 1
EndSplineSet
EndChar

StartChar: less
Encoding: 60 60 31
Width: 563
Flags: HW
LayerCount: 2
Fore
SplineSet
502 122 m 1
 136 326 l 1
 145 376 l 1
 586 597 l 1
 572 519 l 1
 234 352 l 1
 516 200 l 1
 502 122 l 1
EndSplineSet
EndChar

StartChar: equal
Encoding: 61 61 32
Width: 563
Flags: HW
LayerCount: 2
Fore
SplineSet
136 410 m 1
 150 489 l 1
 588 489 l 1
 574 410 l 1
 136 410 l 1
101 215 m 1
 115 294 l 1
 553 294 l 1
 539 215 l 1
 101 215 l 1
EndSplineSet
Substitution2: "'sups' Superscript lookup 23 subtable" uni207C
Substitution2: "'subs' Subscript lookup 22 subtable" uni208C
AlternateSubs2: "'aalt' Access All Alternates lookup 1 subtable" uni208C uni207C
EndChar

StartChar: greater
Encoding: 62 62 33
Width: 563
Flags: HW
LayerCount: 2
Fore
SplineSet
102 122 m 1
 116 200 l 1
 452 352 l 1
 172 519 l 1
 186 597 l 1
 550 376 l 1
 541 326 l 1
 102 122 l 1
EndSplineSet
EndChar

StartChar: question
Encoding: 63 63 34
Width: 563
Flags: HW
LayerCount: 2
Fore
SplineSet
253 223 m 2
 266 297 296 339 373 393 c 0
 448 447 478 479 490 547 c 0
 492 555 492 563 492 571 c 0
 490 617 456 647 391 647 c 0
 328 647 278 629 226 605 c 1
 206 677 l 1
 263 703 325 724 404 724 c 0
 513 724 575 674 578 592 c 0
 578 579 577 566 575 551 c 0
 558 459 516 414 432 353 c 0
 353 296 336 271 326 214 c 2
 324 202 l 1
 250 202 l 1
 253 223 l 2
253 -11 m 0
 224 -11 204 4 203 36 c 0
 203 42 202 49 204 57 c 0
 212 105 241 124 277 124 c 0
 305 124 326 112 327 79 c 0
 327 73 327 65 325 57 c 0
 317 10 286 -11 253 -11 c 0
EndSplineSet
Substitution2: "'smcp' Lowercase to Small Capitals lookup 35 subtable" question.sc
Substitution2: "'c2sc' Capitals to Small Capitals lookup 34 subtable" question.sc
Substitution2: "'aalt' Access All Alternates lookup 0 subtable" question.sc
EndChar

StartChar: at
Encoding: 64 64 35
Width: 563
Flags: HW
LayerCount: 2
Fore
SplineSet
289 -89 m 0
 135 -89 56 4 51 159 c 0
 50 200 54 245 62 294 c 0
 106 545 240 714 427 714 c 0
 551 714 622 628 627 483 c 0
 628 445 626 403 618 357 c 0
 596 235 543 108 460 108 c 0
 422 108 402 139 401 180 c 0
 401 184 401 189 401 193 c 1
 399 193 l 1
 371 143 329 108 278 108 c 0
 219 108 188 153 185 225 c 0
 184 246 186 270 191 296 c 0
 214 428 296 520 399 520 c 0
 443 520 489 508 510 497 c 1
 463 294 l 2
 459 282 458 267 456 257 c 0
 452 234 451 216 451 203 c 0
 452 177 459 167 472 167 c 0
 506 167 533 247 553 358 c 0
 561 400 564 437 563 471 c 0
 559 587 506 652 415 652 c 0
 269 652 167 514 129 297 c 0
 121 251 117 210 118 173 c 0
 122 47 182 -26 303 -26 c 0
 364 -26 421 -11 472 12 c 1
 461 -49 l 1
 409 -74 355 -89 289 -89 c 0
302 167 m 0
 346 167 374 226 397 323 c 2
 426 451 l 1
 416 456 401 461 385 461 c 0
 322 461 281 385 265 294 c 0
 261 268 258 247 259 229 c 0
 260 187 276 167 302 167 c 0
EndSplineSet
EndChar

StartChar: A
Encoding: 65 65 36
Width: 563
GlyphClass: 2
Flags: HW
AnchorPoint: "Anchor-2" 670 714 basechar 0
AnchorPoint: "Anchor-1" 409 714 basechar 0
AnchorPoint: "Anchor-0" 282 0 basechar 0
LayerCount: 2
Fore
SplineSet
20 0 m 1
 358 716 l 1
 458 716 l 1
 543 0 l 1
 454 0 l 1
 431 222 l 1
 210 222 l 1
 109 0 l 1
 20 0 l 1
347 521 m 2
 246 300 l 1
 424 300 l 1
 401 521 l 2
 398 549 393 594 392 631 c 1
 378 594 359 548 347 521 c 2
EndSplineSet
Substitution2: "'c2sc' Capitals to Small Capitals lookup 34 subtable" a.sc
Substitution2: "Single Substitution lookup 32 subtable" ordfeminine
AlternateSubs2: "'aalt' Access All Alternates lookup 1 subtable" ordfeminine a.sc
EndChar

StartChar: B
Encoding: 66 66 37
Width: 563
GlyphClass: 2
Flags: HW
AnchorPoint: "Anchor-2" 670 714 basechar 0
AnchorPoint: "Anchor-1" 409 714 basechar 0
AnchorPoint: "Anchor-0" 282 0 basechar 0
LayerCount: 2
Fore
SplineSet
84 0 m 1
 211 714 l 1
 389 714 l 2
 514 714 589 678 592 586 c 0
 592 572 591 556 588 539 c 0
 572 448 518 393 438 379 c 1
 436 374 l 1
 500 361 549 329 552 254 c 0
 552 240 552 224 549 206 c 0
 527 77 428 0 290 0 c 2
 84 0 l 1
340 412 m 2
 438 412 485 450 498 527 c 0
 501 539 500 550 500 560 c 0
 498 614 458 637 367 637 c 2
 280 637 l 1
 241 412 l 1
 340 412 l 2
288 77 m 2
 395 77 445 128 459 207 c 0
 462 220 461 233 461 244 c 0
 459 301 421 335 327 335 c 2
 226 335 l 1
 180 77 l 1
 288 77 l 2
EndSplineSet
Substitution2: "'c2sc' Capitals to Small Capitals lookup 34 subtable" b.sc
Substitution2: "'aalt' Access All Alternates lookup 0 subtable" b.sc
EndChar

StartChar: C
Encoding: 67 67 38
Width: 563
GlyphClass: 2
Flags: HW
AnchorPoint: "Anchor-2" 670 714 basechar 0
AnchorPoint: "Anchor-1" 467 714 basechar 0
AnchorPoint: "Anchor-0" 328 0 basechar 0
LayerCount: 2
Fore
SplineSet
342 -10 m 0
 187 -10 114 82 109 228 c 0
 108 267 112 310 120 357 c 0
 159 577 289 725 479 725 c 0
 544 725 599 710 644 684 c 1
 598 612 l 1
 563 634 514 647 465 647 c 0
 331 647 242 535 210 357 c 0
 202 315 199 277 200 243 c 0
 204 134 254 70 362 70 c 0
 409 70 461 80 512 99 c 1
 497 18 l 1
 444 -2 398 -10 342 -10 c 0
EndSplineSet
Substitution2: "'c2sc' Capitals to Small Capitals lookup 34 subtable" c.sc
Substitution2: "'aalt' Access All Alternates lookup 0 subtable" c.sc
EndChar

StartChar: D
Encoding: 68 68 39
Width: 563
GlyphClass: 2
Flags: HW
AnchorPoint: "Anchor-3" 349 357 basechar 0
AnchorPoint: "Anchor-2" 690 714 basechar 0
AnchorPoint: "Anchor-1" 388 714 basechar 0
AnchorPoint: "Anchor-0" 248 0 basechar 0
LayerCount: 2
Fore
SplineSet
61 0 m 1
 188 714 l 1
 367 714 l 2
 510 714 595 634 600 482 c 0
 601 447 598 408 591 365 c 0
 548 124 416 0 222 0 c 2
 61 0 l 1
229 78 m 2
 380 78 467 175 500 363 c 0
 508 404 511 439 510 470 c 0
 506 585 446 636 339 636 c 2
 261 636 l 1
 162 78 l 1
 229 78 l 2
EndSplineSet
Substitution2: "'c2sc' Capitals to Small Capitals lookup 34 subtable" d.sc
Substitution2: "'aalt' Access All Alternates lookup 0 subtable" d.sc
EndChar

StartChar: E
Encoding: 69 69 40
Width: 563
GlyphClass: 2
Flags: HW
AnchorPoint: "Anchor-2" 670 714 basechar 0
AnchorPoint: "Anchor-1" 412 714 basechar 0
AnchorPoint: "Anchor-0" 286 0 basechar 0
LayerCount: 2
Fore
SplineSet
84 0 m 1
 211 714 l 1
 615 714 l 1
 601 635 l 1
 285 635 l 1
 246 412 l 1
 543 412 l 1
 528 332 l 1
 231 332 l 1
 186 79 l 1
 502 79 l 1
 488 0 l 1
 84 0 l 1
EndSplineSet
Substitution2: "'c2sc' Capitals to Small Capitals lookup 34 subtable" e.sc
Substitution2: "'aalt' Access All Alternates lookup 0 subtable" e.sc
EndChar

StartChar: F
Encoding: 70 70 41
Width: 563
GlyphClass: 2
Flags: HW
AnchorPoint: "Anchor-2" 670 714 basechar 0
AnchorPoint: "Anchor-1" 422 714 basechar 0
AnchorPoint: "Anchor-0" 295 0 basechar 0
LayerCount: 2
Fore
SplineSet
84 0 m 1
 211 714 l 1
 615 714 l 1
 601 635 l 1
 285 635 l 1
 240 382 l 1
 539 382 l 1
 524 303 l 1
 225 303 l 1
 172 0 l 1
 84 0 l 1
EndSplineSet
Substitution2: "'c2sc' Capitals to Small Capitals lookup 34 subtable" f.sc
Substitution2: "'aalt' Access All Alternates lookup 0 subtable" f.sc
EndChar

StartChar: G
Encoding: 71 71 42
Width: 563
GlyphClass: 2
Flags: HW
AnchorPoint: "Anchor-2" 670 714 basechar 0
AnchorPoint: "Anchor-1" 431 714 basechar 0
AnchorPoint: "Anchor-0" 316 0 basechar 0
LayerCount: 2
Fore
SplineSet
317 -10 m 0
 168 -10 94 74 89 219 c 0
 88 259 93 303 101 351 c 0
 142 580 265 725 457 725 c 0
 522 725 574 710 618 682 c 1
 573 609 l 1
 539 633 499 646 444 646 c 0
 310 646 223 540 190 353 c 0
 182 312 179 273 180 238 c 0
 184 136 227 68 333 68 c 0
 372 68 403 75 431 83 c 1
 469 298 l 1
 350 298 l 1
 364 377 l 1
 568 377 l 1
 506 26 l 1
 451 5 387 -10 317 -10 c 0
EndSplineSet
Substitution2: "'c2sc' Capitals to Small Capitals lookup 34 subtable" g.sc
Substitution2: "'aalt' Access All Alternates lookup 0 subtable" g.sc
EndChar

StartChar: H
Encoding: 72 72 43
Width: 563
GlyphClass: 2
Flags: HW
AnchorPoint: "Anchor-3" 348 373 basechar 0
AnchorPoint: "Anchor-2" 690 714 basechar 0
AnchorPoint: "Anchor-1" 409 714 basechar 0
AnchorPoint: "Anchor-0" 282 0 basechar 0
LayerCount: 2
Fore
SplineSet
61 0 m 1
 188 714 l 1
 276 714 l 1
 222 411 l 1
 488 411 l 1
 542 714 l 1
 630 714 l 1
 503 0 l 1
 415 0 l 1
 474 332 l 1
 208 332 l 1
 149 0 l 1
 61 0 l 1
EndSplineSet
Substitution2: "'c2sc' Capitals to Small Capitals lookup 34 subtable" h.sc
Substitution2: "'aalt' Access All Alternates lookup 0 subtable" h.sc
EndChar

StartChar: I
Encoding: 73 73 44
Width: 563
GlyphClass: 2
Flags: HW
AnchorPoint: "Anchor-2" 670 714 basechar 0
AnchorPoint: "Anchor-1" 409 714 basechar 0
AnchorPoint: "Anchor-0" 282 0 basechar 0
LayerCount: 2
Fore
SplineSet
97 0 m 1
 108 61 l 1
 250 73 l 1
 351 641 l 1
 213 653 l 1
 224 714 l 1
 593 714 l 1
 582 653 l 1
 438 641 l 1
 337 73 l 1
 477 61 l 1
 466 0 l 1
 97 0 l 1
EndSplineSet
Substitution2: "'c2sc' Capitals to Small Capitals lookup 34 subtable" i.sc
Substitution2: "'aalt' Access All Alternates lookup 0 subtable" i.sc
EndChar

StartChar: J
Encoding: 74 74 45
Width: 563
GlyphClass: 2
Flags: HW
AnchorPoint: "Anchor-2" 670 714 basechar 0
AnchorPoint: "Anchor-1" 521 714 basechar 0
AnchorPoint: "Anchor-0" 282 0 basechar 0
LayerCount: 2
Fore
SplineSet
223 -10 m 0
 172 -10 117 2 85 19 c 1
 99 101 l 1
 130 86 182 70 231 70 c 0
 314 70 371 118 390 225 c 2
 477 714 l 1
 565 714 l 1
 476 212 l 2
 452 75 363 -10 223 -10 c 0
EndSplineSet
Substitution2: "'c2sc' Capitals to Small Capitals lookup 34 subtable" j.sc
Substitution2: "'aalt' Access All Alternates lookup 0 subtable" j.sc
EndChar

StartChar: K
Encoding: 75 75 46
Width: 563
GlyphClass: 2
Flags: HW
AnchorPoint: "Anchor-2" 670 714 basechar 0
AnchorPoint: "Anchor-1" 409 714 basechar 0
AnchorPoint: "Anchor-0" 291 0 basechar 0
LayerCount: 2
Fore
SplineSet
61 0 m 1
 188 714 l 1
 275 714 l 1
 208 339 l 1
 237 373 268 410 305 453 c 2
 540 714 l 1
 640 714 l 1
 353 392 l 1
 523 0 l 1
 423 0 l 1
 282 331 l 1
 192 247 l 1
 148 0 l 1
 61 0 l 1
EndSplineSet
Substitution2: "'c2sc' Capitals to Small Capitals lookup 34 subtable" k.sc
Substitution2: "'aalt' Access All Alternates lookup 0 subtable" k.sc
EndChar

StartChar: L
Encoding: 76 76 47
Width: 563
GlyphClass: 2
Flags: HW
AnchorPoint: "Anchor-3" 346 357 basechar 0
AnchorPoint: "Anchor-2" 543 714 basechar 0
AnchorPoint: "Anchor-1" 273 714 basechar 0
AnchorPoint: "Anchor-0" 308 0 basechar 0
LayerCount: 2
Fore
SplineSet
100 0 m 1
 227 714 l 1
 315 714 l 1
 202 82 l 1
 502 82 l 1
 488 0 l 1
 100 0 l 1
EndSplineSet
Substitution2: "'c2sc' Capitals to Small Capitals lookup 34 subtable" l.sc
Substitution2: "'aalt' Access All Alternates lookup 0 subtable" l.sc
EndChar

StartChar: M
Encoding: 77 77 48
Width: 563
GlyphClass: 2
Flags: HW
AnchorPoint: "Anchor-2" 690 714 basechar 0
AnchorPoint: "Anchor-1" 413 714 basechar 0
AnchorPoint: "Anchor-0" 282 0 basechar 0
LayerCount: 2
Fore
SplineSet
43 0 m 1
 170 714 l 1
 295 714 l 1
 332 295 l 1
 335 295 l 1
 521 714 l 1
 648 714 l 1
 521 0 l 1
 438 0 l 1
 506 388 l 2
 520 468 541 558 562 632 c 1
 558 632 l 1
 355 188 l 1
 272 188 l 1
 227 632 l 1
 223 632 l 1
 220 573 208 470 193 387 c 2
 125 0 l 1
 43 0 l 1
EndSplineSet
Substitution2: "'c2sc' Capitals to Small Capitals lookup 34 subtable" m.sc
Substitution2: "'aalt' Access All Alternates lookup 0 subtable" m.sc
EndChar

StartChar: N
Encoding: 78 78 49
Width: 563
GlyphClass: 2
Flags: HW
AnchorPoint: "Anchor-2" 690 714 basechar 0
AnchorPoint: "Anchor-1" 414 714 basechar 0
AnchorPoint: "Anchor-0" 282 0 basechar 0
LayerCount: 2
Fore
SplineSet
61 0 m 1
 188 714 l 1
 306 714 l 1
 444 107 l 1
 448 107 l 1
 453 165 460 231 473 307 c 2
 546 714 l 1
 630 714 l 1
 503 0 l 1
 393 0 l 1
 248 625 l 1
 243 625 l 1
 236 555 231 486 218 412 c 2
 144 0 l 1
 61 0 l 1
EndSplineSet
Substitution2: "'c2sc' Capitals to Small Capitals lookup 34 subtable" n.sc
Substitution2: "'aalt' Access All Alternates lookup 0 subtable" n.sc
EndChar

StartChar: O
Encoding: 79 79 50
Width: 563
GlyphClass: 2
Flags: HW
AnchorPoint: "Anchor-3" 346 357 basechar 0
AnchorPoint: "Anchor-2" 690 714 basechar 0
AnchorPoint: "Anchor-1" 409 714 basechar 0
AnchorPoint: "Anchor-0" 282 0 basechar 0
LayerCount: 2
Fore
SplineSet
279 -10 m 0
 149 -10 94 76 89 207 c 0
 87 252 91 303 101 358 c 0
 141 584 242 726 411 726 c 0
 540 726 597 641 602 508 c 0
 604 463 598 413 589 359 c 0
 551 143 454 -10 279 -10 c 0
295 68 m 0
 405 68 466 173 499 358 c 0
 509 414 513 462 512 503 c 0
 509 597 474 648 398 648 c 0
 285 648 223 541 190 358 c 0
 180 304 176 256 177 216 c 0
 180 121 218 68 295 68 c 0
EndSplineSet
Substitution2: "'c2sc' Capitals to Small Capitals lookup 34 subtable" o.sc
Substitution2: "Single Substitution lookup 32 subtable" ordmasculine
AlternateSubs2: "'aalt' Access All Alternates lookup 1 subtable" ordmasculine o.sc
EndChar

StartChar: P
Encoding: 80 80 51
Width: 563
GlyphClass: 2
Flags: HW
AnchorPoint: "Anchor-2" 690 714 basechar 0
AnchorPoint: "Anchor-1" 409 714 basechar 0
AnchorPoint: "Anchor-0" 282 0 basechar 0
LayerCount: 2
Fore
SplineSet
84 0 m 1
 211 714 l 1
 408 714 l 2
 541 714 603 662 606 567 c 0
 607 548 605 527 601 505 c 0
 579 382 498 276 318 276 c 2
 220 276 l 1
 171 0 l 1
 84 0 l 1
323 354 m 2
 432 354 493 395 511 500 c 0
 514 517 515 532 515 545 c 0
 513 609 471 636 388 636 c 2
 284 636 l 1
 234 354 l 1
 323 354 l 2
EndSplineSet
Substitution2: "'c2sc' Capitals to Small Capitals lookup 34 subtable" p.sc
Substitution2: "'aalt' Access All Alternates lookup 0 subtable" p.sc
EndChar

StartChar: Q
Encoding: 81 81 52
Width: 563
GlyphClass: 2
Flags: HW
AnchorPoint: "Anchor-3" 346 357 basechar 0
AnchorPoint: "Anchor-2" 690 714 basechar 0
AnchorPoint: "Anchor-1" 409 714 basechar 0
AnchorPoint: "Anchor-0" 243 -220 basechar 0
LayerCount: 2
Fore
SplineSet
279 -10 m 0
 149 -10 94 76 89 207 c 0
 87 252 91 303 101 358 c 0
 141 584 242 726 411 726 c 0
 540 726 597 641 602 508 c 0
 604 463 598 413 589 359 c 0
 562 207 507 87 416 28 c 1
 483 -180 l 1
 386 -180 l 1
 334 -5 l 1
 316 -8 298 -10 279 -10 c 0
295 68 m 0
 405 68 466 173 499 358 c 0
 509 414 513 462 512 503 c 0
 509 597 474 648 398 648 c 0
 285 648 223 541 190 358 c 0
 180 304 176 256 177 216 c 0
 180 121 218 68 295 68 c 0
EndSplineSet
Substitution2: "'c2sc' Capitals to Small Capitals lookup 34 subtable" q.sc
Substitution2: "'aalt' Access All Alternates lookup 0 subtable" q.sc
EndChar

StartChar: R
Encoding: 82 82 53
Width: 563
GlyphClass: 2
Flags: HW
AnchorPoint: "Anchor-2" 670 714 basechar 0
AnchorPoint: "Anchor-1" 409 714 basechar 0
AnchorPoint: "Anchor-0" 305 0 basechar 0
LayerCount: 2
Fore
SplineSet
84 0 m 1
 211 714 l 1
 374 714 l 2
 508 714 578 666 581 569 c 0
 582 552 579 533 576 513 c 0
 556 400 490 344 415 317 c 1
 536 0 l 1
 439 0 l 1
 331 293 l 1
 223 293 l 1
 171 0 l 1
 84 0 l 1
311 370 m 2
 417 370 468 417 484 506 c 0
 486 522 488 535 488 548 c 0
 486 611 442 637 355 637 c 2
 284 637 l 1
 237 370 l 1
 311 370 l 2
EndSplineSet
Substitution2: "'c2sc' Capitals to Small Capitals lookup 34 subtable" r.sc
Substitution2: "'aalt' Access All Alternates lookup 0 subtable" r.sc
EndChar

StartChar: S
Encoding: 83 83 54
Width: 563
GlyphClass: 2
Flags: HW
AnchorPoint: "Anchor-2" 670 714 basechar 0
AnchorPoint: "Anchor-1" 424 714 basechar 0
AnchorPoint: "Anchor-0" 282 0 basechar 0
LayerCount: 2
Fore
SplineSet
256 -10 m 0
 188 -10 120 5 81 26 c 1
 95 107 l 1
 140 85 206 66 271 66 c 0
 372 66 428 114 441 191 c 0
 443 201 443 210 443 218 c 0
 441 267 402 287 313 332 c 0
 247 366 183 402 180 489 c 0
 180 503 180 519 183 536 c 0
 206 661 302 725 435 725 c 0
 501 725 560 709 606 685 c 1
 563 612 l 1
 523 633 471 647 420 647 c 0
 341 647 285 612 272 536 c 0
 270 526 270 516 270 508 c 0
 272 457 313 435 387 398 c 0
 470 356 531 324 534 240 c 0
 534 226 533 210 530 192 c 0
 508 63 410 -10 256 -10 c 0
EndSplineSet
Substitution2: "'c2sc' Capitals to Small Capitals lookup 34 subtable" s.sc
Substitution2: "'aalt' Access All Alternates lookup 0 subtable" s.sc
EndChar

StartChar: T
Encoding: 84 84 55
Width: 563
GlyphClass: 2
Flags: HW
AnchorPoint: "Anchor-3" 346 357 basechar 0
AnchorPoint: "Anchor-2" 670 714 basechar 0
AnchorPoint: "Anchor-1" 409 714 basechar 0
AnchorPoint: "Anchor-0" 282 0 basechar 0
LayerCount: 2
Fore
SplineSet
237 0 m 1
 350 635 l 1
 154 635 l 1
 168 714 l 1
 649 714 l 1
 635 635 l 1
 438 635 l 1
 325 0 l 1
 237 0 l 1
EndSplineSet
Substitution2: "'c2sc' Capitals to Small Capitals lookup 34 subtable" t.sc
Substitution2: "'aalt' Access All Alternates lookup 0 subtable" t.sc
EndChar

StartChar: U
Encoding: 85 85 56
Width: 563
GlyphClass: 2
Flags: HW
AnchorPoint: "Anchor-2" 670 714 basechar 0
AnchorPoint: "Anchor-1" 409 714 basechar 0
AnchorPoint: "Anchor-0" 282 0 basechar 0
LayerCount: 2
Fore
SplineSet
279 -10 m 0
 156 -10 101 48 97 152 c 0
 96 179 98 209 104 241 c 2
 188 714 l 1
 276 714 l 1
 192 245 l 2
 187 218 185 194 186 173 c 0
 188 106 220 68 294 68 c 0
 396 68 439 138 458 246 c 2
 542 714 l 1
 630 714 l 1
 546 240 l 2
 519 88 437 -10 279 -10 c 0
EndSplineSet
Substitution2: "'c2sc' Capitals to Small Capitals lookup 34 subtable" u.sc
Substitution2: "'aalt' Access All Alternates lookup 0 subtable" u.sc
EndChar

StartChar: V
Encoding: 86 86 57
Width: 563
GlyphClass: 2
Flags: HW
AnchorPoint: "Anchor-2" 670 714 basechar 0
AnchorPoint: "Anchor-1" 409 714 basechar 0
AnchorPoint: "Anchor-0" 282 0 basechar 0
LayerCount: 2
Fore
SplineSet
237 0 m 1
 148 714 l 1
 237 714 l 1
 286 250 l 2
 291 191 295 132 297 85 c 1
 299 85 l 1
 316 131 340 192 369 253 c 2
 580 714 l 1
 669 714 l 1
 328 0 l 1
 237 0 l 1
EndSplineSet
Substitution2: "'c2sc' Capitals to Small Capitals lookup 34 subtable" v.sc
Substitution2: "'aalt' Access All Alternates lookup 0 subtable" v.sc
EndChar

StartChar: W
Encoding: 87 87 58
Width: 563
GlyphClass: 2
Flags: HW
AnchorPoint: "Anchor-2" 670 714 basechar 0
AnchorPoint: "Anchor-1" 409 714 basechar 0
AnchorPoint: "Anchor-0" 282 0 basechar 0
LayerCount: 2
Fore
SplineSet
95 0 m 1
 148 714 l 1
 226 714 l 1
 218 609 208 503 199 398 c 0
 193 311 172 138 165 91 c 1
 167 91 l 1
 182 137 220 242 244 304 c 2
 334 536 l 1
 420 536 l 1
 430 302 l 2
 430 296 431 289 431 282 c 0
 433 216 435 133 433 91 c 1
 436 91 l 1
 445 138 482 299 507 400 c 0
 534 505 562 609 589 714 c 1
 669 714 l 1
 475 0 l 1
 377 0 l 1
 366 328 l 2
 365 388 363 427 363 448 c 1
 360 448 l 1
 354 427 342 388 318 327 c 2
 191 0 l 1
 95 0 l 1
EndSplineSet
Substitution2: "'c2sc' Capitals to Small Capitals lookup 34 subtable" w.sc
Substitution2: "'aalt' Access All Alternates lookup 0 subtable" w.sc
EndChar

StartChar: X
Encoding: 88 88 59
Width: 563
GlyphClass: 2
Flags: HW
AnchorPoint: "Anchor-2" 670 714 basechar 0
AnchorPoint: "Anchor-1" 409 714 basechar 0
AnchorPoint: "Anchor-0" 282 0 basechar 0
LayerCount: 2
Fore
SplineSet
30 0 m 1
 302 370 l 1
 171 714 l 1
 266 714 l 1
 361 442 l 1
 553 714 l 1
 647 714 l 1
 390 369 l 1
 534 0 l 1
 441 0 l 1
 333 298 l 1
 123 0 l 1
 30 0 l 1
EndSplineSet
Substitution2: "'c2sc' Capitals to Small Capitals lookup 34 subtable" x.sc
Substitution2: "'aalt' Access All Alternates lookup 0 subtable" x.sc
EndChar

StartChar: Y
Encoding: 89 89 60
Width: 563
GlyphClass: 2
Flags: HW
AnchorPoint: "Anchor-2" 670 714 basechar 0
AnchorPoint: "Anchor-1" 409 714 basechar 0
AnchorPoint: "Anchor-0" 282 0 basechar 0
LayerCount: 2
Fore
SplineSet
239 0 m 1
 288 276 l 1
 157 714 l 1
 253 714 l 1
 345 352 l 1
 567 714 l 1
 661 714 l 1
 373 276 l 1
 324 0 l 1
 239 0 l 1
EndSplineSet
Substitution2: "'c2sc' Capitals to Small Capitals lookup 34 subtable" y.sc
Substitution2: "'aalt' Access All Alternates lookup 0 subtable" y.sc
EndChar

StartChar: Z
Encoding: 90 90 61
Width: 563
GlyphClass: 2
Flags: HW
AnchorPoint: "Anchor-2" 670 714 basechar 0
AnchorPoint: "Anchor-1" 420 714 basechar 0
AnchorPoint: "Anchor-0" 297 0 basechar 0
LayerCount: 2
Fore
SplineSet
84 0 m 1
 97 71 l 1
 501 636 l 1
 214 636 l 1
 228 714 l 1
 607 714 l 1
 595 643 l 1
 193 79 l 1
 497 79 l 1
 483 0 l 1
 84 0 l 1
EndSplineSet
Substitution2: "'c2sc' Capitals to Small Capitals lookup 34 subtable" z.sc
Substitution2: "'aalt' Access All Alternates lookup 0 subtable" z.sc
EndChar

StartChar: bracketleft
Encoding: 91 91 62
Width: 563
Flags: HW
LayerCount: 2
Fore
SplineSet
190 -159 m 1
 345 716 l 1
 565 716 l 1
 552 646 l 1
 415 646 l 1
 285 -89 l 1
 422 -89 l 1
 410 -159 l 1
 190 -159 l 1
EndSplineSet
Substitution2: "'smcp' Lowercase to Small Capitals lookup 35 subtable" bracketleft.sc
Substitution2: "'c2sc' Capitals to Small Capitals lookup 34 subtable" bracketleft.sc
Substitution2: "'aalt' Access All Alternates lookup 0 subtable" bracketleft.sc
EndChar

StartChar: backslash
Encoding: 92 92 63
Width: 563
Flags: HW
LayerCount: 2
Fore
SplineSet
458 -1 m 1
 375 -1 l 1
 232 715 l 1
 315 715 l 1
 458 -1 l 1
EndSplineSet
EndChar

StartChar: bracketright
Encoding: 93 93 64
Width: 563
Flags: HW
LayerCount: 2
Fore
SplineSet
474 721 m 1
 318 -154 l 1
 99 -154 l 1
 112 -83 l 1
 248 -83 l 1
 378 651 l 1
 242 651 l 1
 255 721 l 1
 474 721 l 1
EndSplineSet
Substitution2: "'smcp' Lowercase to Small Capitals lookup 35 subtable" bracketright.sc
Substitution2: "'c2sc' Capitals to Small Capitals lookup 34 subtable" bracketright.sc
Substitution2: "'aalt' Access All Alternates lookup 0 subtable" bracketright.sc
EndChar

StartChar: asciicircum
Encoding: 94 94 65
Width: 563
Flags: HW
LayerCount: 2
Fore
SplineSet
99 291 m 1
 377 717 l 1
 426 717 l 1
 568 291 l 1
 489 291 l 1
 385 620 l 1
 177 291 l 1
 99 291 l 1
EndSplineSet
EndChar

StartChar: underscore
Encoding: 95 95 66
Width: 563
Flags: HW
LayerCount: 2
Fore
SplineSet
-28 -155 m 1
 -13 -76 l 1
 550 -76 l 1
 535 -155 l 1
 -28 -155 l 1
EndSplineSet
EndChar

StartChar: grave
Encoding: 96 96 67
Width: 563
Flags: HW
LayerCount: 2
Fore
SplineSet
406 606 m 1
 368 641 311 717 294 756 c 1
 295 766 l 1
 397 766 l 1
 410 721 440 655 463 618 c 1
 462 606 l 1
 406 606 l 1
EndSplineSet
EndChar

StartChar: a
Encoding: 97 97 68
Width: 563
GlyphClass: 2
Flags: HW
AnchorPoint: "Anchor-2" 638 536 basechar 0
AnchorPoint: "Anchor-1" 385 536 basechar 0
AnchorPoint: "Anchor-0" 282 0 basechar 0
LayerCount: 2
Fore
SplineSet
230 -10 m 0
 147 -10 92 28 89 105 c 0
 89 118 90 133 92 148 c 0
 112 263 202 318 352 322 c 2
 461 325 l 1
 466 351 l 2
 468 366 468 379 468 391 c 0
 466 452 425 473 363 473 c 0
 309 473 255 457 208 432 c 1
 189 499 l 1
 245 525 305 546 381 546 c 0
 489 546 549 505 552 417 c 0
 553 400 551 382 548 362 c 2
 484 0 l 1
 416 0 l 1
 416 75 l 1
 412 75 l 1
 361 19 304 -10 230 -10 c 0
261 63 m 0
 341 63 422 111 440 214 c 2
 449 262 l 1
 361 259 l 2
 244 255 191 218 179 151 c 0
 177 142 177 133 177 126 c 0
 179 81 212 63 261 63 c 0
EndSplineSet
Substitution2: "'smcp' Lowercase to Small Capitals lookup 35 subtable" a.sc
Substitution2: "Single Substitution lookup 32 subtable" ordfeminine
AlternateSubs2: "'aalt' Access All Alternates lookup 1 subtable" ordfeminine a.sc
EndChar

StartChar: b
Encoding: 98 98 69
Width: 563
GlyphClass: 2
Flags: HW
AnchorPoint: "Anchor-2" 678 760 basechar 0
AnchorPoint: "Anchor-1" 417 760 basechar 0
AnchorPoint: "Anchor-0" 282 0 basechar 0
LayerCount: 2
Fore
SplineSet
310 -10 m 0
 237 -10 194 24 169 68 c 1
 163 68 l 1
 140 0 l 1
 73 0 l 1
 208 760 l 1
 293 760 l 1
 260 576 l 2
 253 539 248 503 237 466 c 1
 241 466 l 1
 277 509 333 546 409 546 c 0
 507 546 566 486 570 370 c 0
 571 340 569 306 562 269 c 0
 529 85 432 -10 310 -10 c 0
303 63 m 0
 393 63 449 136 472 268 c 0
 478 301 481 331 480 356 c 0
 477 433 443 473 375 473 c 0
 289 473 230 403 207 272 c 0
 201 237 198 207 199 181 c 0
 202 103 236 63 303 63 c 0
EndSplineSet
Substitution2: "'smcp' Lowercase to Small Capitals lookup 35 subtable" b.sc
Substitution2: "'aalt' Access All Alternates lookup 0 subtable" b.sc
EndChar

StartChar: c
Encoding: 99 99 70
Width: 563
GlyphClass: 2
Flags: HW
AnchorPoint: "Anchor-2" 638 536 basechar 0
AnchorPoint: "Anchor-1" 407 536 basechar 0
AnchorPoint: "Anchor-0" 317 0 basechar 0
LayerCount: 2
Fore
SplineSet
322 -10 m 0
 199 -10 123 44 119 170 c 0
 118 198 121 229 127 264 c 0
 164 470 282 546 427 546 c 0
 486 546 532 534 572 512 c 1
 533 440 l 1
 497 462 463 470 419 470 c 0
 304 470 241 404 217 266 c 0
 212 237 208 210 209 188 c 0
 212 102 259 66 344 66 c 0
 397 66 450 80 492 98 c 1
 477 20 l 1
 434 1 377 -10 322 -10 c 0
EndSplineSet
Substitution2: "'smcp' Lowercase to Small Capitals lookup 35 subtable" c.sc
Substitution2: "'aalt' Access All Alternates lookup 0 subtable" c.sc
EndChar

StartChar: d
Encoding: 100 100 71
Width: 563
GlyphClass: 2
Flags: HW
AnchorPoint: "Anchor-3" 330 268 basechar 0
AnchorPoint: "Anchor-2" 678 760 basechar 0
AnchorPoint: "Anchor-1" 417 760 basechar 0
AnchorPoint: "Anchor-0" 282 0 basechar 0
LayerCount: 2
Fore
SplineSet
253 -10 m 0
 154 -10 93 48 89 166 c 0
 88 197 91 231 98 270 c 0
 130 449 221 546 358 546 c 0
 430 546 469 512 488 468 c 1
 493 468 l 1
 494 490 497 522 501 547 c 2
 539 760 l 1
 626 760 l 1
 491 0 l 1
 421 0 l 1
 421 72 l 1
 417 72 l 1
 381 25 329 -10 253 -10 c 0
286 63 m 0
 377 63 429 134 449 247 c 2
 453 267 l 2
 459 302 461 333 460 361 c 0
 458 430 431 473 362 473 c 0
 271 473 210 403 185 261 c 0
 179 229 177 201 178 176 c 0
 181 101 214 63 286 63 c 0
EndSplineSet
Substitution2: "'smcp' Lowercase to Small Capitals lookup 35 subtable" d.sc
Substitution2: "'aalt' Access All Alternates lookup 0 subtable" d.sc
EndChar

StartChar: e
Encoding: 101 101 72
Width: 563
GlyphClass: 2
Flags: HW
AnchorPoint: "Anchor-2" 638 536 basechar 0
AnchorPoint: "Anchor-1" 381 536 basechar 0
AnchorPoint: "Anchor-0" 292 0 basechar 0
LayerCount: 2
Fore
SplineSet
316 -10 m 0
 180 -10 100 58 96 184 c 0
 95 209 97 236 102 265 c 0
 133 441 245 546 389 546 c 0
 501 546 563 480 567 372 c 0
 568 349 567 323 562 296 c 2
 553 250 l 1
 187 250 l 1
 184 229 182 210 183 193 c 0
 186 101 243 64 334 64 c 0
 391 64 445 80 505 107 c 1
 491 28 l 1
 430 1 372 -10 316 -10 c 0
479 322 m 1
 481 338 482 352 482 366 c 0
 480 433 444 473 376 473 c 0
 293 473 230 416 202 322 c 1
 479 322 l 1
EndSplineSet
Substitution2: "'smcp' Lowercase to Small Capitals lookup 35 subtable" e.sc
Substitution2: "'aalt' Access All Alternates lookup 0 subtable" e.sc
EndChar

StartChar: f
Encoding: 102 102 73
Width: 563
GlyphClass: 2
Flags: HW
AnchorPoint: "Anchor-2" 713 765 basechar 0
AnchorPoint: "Anchor-1" 512 765 basechar 0
AnchorPoint: "Anchor-0" 282 0 basechar 0
LayerCount: 2
Fore
SplineSet
222 0 m 1
 304 462 l 1
 142 462 l 1
 153 523 l 1
 317 537 l 1
 327 593 l 2
 350 724 428 765 539 765 c 0
 592 765 633 756 663 746 c 1
 630 677 l 1
 604 686 567 692 534 692 c 0
 468 692 429 669 414 586 c 2
 404 536 l 1
 595 536 l 1
 582 462 l 1
 391 462 l 1
 309 0 l 1
 222 0 l 1
EndSplineSet
Substitution2: "'smcp' Lowercase to Small Capitals lookup 35 subtable" f.sc
Substitution2: "'aalt' Access All Alternates lookup 0 subtable" f.sc
EndChar

StartChar: g
Encoding: 103 103 74
Width: 563
GlyphClass: 2
Flags: HW
AnchorPoint: "Anchor-2" 638 536 basechar 0
AnchorPoint: "Anchor-1" 377 536 basechar 0
AnchorPoint: "Anchor-0" 239 -245 basechar 0
LayerCount: 2
Fore
SplineSet
216 -245 m 0
 150 -245 91 -231 43 -208 c 1
 57 -128 l 1
 104 -158 172 -173 227 -173 c 0
 335 -173 387 -113 404 -17 c 2
 408 5 l 2
 410 21 416 41 422 65 c 1
 419 65 l 1
 374 10 322 -10 257 -10 c 0
 152 -10 93 55 89 169 c 0
 88 198 91 230 97 265 c 0
 128 439 224 546 353 546 c 0
 419 546 462 523 488 468 c 1
 493 468 l 1
 516 536 l 1
 586 536 l 1
 488 -14 l 2
 460 -167 374 -245 216 -245 c 0
291 63 m 0
 375 63 431 119 454 246 c 2
 459 267 l 2
 465 302 468 332 467 357 c 0
 464 438 426 473 361 473 c 0
 267 473 210 399 187 268 c 0
 181 236 179 208 180 183 c 0
 183 104 219 63 291 63 c 0
EndSplineSet
Substitution2: "'smcp' Lowercase to Small Capitals lookup 35 subtable" g.sc
Substitution2: "'aalt' Access All Alternates lookup 0 subtable" g.sc
EndChar

StartChar: h
Encoding: 104 104 75
Width: 563
GlyphClass: 2
Flags: HW
AnchorPoint: "Anchor-3" 330 268 basechar 0
AnchorPoint: "Anchor-2" 678 760 basechar 0
AnchorPoint: "Anchor-1" 251 760 basechar 0
AnchorPoint: "Anchor-0" 282 0 basechar 0
LayerCount: 2
Fore
SplineSet
73 0 m 1
 208 760 l 1
 295 760 l 1
 256 540 l 2
 252 515 242 478 237 455 c 1
 242 455 l 1
 284 515 343 546 415 546 c 0
 502 546 561 505 564 413 c 0
 565 394 562 373 558 350 c 2
 496 0 l 1
 409 0 l 1
 468 332 l 2
 471 352 474 369 473 384 c 0
 471 444 438 473 380 473 c 0
 294 473 231 402 209 278 c 2
 160 0 l 1
 73 0 l 1
EndSplineSet
Substitution2: "'smcp' Lowercase to Small Capitals lookup 35 subtable" h.sc
Substitution2: "'subs' Subscript lookup 22 subtable" uni2095
AlternateSubs2: "'aalt' Access All Alternates lookup 1 subtable" h.sc uni2095
EndChar

StartChar: i
Encoding: 105 105 76
Width: 563
GlyphClass: 2
Flags: HW
AnchorPoint: "Anchor-3" 347 284 basechar 0
AnchorPoint: "Anchor-2" 600 762 basechar 0
AnchorPoint: "Anchor-1" 422 762 basechar 0
AnchorPoint: "Anchor-0" 299 0 basechar 0
LayerCount: 2
Fore
SplineSet
400 633 m 0
 370 633 349 648 348 679 c 0
 348 685 349 690 350 697 c 0
 357 741 387 762 422 762 c 0
 451 762 472 747 473 716 c 0
 473 710 473 704 472 697 c 0
 465 654 434 633 400 633 c 0
78 0 m 1
 89 60 l 1
 264 73 l 1
 333 462 l 1
 174 475 l 1
 185 536 l 1
 433 536 l 1
 351 73 l 1
 509 60 l 1
 498 0 l 1
 78 0 l 1
EndSplineSet
Substitution2: "'smcp' Lowercase to Small Capitals lookup 35 subtable" i.sc
Substitution2: "Single Substitution lookup 5 subtable" dotlessi
Substitution2: "Single Substitution lookup 4 subtable" dotlessi
AlternateSubs2: "'aalt' Access All Alternates lookup 1 subtable" dotlessi i.sc
EndChar

StartChar: j
Encoding: 106 106 77
Width: 563
GlyphClass: 2
Flags: HW
AnchorPoint: "Anchor-2" 622 762 basechar 0
AnchorPoint: "Anchor-1" 455 762 basechar 0
AnchorPoint: "Anchor-0" 166 -245 basechar 0
LayerCount: 2
Fore
SplineSet
434 633 m 0
 405 633 385 647 384 677 c 0
 384 683 384 690 386 697 c 0
 393 741 421 762 456 762 c 0
 485 762 506 747 507 716 c 0
 507 710 507 704 506 697 c 0
 499 653 468 633 434 633 c 0
137 -245 m 0
 96 -245 46 -238 15 -228 c 1
 28 -150 l 1
 58 -162 105 -171 142 -171 c 0
 222 -171 266 -130 280 -48 c 2
 370 462 l 1
 198 475 l 1
 209 536 l 1
 470 536 l 1
 365 -56 l 2
 343 -180 262 -245 137 -245 c 0
EndSplineSet
Substitution2: "'smcp' Lowercase to Small Capitals lookup 35 subtable" j.sc
Substitution2: "Single Substitution lookup 5 subtable" uni0237
Substitution2: "Single Substitution lookup 4 subtable" uni0237
AlternateSubs2: "'aalt' Access All Alternates lookup 1 subtable" uni0237 j.sc
EndChar

StartChar: k
Encoding: 107 107 78
Width: 563
GlyphClass: 2
Flags: HW
AnchorPoint: "Anchor-2" 624 849 basechar 0
AnchorPoint: "Anchor-1" 453 760 basechar 0
AnchorPoint: "Anchor-0" 315 0 basechar 0
LayerCount: 2
Fore
SplineSet
90 0 m 1
 225 760 l 1
 312 760 l 1
 248 400 l 2
 241 356 227 303 216 255 c 1
 217 255 l 1
 244 285 268 308 297 335 c 2
 511 536 l 1
 618 536 l 1
 366 305 l 1
 536 0 l 1
 434 0 l 1
 297 248 l 1
 209 179 l 1
 177 0 l 1
 90 0 l 1
EndSplineSet
Substitution2: "'smcp' Lowercase to Small Capitals lookup 35 subtable" k.sc
Substitution2: "'subs' Subscript lookup 22 subtable" uni2096
AlternateSubs2: "'aalt' Access All Alternates lookup 1 subtable" k.sc uni2096
EndChar

StartChar: l
Encoding: 108 108 79
Width: 563
GlyphClass: 2
Flags: HW
AnchorPoint: "Anchor-3" 364 381 basechar 0
AnchorPoint: "Anchor-2" 598 760 basechar 0
AnchorPoint: "Anchor-1" 417 760 basechar 0
AnchorPoint: "Anchor-0" 296 0 basechar 0
LayerCount: 2
Fore
SplineSet
78 0 m 1
 89 60 l 1
 265 73 l 1
 374 687 l 1
 208 699 l 1
 218 760 l 1
 474 760 l 1
 352 73 l 1
 509 60 l 1
 498 0 l 1
 78 0 l 1
EndSplineSet
Substitution2: "'smcp' Lowercase to Small Capitals lookup 35 subtable" l.sc
Substitution2: "'subs' Subscript lookup 22 subtable" uni2097
AlternateSubs2: "'aalt' Access All Alternates lookup 1 subtable" l.sc uni2097
EndChar

StartChar: m
Encoding: 109 109 80
Width: 563
GlyphClass: 2
Flags: HW
AnchorPoint: "Anchor-2" 638 536 basechar 0
AnchorPoint: "Anchor-1" 400 536 basechar 0
AnchorPoint: "Anchor-0" 286 0 basechar 0
LayerCount: 2
Fore
SplineSet
41 0 m 1
 136 536 l 1
 197 536 l 1
 199 479 l 1
 204 479 l 1
 236 529 270 546 312 546 c 0
 364 546 385 521 393 472 c 1
 396 472 l 1
 426 521 462 546 514 546 c 0
 569 546 595 519 597 458 c 0
 598 434 594 404 588 369 c 2
 523 0 l 1
 444 0 l 1
 508 356 l 2
 513 384 516 408 515 426 c 0
 514 455 504 470 477 470 c 0
 426 470 394 405 375 295 c 2
 322 0 l 1
 242 0 l 1
 306 356 l 2
 311 382 313 404 312 422 c 0
 311 453 300 470 272 470 c 0
 218 470 190 393 172 291 c 2
 120 0 l 1
 41 0 l 1
EndSplineSet
Substitution2: "'smcp' Lowercase to Small Capitals lookup 35 subtable" m.sc
Substitution2: "'subs' Subscript lookup 22 subtable" uni2098
AlternateSubs2: "'aalt' Access All Alternates lookup 1 subtable" m.sc uni2098
EndChar

StartChar: n
Encoding: 110 110 81
Width: 563
GlyphClass: 2
Flags: HW
AnchorPoint: "Anchor-2" 638 536 basechar 0
AnchorPoint: "Anchor-1" 388 536 basechar 0
AnchorPoint: "Anchor-0" 287 0 basechar 0
LayerCount: 2
Fore
SplineSet
73 0 m 1
 168 536 l 1
 238 536 l 1
 237 460 l 1
 242 460 l 1
 283 519 347 546 420 546 c 0
 507 546 561 506 564 418 c 0
 565 399 563 378 559 355 c 2
 496 0 l 1
 409 0 l 1
 470 343 l 2
 473 362 475 378 474 393 c 0
 472 447 444 473 385 473 c 0
 286 473 232 401 209 276 c 2
 160 0 l 1
 73 0 l 1
EndSplineSet
Substitution2: "'smcp' Lowercase to Small Capitals lookup 35 subtable" n.sc
Substitution2: "'sups' Superscript lookup 23 subtable" uni207F
Substitution2: "'subs' Subscript lookup 22 subtable" uni2099
AlternateSubs2: "'aalt' Access All Alternates lookup 1 subtable" uni207F n.sc uni2099
EndChar

StartChar: o
Encoding: 111 111 82
Width: 563
GlyphClass: 2
Flags: HW
AnchorPoint: "Anchor-3" 330 268 basechar 0
AnchorPoint: "Anchor-2" 638 536 basechar 0
AnchorPoint: "Anchor-1" 377 536 basechar 0
AnchorPoint: "Anchor-0" 282 0 basechar 0
LayerCount: 2
Fore
SplineSet
281 -10 m 0
 168 -10 95 54 91 180 c 0
 90 207 92 237 98 270 c 0
 131 452 240 546 377 546 c 0
 489 546 565 482 569 356 c 0
 570 329 568 299 562 267 c 0
 529 85 417 -10 281 -10 c 0
293 62 m 0
 388 62 450 138 473 269 c 0
 478 299 481 325 480 349 c 0
 477 429 438 474 365 474 c 0
 270 474 208 400 185 269 c 0
 180 239 177 212 178 188 c 0
 181 107 219 62 293 62 c 0
EndSplineSet
Substitution2: "'smcp' Lowercase to Small Capitals lookup 35 subtable" o.sc
Substitution2: "Single Substitution lookup 32 subtable" ordmasculine
AlternateSubs2: "'aalt' Access All Alternates lookup 1 subtable" ordmasculine o.sc
EndChar

StartChar: p
Encoding: 112 112 83
Width: 563
GlyphClass: 2
Flags: HW
AnchorPoint: "Anchor-2" 638 536 basechar 0
AnchorPoint: "Anchor-1" 394 536 basechar 0
AnchorPoint: "Anchor-0" 256 -240 basechar 0
LayerCount: 2
Fore
SplineSet
30 -240 m 1
 168 536 l 1
 239 536 l 1
 237 463 l 1
 241 463 l 1
 280 513 334 546 409 546 c 0
 507 546 566 486 570 370 c 0
 571 340 569 306 562 269 c 0
 529 86 432 -10 309 -10 c 0
 236 -10 195 27 172 69 c 1
 166 69 l 1
 166 46 162 15 157 -11 c 2
 116 -240 l 1
 30 -240 l 1
303 63 m 0
 393 63 449 133 473 271 c 0
 479 305 481 335 480 361 c 0
 477 436 444 473 375 473 c 0
 282 473 231 407 210 289 c 2
 207 269 l 2
 201 234 198 204 199 177 c 0
 202 105 232 63 303 63 c 0
EndSplineSet
Substitution2: "'smcp' Lowercase to Small Capitals lookup 35 subtable" p.sc
Substitution2: "'subs' Subscript lookup 22 subtable" uni209A
AlternateSubs2: "'aalt' Access All Alternates lookup 1 subtable" p.sc uni209A
EndChar

StartChar: q
Encoding: 113 113 84
Width: 563
GlyphClass: 2
Flags: HW
AnchorPoint: "Anchor-2" 638 536 basechar 0
AnchorPoint: "Anchor-1" 360 536 basechar 0
AnchorPoint: "Anchor-0" 222 -240 basechar 0
LayerCount: 2
Fore
SplineSet
402 -11 m 2
 407 16 413 43 420 72 c 1
 416 72 l 1
 380 27 329 -10 256 -10 c 0
 156 -10 93 51 89 169 c 0
 88 198 91 231 98 267 c 0
 131 450 231 546 356 546 c 0
 429 546 466 509 488 464 c 1
 492 464 l 1
 516 536 l 1
 586 536 l 1
 448 -240 l 1
 361 -240 l 1
 402 -11 l 2
286 63 m 0
 374 63 428 130 449 247 c 2
 453 267 l 2
 459 302 461 333 460 360 c 0
 457 432 428 473 358 473 c 0
 267 473 211 401 187 266 c 0
 182 236 179 208 180 184 c 0
 183 107 217 63 286 63 c 0
EndSplineSet
Substitution2: "'smcp' Lowercase to Small Capitals lookup 35 subtable" q.sc
Substitution2: "'aalt' Access All Alternates lookup 0 subtable" q.sc
EndChar

StartChar: r
Encoding: 114 114 85
Width: 563
GlyphClass: 2
Flags: HW
AnchorPoint: "Anchor-2" 638 536 basechar 0
AnchorPoint: "Anchor-1" 406 536 basechar 0
AnchorPoint: "Anchor-0" 246 0 basechar 0
LayerCount: 2
Fore
SplineSet
53 0 m 1
 64 60 l 1
 214 73 l 1
 283 462 l 1
 149 475 l 1
 160 536 l 1
 366 536 l 1
 360 439 l 1
 364 439 l 1
 409 507 459 546 533 546 c 0
 571 546 603 539 629 526 c 1
 590 446 l 1
 571 458 543 465 515 465 c 0
 429 465 356 377 337 268 c 2
 302 73 l 1
 445 60 l 1
 434 0 l 1
 53 0 l 1
EndSplineSet
Substitution2: "'smcp' Lowercase to Small Capitals lookup 35 subtable" r.sc
Substitution2: "'aalt' Access All Alternates lookup 0 subtable" r.sc
EndChar

StartChar: s
Encoding: 115 115 86
Width: 563
GlyphClass: 2
Flags: HW
AnchorPoint: "Anchor-2" 638 536 basechar 0
AnchorPoint: "Anchor-1" 382 536 basechar 0
AnchorPoint: "Anchor-0" 287 0 basechar 0
LayerCount: 2
Fore
SplineSet
260 -10 m 0
 194 -10 137 2 99 24 c 1
 113 105 l 1
 154 83 206 63 278 63 c 0
 365 63 400 93 409 143 c 0
 410 149 410 154 410 159 c 0
 409 188 385 203 305 243 c 0
 228 281 175 310 173 373 c 0
 173 383 174 393 176 404 c 0
 193 498 274 546 399 546 c 0
 456 546 501 536 552 512 c 1
 513 443 l 1
 465 466 427 473 385 473 c 0
 309 473 268 450 261 406 c 0
 260 401 260 397 260 393 c 0
 261 359 295 341 370 304 c 0
 447 267 498 243 500 179 c 0
 500 169 500 157 497 145 c 0
 480 44 398 -10 260 -10 c 0
EndSplineSet
Substitution2: "'smcp' Lowercase to Small Capitals lookup 35 subtable" s.sc
Substitution2: "'subs' Subscript lookup 22 subtable" uni209B
AlternateSubs2: "'aalt' Access All Alternates lookup 1 subtable" s.sc uni209B
EndChar

StartChar: t
Encoding: 116 116 87
Width: 563
GlyphClass: 2
Flags: HW
AnchorPoint: "Anchor-3" 293 276 basechar 0
AnchorPoint: "Anchor-2" 614 849 basechar 0
AnchorPoint: "Anchor-1" 371 679 basechar 0
AnchorPoint: "Anchor-0" 355 0 basechar 0
LayerCount: 2
Fore
SplineSet
378 -10 m 0
 288 -10 222 17 219 105 c 0
 218 120 221 137 224 156 c 2
 278 462 l 1
 136 462 l 1
 147 520 l 1
 293 539 l 1
 339 679 l 1
 404 679 l 1
 379 536 l 1
 575 536 l 1
 562 462 l 1
 365 462 l 1
 314 172 l 2
 312 157 310 144 310 132 c 0
 312 84 340 63 400 63 c 0
 431 63 470 70 503 78 c 1
 490 5 l 1
 457 -3 417 -10 378 -10 c 0
EndSplineSet
Substitution2: "'smcp' Lowercase to Small Capitals lookup 35 subtable" t.sc
Substitution2: "'subs' Subscript lookup 22 subtable" uni209C
AlternateSubs2: "'aalt' Access All Alternates lookup 1 subtable" t.sc uni209C
EndChar

StartChar: u
Encoding: 117 117 88
Width: 563
GlyphClass: 2
Flags: HW
AnchorPoint: "Anchor-2" 638 536 basechar 0
AnchorPoint: "Anchor-1" 377 536 basechar 0
AnchorPoint: "Anchor-0" 282 0 basechar 0
LayerCount: 2
Fore
SplineSet
241 -10 m 0
 146 -10 97 31 94 114 c 0
 93 133 96 154 100 177 c 2
 163 536 l 1
 250 536 l 1
 189 192 l 2
 186 173 184 156 185 141 c 0
 187 87 215 63 278 63 c 0
 378 63 428 135 450 259 c 2
 499 536 l 1
 586 536 l 1
 491 0 l 1
 420 0 l 1
 419 72 l 1
 414 72 l 1
 369 13 312 -10 241 -10 c 0
EndSplineSet
Substitution2: "'smcp' Lowercase to Small Capitals lookup 35 subtable" u.sc
Substitution2: "'aalt' Access All Alternates lookup 0 subtable" u.sc
EndChar

StartChar: v
Encoding: 118 118 89
Width: 563
GlyphClass: 2
Flags: HW
AnchorPoint: "Anchor-2" 638 536 basechar 0
AnchorPoint: "Anchor-1" 377 536 basechar 0
AnchorPoint: "Anchor-0" 282 0 basechar 0
LayerCount: 2
Fore
SplineSet
227 0 m 1
 135 536 l 1
 222 536 l 1
 272 220 l 2
 279 177 287 124 293 73 c 1
 296 73 l 1
 320 124 349 177 370 220 c 2
 529 536 l 1
 618 536 l 1
 333 0 l 1
 227 0 l 1
EndSplineSet
Substitution2: "'smcp' Lowercase to Small Capitals lookup 35 subtable" v.sc
Substitution2: "'aalt' Access All Alternates lookup 0 subtable" v.sc
EndChar

StartChar: w
Encoding: 119 119 90
Width: 563
GlyphClass: 2
Flags: HW
AnchorPoint: "Anchor-2" 638 536 basechar 0
AnchorPoint: "Anchor-1" 378 536 basechar 0
AnchorPoint: "Anchor-0" 283 0 basechar 0
LayerCount: 2
Fore
SplineSet
94 0 m 1
 109 536 l 1
 189 536 l 1
 179 267 l 2
 176 199 168 139 160 73 c 1
 163 73 l 1
 174 108 204 196 228 250 c 2
 311 439 l 1
 407 439 l 1
 420 250 l 2
 422 229 424 204 425 179 c 0
 426 138 426 96 425 73 c 1
 428 73 l 1
 444 136 458 196 481 267 c 2
 567 536 l 1
 645 536 l 1
 468 0 l 1
 362 0 l 1
 352 194 l 2
 350 230 347 266 346 303 c 0
 345 321 345 340 345 358 c 1
 342 358 l 1
 324 304 298 247 277 193 c 2
 197 0 l 1
 94 0 l 1
EndSplineSet
Substitution2: "'smcp' Lowercase to Small Capitals lookup 35 subtable" w.sc
Substitution2: "'aalt' Access All Alternates lookup 0 subtable" w.sc
EndChar

StartChar: x
Encoding: 120 120 91
Width: 563
GlyphClass: 2
Flags: HW
AnchorPoint: "Anchor-2" 638 536 basechar 0
AnchorPoint: "Anchor-1" 377 536 basechar 0
AnchorPoint: "Anchor-0" 282 0 basechar 0
LayerCount: 2
Fore
SplineSet
40 0 m 1
 278 274 l 1
 144 536 l 1
 243 536 l 1
 340 335 l 1
 511 536 l 1
 610 536 l 1
 379 273 l 1
 523 0 l 1
 424 0 l 1
 320 213 l 1
 139 0 l 1
 40 0 l 1
EndSplineSet
Substitution2: "'smcp' Lowercase to Small Capitals lookup 35 subtable" x.sc
Substitution2: "'aalt' Access All Alternates lookup 0 subtable" x.sc
EndChar

StartChar: y
Encoding: 121 121 92
Width: 563
GlyphClass: 2
Flags: HW
AnchorPoint: "Anchor-2" 638 536 basechar 0
AnchorPoint: "Anchor-1" 377 536 basechar 0
AnchorPoint: "Anchor-0" 239 -245 basechar 0
LayerCount: 2
Fore
SplineSet
83 -245 m 0
 58 -245 34 -241 15 -237 c 1
 27 -168 l 1
 42 -171 65 -174 85 -174 c 0
 141 -174 171 -147 209 -78 c 2
 250 -5 l 1
 135 536 l 1
 221 536 l 1
 284 222 l 2
 293 177 300 124 304 79 c 1
 307 79 l 1
 326 125 352 181 373 223 c 2
 528 536 l 1
 618 536 l 1
 297 -70 l 2
 242 -174 188 -245 83 -245 c 0
EndSplineSet
Substitution2: "'smcp' Lowercase to Small Capitals lookup 35 subtable" y.sc
Substitution2: "'aalt' Access All Alternates lookup 0 subtable" y.sc
EndChar

StartChar: z
Encoding: 122 122 93
Width: 563
GlyphClass: 2
Flags: HW
AnchorPoint: "Anchor-2" 638 536 basechar 0
AnchorPoint: "Anchor-1" 385 536 basechar 0
AnchorPoint: "Anchor-0" 290 0 basechar 0
LayerCount: 2
Fore
SplineSet
81 0 m 1
 92 61 l 1
 464 466 l 1
 179 466 l 1
 191 536 l 1
 570 536 l 1
 558 465 l 1
 196 75 l 1
 496 75 l 1
 483 0 l 1
 81 0 l 1
EndSplineSet
Substitution2: "'smcp' Lowercase to Small Capitals lookup 35 subtable" z.sc
Substitution2: "'aalt' Access All Alternates lookup 0 subtable" z.sc
EndChar

StartChar: braceleft
Encoding: 123 123 94
Width: 563
Flags: HW
LayerCount: 2
Fore
SplineSet
406 -159 m 1
 302 -158 244 -121 241 -43 c 0
 241 -30 242 -15 244 0 c 2
 270 148 l 2
 272 159 273 169 273 178 c 0
 271 224 238 244 172 244 c 1
 185 313 l 1
 261 313 304 338 317 408 c 2
 343 557 l 2
 361 662 441 714 561 715 c 1
 548 645 l 1
 480 643 438 617 426 551 c 2
 400 404 l 2
 387 334 349 294 275 281 c 1
 274 276 l 1
 330 266 356 237 358 190 c 0
 358 179 359 166 356 153 c 2
 329 5 l 2
 327 -6 327 -15 327 -24 c 0
 329 -69 359 -88 418 -89 c 1
 406 -159 l 1
EndSplineSet
Substitution2: "'smcp' Lowercase to Small Capitals lookup 35 subtable" braceleft.sc
Substitution2: "'c2sc' Capitals to Small Capitals lookup 34 subtable" braceleft.sc
Substitution2: "'aalt' Access All Alternates lookup 0 subtable" braceleft.sc
EndChar

StartChar: bar
Encoding: 124 124 95
Width: 563
Flags: HW
LayerCount: 2
Fore
SplineSet
202 -240 m 1
 380 760 l 1
 454 760 l 1
 276 -240 l 1
 202 -240 l 1
EndSplineSet
EndChar

StartChar: braceright
Encoding: 125 125 96
Width: 563
Flags: HW
LayerCount: 2
Fore
SplineSet
252 715 m 1
 357 714 415 677 418 599 c 0
 418 586 417 571 415 556 c 2
 389 408 l 2
 387 397 386 387 386 378 c 0
 388 332 420 312 485 312 c 1
 474 243 l 1
 399 243 355 218 342 148 c 2
 316 -1 l 2
 298 -106 217 -158 97 -159 c 1
 109 -89 l 1
 177 -87 221 -61 233 5 c 2
 259 152 l 2
 272 222 309 262 383 275 c 1
 385 280 l 1
 329 290 302 319 300 366 c 0
 300 377 301 390 304 403 c 2
 330 551 l 2
 332 562 332 571 332 580 c 0
 330 625 299 644 239 645 c 1
 252 715 l 1
EndSplineSet
Substitution2: "'smcp' Lowercase to Small Capitals lookup 35 subtable" braceright.sc
Substitution2: "'c2sc' Capitals to Small Capitals lookup 34 subtable" braceright.sc
Substitution2: "'aalt' Access All Alternates lookup 0 subtable" braceright.sc
EndChar

StartChar: asciitilde
Encoding: 126 126 97
Width: 563
Flags: HW
LayerCount: 2
Fore
SplineSet
122 288 m 1
 143 368 180 463 268 463 c 0
 311 463 336 440 372 397 c 0
 394 368 414 346 439 346 c 0
 474 346 495 386 516 463 c 1
 573 463 l 1
 553 389 514 288 429 288 c 0
 388 288 361 308 328 352 c 0
 304 384 286 405 259 405 c 0
 223 405 200 367 179 288 c 1
 122 288 l 1
EndSplineSet
EndChar

StartChar: exclamdown
Encoding: 161 161 99
Width: 563
Flags: HW
LayerCount: 2
Fore
SplineSet
378 540 m 0
 407 540 427 526 428 494 c 0
 428 487 428 480 426 472 c 0
 418 424 389 405 354 405 c 0
 326 405 304 417 303 450 c 0
 303 456 303 464 305 472 c 0
 313 519 344 540 378 540 c 0
377 327 m 1
 302 -185 l 1
 195 -185 l 1
 303 327 l 1
 377 327 l 1
EndSplineSet
Substitution2: "'smcp' Lowercase to Small Capitals lookup 35 subtable" exclamdown.sc
Substitution2: "'c2sc' Capitals to Small Capitals lookup 34 subtable" exclamdown.sc
Substitution2: "'aalt' Access All Alternates lookup 0 subtable" exclamdown.sc
EndChar

StartChar: cent
Encoding: 162 162 100
Width: 563
Flags: HW
LayerCount: 2
Fore
SplineSet
301 90 m 1
 205 103 149 159 145 267 c 0
 144 295 145 326 152 362 c 0
 182 532 273 623 399 640 c 1
 414 724 l 1
 477 724 l 1
 463 644 l 1
 511 642 557 631 585 616 c 1
 547 546 l 1
 517 559 477 570 437 570 c 0
 326 570 264 502 239 363 c 0
 234 333 232 306 233 283 c 0
 236 200 278 162 361 162 c 0
 412 162 462 174 502 191 c 1
 489 116 l 1
 457 100 412 90 363 88 c 1
 345 -10 l 1
 283 -10 l 1
 301 90 l 1
EndSplineSet
EndChar

StartChar: sterling
Encoding: 163 163 101
Width: 563
Flags: HW
LayerCount: 2
Fore
SplineSet
97 73 m 1
 150 89 191 131 206 214 c 2
 225 322 l 1
 142 322 l 1
 153 388 l 1
 236 388 l 1
 263 538 l 2
 284 656 365 723 479 723 c 0
 535 723 575 709 612 682 c 1
 570 615 l 1
 537 638 506 648 472 648 c 0
 402 648 364 614 349 529 c 2
 323 388 l 1
 487 388 l 1
 476 322 l 1
 312 322 l 1
 293 215 l 2
 283 157 246 102 207 79 c 1
 512 79 l 1
 498 0 l 1
 84 0 l 1
 97 73 l 1
EndSplineSet
EndChar

StartChar: currency
Encoding: 164 164 102
Width: 563
Flags: HW
LayerCount: 2
Fore
SplineSet
430 196 m 1
 393 174 352 161 310 161 c 0
 267 161 230 174 203 197 c 1
 125 132 l 1
 88 178 l 1
 164 244 l 1
 152 266 146 290 145 316 c 0
 145 329 146 343 149 357 c 0
 157 398 176 438 205 470 c 1
 150 538 l 1
 206 583 l 1
 260 518 l 1
 296 541 338 555 381 555 c 0
 423 555 458 542 487 518 c 1
 566 583 l 1
 603 538 l 1
 527 471 l 1
 538 449 545 423 546 395 c 0
 546 383 547 370 544 357 c 0
 536 315 516 276 487 243 c 1
 539 177 l 1
 485 131 l 1
 430 196 l 1
322 226 m 0
 399 226 461 279 475 358 c 0
 477 370 478 381 478 391 c 0
 476 452 433 491 370 491 c 0
 295 491 229 437 215 357 c 0
 213 346 212 336 212 326 c 0
 214 265 258 226 322 226 c 0
EndSplineSet
EndChar

StartChar: yen
Encoding: 165 165 103
Width: 563
Flags: HW
LayerCount: 2
Fore
SplineSet
238 0 m 1
 260 129 l 1
 129 129 l 1
 141 192 l 1
 272 192 l 1
 286 275 l 1
 155 275 l 1
 167 337 l 1
 274 337 l 1
 170 714 l 1
 261 714 l 1
 347 370 l 1
 557 714 l 1
 647 714 l 1
 407 337 l 1
 518 337 l 1
 506 275 l 1
 372 275 l 1
 358 192 l 1
 492 192 l 1
 480 129 l 1
 346 129 l 1
 324 0 l 1
 238 0 l 1
EndSplineSet
EndChar

StartChar: brokenbar
Encoding: 166 166 104
Width: 563
Flags: HW
LayerCount: 2
Fore
SplineSet
311 375 m 1
 379 760 l 1
 453 760 l 1
 385 375 l 1
 311 375 l 1
201 -240 m 1
 270 146 l 1
 344 146 l 1
 275 -240 l 1
 201 -240 l 1
EndSplineSet
EndChar

StartChar: section
Encoding: 167 167 105
Width: 563
Flags: HW
LayerCount: 2
Fore
SplineSet
251 -10 m 0
 187 -10 138 2 103 23 c 1
 116 96 l 1
 150 74 208 53 265 53 c 0
 345 53 391 84 398 128 c 0
 399 134 399 139 399 145 c 0
 398 180 370 203 300 236 c 0
 223 274 177 305 175 363 c 0
 175 372 176 382 178 393 c 0
 190 457 236 498 285 518 c 1
 252 540 233 568 232 606 c 0
 232 616 232 626 234 637 c 0
 248 718 324 765 438 765 c 0
 500 765 539 753 580 733 c 1
 544 672 l 1
 507 692 475 702 423 702 c 0
 354 702 320 678 313 639 c 0
 312 634 311 629 311 625 c 0
 312 592 342 568 406 539 c 0
 476 507 531 474 533 410 c 0
 533 401 533 392 531 382 c 0
 519 317 475 272 429 250 c 1
 461 225 479 198 480 162 c 0
 480 153 479 143 477 133 c 0
 461 43 376 -10 251 -10 c 0
379 280 m 1
 416 297 448 327 456 369 c 0
 457 376 458 382 458 388 c 0
 457 426 426 453 338 488 c 1
 295 477 258 444 250 404 c 0
 249 398 248 392 248 387 c 0
 249 346 288 323 354 293 c 1
 379 280 l 1
EndSplineSet
EndChar

StartChar: dieresis
Encoding: 168 168 106
Width: 563
GlyphClass: 2
Flags: HW
AnchorPoint: "Anchor-1" 396 646 basechar 0
LayerCount: 2
Fore
SplineSet
499 623 m 0
 475 623 457 636 456 665 c 0
 456 670 456 676 457 683 c 0
 465 724 492 741 521 741 c 0
 546 741 565 729 566 700 c 0
 566 695 565 689 564 683 c 0
 556 642 528 623 499 623 c 0
285 623 m 0
 261 623 243 636 242 665 c 0
 242 670 242 676 243 683 c 0
 251 724 278 741 307 741 c 0
 331 741 350 729 351 700 c 0
 351 695 350 689 349 683 c 0
 341 642 313 623 285 623 c 0
EndSplineSet
EndChar

StartChar: copyright
Encoding: 169 169 107
Width: 563
Flags: HW
LayerCount: 2
Fore
SplineSet
302 114 m 0
 172 114 99 186 95 296 c 0
 94 316 95 337 99 359 c 0
 125 506 241 606 391 606 c 0
 519 606 593 533 597 423 c 0
 598 403 596 383 592 361 c 0
 566 213 449 114 302 114 c 0
310 159 m 0
 426 159 519 234 541 358 c 0
 544 377 547 395 546 411 c 0
 543 503 480 559 380 559 c 0
 263 559 171 484 149 361 c 0
 146 342 144 325 145 308 c 0
 148 216 209 159 310 159 c 0
330 206 m 0
 254 206 217 247 215 310 c 0
 215 324 218 340 220 356 c 0
 237 448 296 513 383 513 c 0
 413 513 443 505 465 493 c 1
 435 447 l 1
 416 459 396 464 377 464 c 0
 324 464 288 427 275 356 c 0
 272 342 271 329 271 318 c 0
 272 276 294 253 337 253 c 0
 359 253 387 259 412 268 c 1
 403 221 l 1
 380 212 358 206 330 206 c 0
EndSplineSet
EndChar

StartChar: ordfeminine
Encoding: 170 170 108
Width: 563
GlyphClass: 2
Flags: HW
AnchorPoint: "Anchor-1" 402 722 basechar 0
AnchorPoint: "Anchor-0" 338 388 basechar 0
LayerCount: 2
Fore
SplineSet
309 383 m 0
 256 383 223 408 221 454 c 0
 221 462 221 471 223 480 c 0
 236 549 290 583 395 588 c 2
 447 591 l 1
 451 612 l 2
 452 618 452 624 452 629 c 0
 451 659 428 670 392 670 c 0
 360 670 327 660 296 646 c 1
 285 694 l 1
 321 711 362 722 407 722 c 0
 476 722 513 697 515 643 c 0
 515 633 515 621 512 609 c 2
 473 389 l 1
 427 389 l 1
 424 432 l 1
 392 401 356 383 309 383 c 0
336 435 m 0
 391 435 426 468 435 520 c 2
 439 544 l 1
 396 542 l 2
 323 538 295 521 288 483 c 0
 287 478 287 473 287 469 c 0
 288 445 305 435 336 435 c 0
EndSplineSet
EndChar

StartChar: guillemotleft
Encoding: 171 171 109
Width: 563
Flags: HW
LayerCount: 2
Fore
SplineSet
440 56 m 1
 315 257 l 1
 317 270 l 1
 514 472 l 1
 564 435 l 1
 409 264 l 1
 504 93 l 1
 440 56 l 1
246 57 m 1
 123 257 l 1
 125 270 l 1
 320 472 l 1
 371 433 l 1
 216 264 l 1
 310 93 l 1
 246 57 l 1
EndSplineSet
EndChar

StartChar: logicalnot
Encoding: 172 172 110
Width: 563
Flags: HW
LayerCount: 2
Fore
SplineSet
437 125 m 1
 471 318 l 1
 130 318 l 1
 141 388 l 1
 552 388 l 1
 507 125 l 1
 437 125 l 1
EndSplineSet
EndChar

StartChar: uni00AD
Encoding: 173 173 111
Width: 563
Flags: HW
LayerCount: 2
Fore
SplineSet
181 231 m 1
 195 310 l 1
 478 310 l 1
 464 231 l 1
 181 231 l 1
EndSplineSet
EndChar

StartChar: registered
Encoding: 174 174 112
Width: 563
Flags: HW
LayerCount: 2
Fore
SplineSet
302 114 m 0
 172 114 99 186 95 296 c 0
 94 316 95 337 99 359 c 0
 125 506 241 606 391 606 c 0
 519 606 593 533 597 423 c 0
 598 403 596 383 592 361 c 0
 566 213 449 114 302 114 c 0
310 159 m 0
 426 159 519 234 541 358 c 0
 544 377 547 395 546 411 c 0
 543 503 480 559 380 559 c 0
 263 559 171 484 149 361 c 0
 146 342 144 325 145 308 c 0
 148 216 209 159 310 159 c 0
229 212 m 1
 282 511 l 1
 366 511 l 2
 428 511 458 486 459 445 c 0
 459 438 460 431 458 423 c 0
 450 374 417 349 389 338 c 1
 446 212 l 1
 386 212 l 1
 340 326 l 1
 298 326 l 1
 278 212 l 1
 229 212 l 1
339 369 m 2
 374 369 400 385 406 419 c 0
 407 424 408 428 408 432 c 0
 407 455 390 466 356 466 c 2
 323 466 l 1
 305 369 l 1
 339 369 l 2
EndSplineSet
EndChar

StartChar: overscore
Encoding: 175 175 113
Width: 563
Flags: HW
LayerCount: 2
Fore
SplineSet
254 624 m 1
 266 692 l 1
 543 692 l 1
 531 624 l 1
 254 624 l 1
EndSplineSet
EndChar

StartChar: degree
Encoding: 176 176 114
Width: 563
Flags: HW
LayerCount: 2
Fore
SplineSet
359 433 m 0
 285 433 239 477 237 543 c 0
 237 554 237 566 240 578 c 0
 255 663 329 724 411 724 c 0
 480 724 529 678 531 611 c 0
 531 600 531 590 529 578 c 0
 514 493 442 433 359 433 c 0
370 490 m 0
 418 490 461 523 471 578 c 0
 473 586 472 594 472 601 c 0
 471 642 443 667 402 667 c 0
 351 667 308 633 298 578 c 0
 296 571 297 564 297 557 c 0
 298 515 329 490 370 490 c 0
EndSplineSet
EndChar

StartChar: plusminus
Encoding: 177 177 115
Width: 563
Flags: HW
LayerCount: 2
Fore
SplineSet
267 129 m 1
 303 326 l 1
 130 326 l 1
 142 396 l 1
 315 396 l 1
 350 595 l 1
 421 595 l 1
 386 396 l 1
 558 396 l 1
 546 326 l 1
 374 326 l 1
 338 129 l 1
 267 129 l 1
75 0 m 1
 88 70 l 1
 501 70 l 1
 488 0 l 1
 75 0 l 1
EndSplineSet
EndChar

StartChar: uni00B2
Encoding: 178 178 116
Width: 563
Flags: HW
LayerCount: 2
Fore
SplineSet
217 416 m 1
 228 470 l 1
 354 581 l 2
 442 658 473 685 481 732 c 0
 482 738 482 743 482 748 c 0
 481 778 459 795 421 795 c 0
 385 795 352 779 316 752 c 1
 289 798 l 1
 331 831 379 853 434 853 c 0
 507 853 550 819 552 764 c 0
 552 755 551 746 549 736 c 0
 537 668 491 630 395 547 c 2
 311 476 l 1
 516 476 l 1
 505 416 l 1
 217 416 l 1
EndSplineSet
EndChar

StartChar: uni00B3
Encoding: 179 179 117
Width: 563
Flags: HW
LayerCount: 2
Fore
SplineSet
335 408 m 0
 293 408 257 416 223 434 c 1
 235 498 l 1
 272 477 308 466 347 466 c 0
 408 466 441 494 448 538 c 0
 449 544 450 550 450 555 c 0
 449 592 417 609 360 609 c 2
 312 609 l 1
 322 664 l 1
 370 664 l 2
 430 664 463 693 471 735 c 0
 472 741 473 746 473 751 c 0
 472 781 449 795 414 795 c 0
 382 795 350 781 315 758 c 1
 289 804 l 1
 333 835 374 853 428 853 c 0
 501 853 542 820 544 768 c 0
 544 760 544 751 542 742 c 0
 533 691 498 656 458 641 c 1
 458 638 l 1
 496 628 519 603 520 563 c 0
 520 554 520 545 518 535 c 0
 505 458 439 408 335 408 c 0
EndSplineSet
EndChar

StartChar: acute
Encoding: 180 180 118
Width: 563
Flags: HW
LayerCount: 2
Fore
SplineSet
344 618 m 1
 384 661 434 721 464 766 c 1
 567 766 l 1
 566 756 l 1
 534 718 451 642 399 606 c 1
 343 606 l 1
 344 618 l 1
EndSplineSet
EndChar

StartChar: uni00B5
Encoding: 181 181 119
Width: 563
GlyphClass: 2
Flags: HW
AnchorPoint: "Anchor-2" 638 536 basechar 0
AnchorPoint: "Anchor-1" 377 536 basechar 0
AnchorPoint: "Anchor-0" 282 0 basechar 0
LayerCount: 2
Fore
SplineSet
241 -10 m 0
 207 -10 178 -5 156 6 c 1
 112 -240 l 1
 25 -240 l 1
 163 536 l 1
 250 536 l 1
 189 192 l 2
 186 173 184 156 185 141 c 0
 187 87 215 63 278 63 c 0
 378 63 428 135 450 259 c 2
 499 536 l 1
 586 536 l 1
 491 0 l 1
 420 0 l 1
 419 72 l 1
 414 72 l 1
 369 13 312 -10 241 -10 c 0
EndSplineSet
EndChar

StartChar: paragraph
Encoding: 182 182 120
Width: 563
Flags: HW
LayerCount: 2
Fore
SplineSet
332 273 m 1
 313 267 288 264 265 264 c 0
 186 264 138 304 135 403 c 0
 134 433 136 468 144 509 c 0
 177 691 257 760 371 760 c 2
 623 760 l 1
 465 -127 l 1
 407 -127 l 1
 555 704 l 1
 467 704 l 1
 319 -127 l 1
 261 -127 l 1
 332 273 l 1
EndSplineSet
EndChar

StartChar: periodcentered
Encoding: 183 183 121
Width: 563
Flags: HW
LayerCount: 2
Fore
SplineSet
330 271 m 0
 302 271 281 286 280 318 c 0
 280 324 279 331 281 339 c 0
 289 387 319 406 353 406 c 0
 381 406 403 394 404 361 c 0
 404 355 404 347 402 339 c 0
 394 292 364 271 330 271 c 0
EndSplineSet
EndChar

StartChar: cedilla
Encoding: 184 184 122
Width: 563
Flags: HW
LayerCount: 2
Fore
SplineSet
194 -240 m 0
 174 -240 155 -238 144 -235 c 1
 154 -180 l 1
 165 -183 185 -185 202 -185 c 0
 247 -185 274 -171 280 -140 c 0
 281 -136 281 -133 281 -130 c 0
 280 -103 252 -90 205 -83 c 1
 260 3 l 1
 315 3 l 1
 280 -52 l 1
 322 -61 350 -81 351 -120 c 0
 351 -126 352 -133 350 -141 c 0
 339 -203 284 -240 194 -240 c 0
EndSplineSet
EndChar

StartChar: uni00B9
Encoding: 185 185 123
Width: 563
Flags: HW
LayerCount: 2
Fore
SplineSet
238 416 m 1
 248 465 l 1
 348 471 l 1
 386 687 l 2
 392 719 398 745 405 774 c 1
 392 763 377 754 362 745 c 2
 296 708 l 1
 272 760 l 1
 417 844 l 1
 479 844 l 1
 413 470 l 1
 513 465 l 1
 503 416 l 1
 238 416 l 1
EndSplineSet
EndChar

StartChar: ordmasculine
Encoding: 186 186 124
Width: 563
GlyphClass: 2
Flags: HW
AnchorPoint: "Anchor-1" 410 722 basechar 0
AnchorPoint: "Anchor-0" 350 384 basechar 0
LayerCount: 2
Fore
SplineSet
351 383 m 0
 280 383 239 422 236 496 c 0
 235 513 238 532 241 553 c 0
 260 661 324 722 413 722 c 0
 483 722 525 683 528 609 c 0
 529 592 527 574 524 553 c 0
 504 442 440 383 351 383 c 0
362 436 m 0
 417 436 447 474 461 553 c 0
 464 573 466 590 465 605 c 0
 463 649 443 669 403 669 c 0
 349 669 318 629 305 553 c 0
 302 533 299 515 300 500 c 0
 302 457 321 436 362 436 c 0
EndSplineSet
EndChar

StartChar: guillemotright
Encoding: 187 187 125
Width: 563
Flags: HW
LayerCount: 2
Fore
SplineSet
218 473 m 1
 344 272 l 1
 341 259 l 1
 144 57 l 1
 94 94 l 1
 249 265 l 1
 155 436 l 1
 218 473 l 1
412 472 m 1
 536 272 l 1
 533 259 l 1
 338 57 l 1
 287 96 l 1
 442 265 l 1
 349 436 l 1
 412 472 l 1
EndSplineSet
EndChar

StartChar: onequarter
Encoding: 188 188 126
Width: 563
Flags: HW
LayerCount: 2
Fore
SplineSet
75 0 m 1
 552 714 l 1
 626 714 l 1
 149 0 l 1
 75 0 l 1
95 367 m 1
 104 418 l 1
 177 424 l 1
 201 562 l 2
 207 596 213 619 219 647 c 1
 205 635 191 624 174 615 c 2
 143 599 l 1
 120 655 l 1
 229 714 l 1
 291 714 l 1
 239 424 l 1
 314 418 l 1
 305 367 l 1
 95 367 l 1
429 0 m 1
 443 78 l 1
 295 78 l 1
 304 130 l 1
 488 349 l 1
 552 349 l 1
 513 134 l 1
 561 134 l 1
 552 78 l 1
 504 78 l 1
 490 0 l 1
 429 0 l 1
370 134 m 1
 452 134 l 1
 466 208 l 2
 471 234 475 247 480 272 c 1
 472 259 457 242 445 226 c 2
 370 134 l 1
EndSplineSet
EndChar

StartChar: onehalf
Encoding: 189 189 127
Width: 563
Flags: HW
LayerCount: 2
Fore
SplineSet
75 0 m 1
 552 714 l 1
 626 714 l 1
 149 0 l 1
 75 0 l 1
95 367 m 1
 104 418 l 1
 177 424 l 1
 201 562 l 2
 207 596 213 619 219 647 c 1
 205 635 191 624 174 615 c 2
 143 599 l 1
 120 655 l 1
 229 714 l 1
 291 714 l 1
 239 424 l 1
 314 418 l 1
 305 367 l 1
 95 367 l 1
312 0 m 1
 321 54 l 1
 418 138 l 2
 487 197 504 214 510 248 c 0
 511 253 511 258 511 262 c 0
 510 285 496 297 472 297 c 0
 445 297 422 283 395 263 c 1
 370 309 l 1
 404 336 441 355 484 355 c 0
 543 355 576 327 578 279 c 0
 578 271 578 262 576 252 c 0
 567 200 532 168 464 111 c 2
 405 62 l 1
 550 62 l 1
 539 0 l 1
 312 0 l 1
EndSplineSet
EndChar

StartChar: threequarters
Encoding: 190 190 128
Width: 563
Flags: HW
LayerCount: 2
Fore
SplineSet
177 361 m 0
 145 361 118 366 94 380 c 1
 105 443 l 1
 135 427 161 418 189 418 c 0
 233 418 256 439 262 471 c 0
 263 475 262 478 262 482 c 0
 261 508 239 518 200 518 c 2
 156 518 l 1
 166 573 l 1
 210 573 l 2
 252 573 275 592 280 622 c 0
 281 626 282 630 282 634 c 0
 281 656 266 666 243 666 c 0
 219 666 193 654 166 637 c 1
 140 683 l 1
 176 707 210 723 255 723 c 0
 318 723 349 694 351 650 c 0
 351 643 351 635 349 627 c 0
 341 586 317 560 289 552 c 1
 289 549 l 1
 316 540 331 522 332 494 c 0
 332 487 332 479 330 471 c 0
 318 406 269 361 177 361 c 0
75 0 m 1
 552 714 l 1
 626 714 l 1
 149 0 l 1
 75 0 l 1
428 0 m 1
 442 78 l 1
 295 78 l 1
 304 130 l 1
 487 349 l 1
 552 349 l 1
 513 134 l 1
 561 134 l 1
 552 78 l 1
 504 78 l 1
 490 0 l 1
 428 0 l 1
370 134 m 1
 451 134 l 1
 465 208 l 2
 470 234 475 247 479 272 c 1
 471 259 457 242 445 226 c 2
 370 134 l 1
EndSplineSet
EndChar

StartChar: questiondown
Encoding: 191 191 129
Width: 563
Flags: HW
LayerCount: 2
Fore
SplineSet
389 540 m 0
 418 540 439 525 440 493 c 0
 440 487 440 480 438 472 c 0
 430 424 400 405 365 405 c 0
 337 405 316 418 315 450 c 0
 315 457 315 464 317 472 c 0
 325 519 356 540 389 540 c 0
388 306 m 2
 375 232 346 190 269 136 c 0
 194 82 164 50 152 -18 c 0
 150 -26 149 -34 149 -42 c 0
 151 -88 186 -118 250 -118 c 0
 313 -118 364 -100 417 -76 c 1
 436 -148 l 1
 379 -174 318 -195 239 -195 c 0
 130 -195 67 -146 64 -64 c 0
 64 -51 65 -37 67 -22 c 0
 84 70 126 115 209 176 c 0
 289 233 306 258 316 315 c 2
 319 327 l 1
 393 327 l 1
 388 306 l 2
EndSplineSet
Substitution2: "'smcp' Lowercase to Small Capitals lookup 35 subtable" questiondown.sc
Substitution2: "'c2sc' Capitals to Small Capitals lookup 34 subtable" questiondown.sc
Substitution2: "'aalt' Access All Alternates lookup 0 subtable" questiondown.sc
EndChar

StartChar: Agrave
Encoding: 192 192 130
Width: 563
GlyphClass: 2
Flags: HW
AnchorPoint: "Anchor-2" 670 714 basechar 0
AnchorPoint: "Anchor-1" 450 944 basechar 0
AnchorPoint: "Anchor-0" 282 0 basechar 0
LayerCount: 2
Fore
SplineSet
436 784 m 1
 399 819 340 895 323 934 c 1
 325 944 l 1
 427 944 l 1
 441 899 471 833 494 796 c 1
 493 784 l 1
 436 784 l 1
20 0 m 1
 358 716 l 1
 458 716 l 1
 543 0 l 1
 454 0 l 1
 431 222 l 1
 210 222 l 1
 109 0 l 1
 20 0 l 1
347 521 m 2
 246 300 l 1
 424 300 l 1
 401 521 l 2
 398 549 393 594 392 631 c 1
 378 594 359 548 347 521 c 2
EndSplineSet
Substitution2: "'c2sc' Capitals to Small Capitals lookup 34 subtable" agrave.sc
Substitution2: "'aalt' Access All Alternates lookup 0 subtable" agrave.sc
EndChar

StartChar: Aacute
Encoding: 193 193 131
Width: 563
GlyphClass: 2
Flags: HW
AnchorPoint: "Anchor-2" 670 714 basechar 0
AnchorPoint: "Anchor-1" 450 944 basechar 0
AnchorPoint: "Anchor-0" 282 0 basechar 0
LayerCount: 2
Fore
SplineSet
377 796 m 1
 417 839 467 899 497 944 c 1
 600 944 l 1
 598 934 l 1
 566 896 484 820 432 784 c 1
 376 784 l 1
 377 796 l 1
20 0 m 1
 358 716 l 1
 458 716 l 1
 543 0 l 1
 454 0 l 1
 431 222 l 1
 210 222 l 1
 109 0 l 1
 20 0 l 1
347 521 m 2
 246 300 l 1
 424 300 l 1
 401 521 l 2
 398 549 393 594 392 631 c 1
 378 594 359 548 347 521 c 2
EndSplineSet
Substitution2: "'c2sc' Capitals to Small Capitals lookup 34 subtable" aacute.sc
Substitution2: "'aalt' Access All Alternates lookup 0 subtable" aacute.sc
EndChar

StartChar: Acircumflex
Encoding: 194 194 132
Width: 563
GlyphClass: 2
Flags: HW
AnchorPoint: "Anchor-2" 670 714 basechar 0
AnchorPoint: "Anchor-1" 450 944 basechar 0
AnchorPoint: "Anchor-0" 282 0 basechar 0
LayerCount: 2
Fore
SplineSet
268 795 m 1
 312 837 376 900 406 944 c 1
 491 944 l 1
 506 899 550 835 578 795 c 1
 577 784 l 1
 521 784 l 1
 493 807 463 844 436 880 c 1
 395 844 356 806 321 784 c 1
 267 784 l 1
 268 795 l 1
20 0 m 1
 358 716 l 1
 458 716 l 1
 543 0 l 1
 454 0 l 1
 431 222 l 1
 210 222 l 1
 109 0 l 1
 20 0 l 1
347 521 m 2
 246 300 l 1
 424 300 l 1
 401 521 l 2
 398 549 393 594 392 631 c 1
 378 594 359 548 347 521 c 2
EndSplineSet
Substitution2: "'c2sc' Capitals to Small Capitals lookup 34 subtable" acircumflex.sc
Substitution2: "'aalt' Access All Alternates lookup 0 subtable" acircumflex.sc
EndChar

StartChar: Atilde
Encoding: 195 195 133
Width: 563
GlyphClass: 2
Flags: HW
AnchorPoint: "Anchor-2" 670 714 basechar 0
AnchorPoint: "Anchor-1" 444 912 basechar 0
AnchorPoint: "Anchor-0" 282 0 basechar 0
LayerCount: 2
Fore
SplineSet
253 785 m 1
 274 858 315 911 376 911 c 0
 429 911 464 854 504 854 c 0
 532 854 546 874 562 912 c 1
 612 912 l 1
 591 834 547 786 491 786 c 0
 438 786 403 843 363 843 c 0
 334 843 319 823 304 785 c 1
 253 785 l 1
20 0 m 1
 358 716 l 1
 458 716 l 1
 543 0 l 1
 454 0 l 1
 431 222 l 1
 210 222 l 1
 109 0 l 1
 20 0 l 1
347 521 m 2
 246 300 l 1
 424 300 l 1
 401 521 l 2
 398 549 393 594 392 631 c 1
 378 594 359 548 347 521 c 2
EndSplineSet
Substitution2: "'c2sc' Capitals to Small Capitals lookup 34 subtable" atilde.sc
Substitution2: "'aalt' Access All Alternates lookup 0 subtable" atilde.sc
EndChar

StartChar: Adieresis
Encoding: 196 196 134
Width: 563
GlyphClass: 2
Flags: HW
AnchorPoint: "Anchor-2" 670 714 basechar 0
AnchorPoint: "Anchor-1" 444 915 basechar 0
AnchorPoint: "Anchor-0" 282 0 basechar 0
LayerCount: 2
Fore
SplineSet
529 797 m 0
 505 797 487 810 486 839 c 0
 486 844 486 850 487 857 c 0
 495 898 521 915 550 915 c 0
 575 915 594 903 595 874 c 0
 595 869 595 863 594 857 c 0
 586 816 558 797 529 797 c 0
315 797 m 0
 291 797 273 810 272 839 c 0
 272 844 272 850 273 857 c 0
 281 898 307 915 336 915 c 0
 360 915 379 903 380 875 c 0
 380 870 380 864 379 857 c 0
 371 816 344 797 315 797 c 0
20 0 m 1
 358 716 l 1
 458 716 l 1
 543 0 l 1
 454 0 l 1
 431 222 l 1
 210 222 l 1
 109 0 l 1
 20 0 l 1
347 521 m 2
 246 300 l 1
 424 300 l 1
 401 521 l 2
 398 549 393 594 392 631 c 1
 378 594 359 548 347 521 c 2
EndSplineSet
Substitution2: "'c2sc' Capitals to Small Capitals lookup 34 subtable" adieresis.sc
Substitution2: "'aalt' Access All Alternates lookup 0 subtable" adieresis.sc
EndChar

StartChar: Aring
Encoding: 197 197 135
Width: 563
GlyphClass: 2
Flags: HW
AnchorPoint: "Anchor-2" 670 714 basechar 0
AnchorPoint: "Anchor-1" 458 992 basechar 0
AnchorPoint: "Anchor-0" 282 0 basechar 0
LayerCount: 2
Fore
SplineSet
421 785 m 0
 366 785 332 814 330 862 c 0
 330 870 330 879 332 889 c 0
 344 953 392 992 457 992 c 0
 511 992 548 963 550 914 c 0
 550 906 550 898 548 890 c 0
 536 825 485 785 421 785 c 0
430 836 m 0
 462 836 487 856 493 889 c 0
 494 894 494 899 494 903 c 0
 493 928 476 943 448 943 c 0
 418 943 392 922 386 889 c 0
 385 884 384 879 384 875 c 0
 385 850 404 836 430 836 c 0
20 0 m 1
 358 716 l 1
 458 716 l 1
 543 0 l 1
 454 0 l 1
 431 222 l 1
 210 222 l 1
 109 0 l 1
 20 0 l 1
347 521 m 2
 246 300 l 1
 424 300 l 1
 401 521 l 2
 398 549 393 594 392 631 c 1
 378 594 359 548 347 521 c 2
EndSplineSet
Substitution2: "'c2sc' Capitals to Small Capitals lookup 34 subtable" aring.sc
Substitution2: "'aalt' Access All Alternates lookup 0 subtable" aring.sc
EndChar

StartChar: AE
Encoding: 198 198 136
Width: 563
GlyphClass: 2
Flags: HW
AnchorPoint: "Anchor-1" 440 714 basechar 0
AnchorPoint: "Anchor-0" 282 0 basechar 0
LayerCount: 2
Fore
SplineSet
20 0 m 1
 302 714 l 1
 645 714 l 1
 631 634 l 1
 460 634 l 1
 421 413 l 1
 575 413 l 1
 560 333 l 1
 406 333 l 1
 361 80 l 1
 532 80 l 1
 518 0 l 1
 264 0 l 1
 303 222 l 1
 189 222 l 1
 104 0 l 1
 20 0 l 1
348 634 m 1
 220 299 l 1
 318 299 l 1
 377 634 l 1
 348 634 l 1
EndSplineSet
Substitution2: "'c2sc' Capitals to Small Capitals lookup 34 subtable" ae.sc
Substitution2: "'aalt' Access All Alternates lookup 0 subtable" ae.sc
EndChar

StartChar: Ccedilla
Encoding: 199 199 137
Width: 563
GlyphClass: 2
Flags: HW
AnchorPoint: "Anchor-2" 670 714 basechar 0
AnchorPoint: "Anchor-1" 467 714 basechar 0
AnchorPoint: "Anchor-0" 266 -240 basechar 0
LayerCount: 2
Fore
SplineSet
238 -240 m 0
 218 -240 199 -238 188 -235 c 1
 198 -180 l 1
 209 -183 229 -185 246 -185 c 0
 291 -185 318 -171 324 -140 c 0
 325 -136 325 -133 325 -130 c 0
 324 -103 296 -90 249 -83 c 1
 298 -7 l 1
 173 9 114 96 109 228 c 0
 108 267 112 311 120 357 c 0
 159 577 289 725 479 725 c 0
 544 725 599 710 644 684 c 1
 598 612 l 1
 563 634 514 647 465 647 c 0
 331 647 242 535 210 357 c 0
 202 315 199 277 200 243 c 0
 204 134 254 70 362 70 c 0
 409 70 461 80 512 99 c 1
 497 18 l 1
 447 -1 402 -9 350 -10 c 1
 324 -52 l 1
 366 -61 394 -81 395 -120 c 0
 395 -126 396 -133 394 -141 c 0
 383 -203 328 -240 238 -240 c 0
EndSplineSet
Substitution2: "'c2sc' Capitals to Small Capitals lookup 34 subtable" ccedilla.sc
Substitution2: "'aalt' Access All Alternates lookup 0 subtable" ccedilla.sc
EndChar

StartChar: Egrave
Encoding: 200 200 138
Width: 563
GlyphClass: 2
Flags: HW
AnchorPoint: "Anchor-2" 670 714 basechar 0
AnchorPoint: "Anchor-1" 450 944 basechar 0
AnchorPoint: "Anchor-0" 282 0 basechar 0
LayerCount: 2
Fore
SplineSet
440 784 m 1
 402 819 344 895 327 934 c 1
 329 944 l 1
 431 944 l 1
 444 899 474 833 497 796 c 1
 496 784 l 1
 440 784 l 1
84 0 m 1
 211 714 l 1
 615 714 l 1
 601 635 l 1
 285 635 l 1
 246 412 l 1
 543 412 l 1
 528 332 l 1
 231 332 l 1
 186 79 l 1
 502 79 l 1
 488 0 l 1
 84 0 l 1
EndSplineSet
Substitution2: "'c2sc' Capitals to Small Capitals lookup 34 subtable" egrave.sc
Substitution2: "'aalt' Access All Alternates lookup 0 subtable" egrave.sc
EndChar

StartChar: Eacute
Encoding: 201 201 139
Width: 563
GlyphClass: 2
Flags: HW
AnchorPoint: "Anchor-2" 670 714 basechar 0
AnchorPoint: "Anchor-1" 458 944 basechar 0
AnchorPoint: "Anchor-0" 282 0 basechar 0
LayerCount: 2
Fore
SplineSet
381 796 m 1
 420 839 470 899 501 944 c 1
 603 944 l 1
 601 934 l 1
 569 896 487 820 436 784 c 1
 380 784 l 1
 381 796 l 1
84 0 m 1
 211 714 l 1
 615 714 l 1
 601 635 l 1
 285 635 l 1
 246 412 l 1
 543 412 l 1
 528 332 l 1
 231 332 l 1
 186 79 l 1
 502 79 l 1
 488 0 l 1
 84 0 l 1
EndSplineSet
Substitution2: "'c2sc' Capitals to Small Capitals lookup 34 subtable" eacute.sc
Substitution2: "'aalt' Access All Alternates lookup 0 subtable" eacute.sc
EndChar

StartChar: Ecircumflex
Encoding: 202 202 140
Width: 563
GlyphClass: 2
Flags: HW
AnchorPoint: "Anchor-2" 670 714 basechar 0
AnchorPoint: "Anchor-1" 450 944 basechar 0
AnchorPoint: "Anchor-0" 282 0 basechar 0
LayerCount: 2
Fore
SplineSet
271 795 m 1
 316 837 379 900 410 944 c 1
 495 944 l 1
 510 899 553 835 581 795 c 1
 580 784 l 1
 524 784 l 1
 496 807 467 844 440 880 c 1
 399 844 360 806 325 784 c 1
 270 784 l 1
 271 795 l 1
84 0 m 1
 211 714 l 1
 615 714 l 1
 601 635 l 1
 285 635 l 1
 246 412 l 1
 543 412 l 1
 528 332 l 1
 231 332 l 1
 186 79 l 1
 502 79 l 1
 488 0 l 1
 84 0 l 1
EndSplineSet
Substitution2: "'c2sc' Capitals to Small Capitals lookup 34 subtable" ecircumflex.sc
Substitution2: "'aalt' Access All Alternates lookup 0 subtable" ecircumflex.sc
EndChar

StartChar: Edieresis
Encoding: 203 203 141
Width: 563
GlyphClass: 2
Flags: HW
AnchorPoint: "Anchor-2" 670 714 basechar 0
AnchorPoint: "Anchor-1" 451 915 basechar 0
AnchorPoint: "Anchor-0" 282 0 basechar 0
LayerCount: 2
Fore
SplineSet
533 797 m 0
 509 797 491 810 490 839 c 0
 490 844 490 850 491 857 c 0
 499 898 525 915 554 915 c 0
 578 915 597 903 598 875 c 0
 598 870 598 864 597 857 c 0
 589 816 562 797 533 797 c 0
318 797 m 0
 294 797 277 810 276 838 c 0
 276 844 276 850 277 857 c 0
 285 898 310 915 339 915 c 0
 364 915 383 903 384 874 c 0
 384 869 384 863 383 857 c 0
 375 816 347 797 318 797 c 0
84 0 m 1
 211 714 l 1
 615 714 l 1
 601 635 l 1
 285 635 l 1
 246 412 l 1
 543 412 l 1
 528 332 l 1
 231 332 l 1
 186 79 l 1
 502 79 l 1
 488 0 l 1
 84 0 l 1
EndSplineSet
Substitution2: "'c2sc' Capitals to Small Capitals lookup 34 subtable" edieresis.sc
Substitution2: "'aalt' Access All Alternates lookup 0 subtable" edieresis.sc
EndChar

StartChar: Igrave
Encoding: 204 204 142
Width: 563
GlyphClass: 2
Flags: HW
AnchorPoint: "Anchor-2" 670 714 basechar 0
AnchorPoint: "Anchor-1" 450 944 basechar 0
AnchorPoint: "Anchor-0" 282 0 basechar 0
LayerCount: 2
Fore
SplineSet
436 784 m 1
 399 819 340 895 323 934 c 1
 325 944 l 1
 427 944 l 1
 441 899 471 833 494 796 c 1
 493 784 l 1
 436 784 l 1
97 0 m 1
 108 61 l 1
 250 73 l 1
 351 641 l 1
 213 653 l 1
 224 714 l 1
 593 714 l 1
 582 653 l 1
 438 641 l 1
 337 73 l 1
 477 61 l 1
 466 0 l 1
 97 0 l 1
EndSplineSet
Substitution2: "'c2sc' Capitals to Small Capitals lookup 34 subtable" igrave.sc
Substitution2: "'aalt' Access All Alternates lookup 0 subtable" igrave.sc
EndChar

StartChar: Iacute
Encoding: 205 205 143
Width: 563
GlyphClass: 2
Flags: HW
AnchorPoint: "Anchor-2" 670 714 basechar 0
AnchorPoint: "Anchor-1" 450 944 basechar 0
AnchorPoint: "Anchor-0" 282 0 basechar 0
LayerCount: 2
Fore
SplineSet
377 796 m 1
 417 839 467 899 497 944 c 1
 600 944 l 1
 598 934 l 1
 566 896 484 820 432 784 c 1
 376 784 l 1
 377 796 l 1
97 0 m 1
 108 61 l 1
 250 73 l 1
 351 641 l 1
 213 653 l 1
 224 714 l 1
 593 714 l 1
 582 653 l 1
 438 641 l 1
 337 73 l 1
 477 61 l 1
 466 0 l 1
 97 0 l 1
EndSplineSet
Substitution2: "'c2sc' Capitals to Small Capitals lookup 34 subtable" iacute.sc
Substitution2: "'aalt' Access All Alternates lookup 0 subtable" iacute.sc
EndChar

StartChar: Icircumflex
Encoding: 206 206 144
Width: 563
GlyphClass: 2
Flags: HW
AnchorPoint: "Anchor-2" 670 714 basechar 0
AnchorPoint: "Anchor-1" 450 944 basechar 0
AnchorPoint: "Anchor-0" 282 0 basechar 0
LayerCount: 2
Fore
SplineSet
268 795 m 1
 312 837 376 900 406 944 c 1
 491 944 l 1
 506 899 550 835 578 795 c 1
 577 784 l 1
 521 784 l 1
 493 807 463 844 436 880 c 1
 395 844 356 806 321 784 c 1
 267 784 l 1
 268 795 l 1
97 0 m 1
 108 61 l 1
 250 73 l 1
 351 641 l 1
 213 653 l 1
 224 714 l 1
 593 714 l 1
 582 653 l 1
 438 641 l 1
 337 73 l 1
 477 61 l 1
 466 0 l 1
 97 0 l 1
EndSplineSet
Substitution2: "'c2sc' Capitals to Small Capitals lookup 34 subtable" icircumflex.sc
Substitution2: "'aalt' Access All Alternates lookup 0 subtable" icircumflex.sc
EndChar

StartChar: Idieresis
Encoding: 207 207 145
Width: 563
GlyphClass: 2
Flags: HW
AnchorPoint: "Anchor-2" 670 714 basechar 0
AnchorPoint: "Anchor-1" 444 915 basechar 0
AnchorPoint: "Anchor-0" 282 0 basechar 0
LayerCount: 2
Fore
SplineSet
529 797 m 0
 505 797 487 810 486 839 c 0
 486 844 486 850 487 857 c 0
 495 898 521 915 550 915 c 0
 575 915 594 903 595 874 c 0
 595 869 595 863 594 857 c 0
 586 816 558 797 529 797 c 0
315 797 m 0
 291 797 273 810 272 839 c 0
 272 844 272 850 273 857 c 0
 281 898 307 915 336 915 c 0
 360 915 379 903 380 875 c 0
 380 870 380 864 379 857 c 0
 371 816 344 797 315 797 c 0
97 0 m 1
 108 61 l 1
 250 73 l 1
 351 641 l 1
 213 653 l 1
 224 714 l 1
 593 714 l 1
 582 653 l 1
 438 641 l 1
 337 73 l 1
 477 61 l 1
 466 0 l 1
 97 0 l 1
EndSplineSet
Substitution2: "'c2sc' Capitals to Small Capitals lookup 34 subtable" idieresis.sc
Substitution2: "'aalt' Access All Alternates lookup 0 subtable" idieresis.sc
EndChar

StartChar: Eth
Encoding: 208 208 146
Width: 563
GlyphClass: 2
Flags: HW
AnchorPoint: "Anchor-3" 359 357 basechar 0
AnchorPoint: "Anchor-2" 700 714 basechar 0
AnchorPoint: "Anchor-1" 409 714 basechar 0
AnchorPoint: "Anchor-0" 282 0 basechar 0
LayerCount: 2
Fore
SplineSet
71 0 m 1
 128 320 l 1
 57 320 l 1
 70 396 l 1
 141 396 l 1
 198 714 l 1
 377 714 l 2
 520 714 605 634 610 482 c 0
 611 447 608 408 601 365 c 0
 558 124 426 0 232 0 c 2
 71 0 l 1
239 78 m 2
 390 78 477 175 510 363 c 0
 518 404 521 439 520 470 c 0
 516 585 456 636 349 636 c 2
 271 636 l 1
 228 396 l 1
 360 396 l 1
 347 320 l 1
 215 320 l 1
 172 78 l 1
 239 78 l 2
EndSplineSet
Substitution2: "'c2sc' Capitals to Small Capitals lookup 34 subtable" eth.sc
Substitution2: "'aalt' Access All Alternates lookup 0 subtable" eth.sc
EndChar

StartChar: Ntilde
Encoding: 209 209 147
Width: 563
GlyphClass: 2
Flags: HW
AnchorPoint: "Anchor-2" 690 714 basechar 0
AnchorPoint: "Anchor-1" 444 912 basechar 0
AnchorPoint: "Anchor-0" 282 0 basechar 0
LayerCount: 2
Fore
SplineSet
258 785 m 1
 279 858 320 911 381 911 c 0
 434 911 469 854 509 854 c 0
 537 854 551 874 567 912 c 1
 617 912 l 1
 596 834 552 786 496 786 c 0
 443 786 408 843 368 843 c 0
 339 843 324 823 309 785 c 1
 258 785 l 1
61 0 m 1
 188 714 l 1
 306 714 l 1
 444 107 l 1
 448 107 l 1
 453 165 460 231 473 307 c 2
 546 714 l 1
 630 714 l 1
 503 0 l 1
 393 0 l 1
 248 625 l 1
 243 625 l 1
 236 555 231 486 218 412 c 2
 144 0 l 1
 61 0 l 1
EndSplineSet
Substitution2: "'c2sc' Capitals to Small Capitals lookup 34 subtable" ntilde.sc
Substitution2: "'aalt' Access All Alternates lookup 0 subtable" ntilde.sc
EndChar

StartChar: Ograve
Encoding: 210 210 148
Width: 563
GlyphClass: 2
Flags: HW
AnchorPoint: "Anchor-3" 346 357 basechar 0
AnchorPoint: "Anchor-2" 690 714 basechar 0
AnchorPoint: "Anchor-1" 450 944 basechar 0
AnchorPoint: "Anchor-0" 282 0 basechar 0
LayerCount: 2
Fore
SplineSet
436 784 m 1
 399 819 340 895 323 934 c 1
 325 944 l 1
 427 944 l 1
 441 899 471 833 494 796 c 1
 493 784 l 1
 436 784 l 1
279 -10 m 0
 149 -10 94 76 89 207 c 0
 87 252 91 303 101 358 c 0
 141 584 242 726 411 726 c 0
 540 726 597 641 602 508 c 0
 604 463 598 413 589 359 c 0
 551 143 454 -10 279 -10 c 0
295 68 m 0
 405 68 466 173 499 358 c 0
 509 414 513 462 512 503 c 0
 509 597 474 648 398 648 c 0
 285 648 223 541 190 358 c 0
 180 304 176 256 177 216 c 0
 180 121 218 68 295 68 c 0
EndSplineSet
Substitution2: "'c2sc' Capitals to Small Capitals lookup 34 subtable" ograve.sc
Substitution2: "'aalt' Access All Alternates lookup 0 subtable" ograve.sc
EndChar

StartChar: Oacute
Encoding: 211 211 149
Width: 563
GlyphClass: 2
Flags: HW
AnchorPoint: "Anchor-3" 346 357 basechar 0
AnchorPoint: "Anchor-2" 690 714 basechar 0
AnchorPoint: "Anchor-1" 450 944 basechar 0
AnchorPoint: "Anchor-0" 282 0 basechar 0
LayerCount: 2
Fore
SplineSet
377 796 m 1
 417 839 467 899 497 944 c 1
 600 944 l 1
 598 934 l 1
 566 896 484 820 432 784 c 1
 376 784 l 1
 377 796 l 1
279 -10 m 0
 149 -10 94 76 89 207 c 0
 87 252 91 303 101 358 c 0
 141 584 242 726 411 726 c 0
 540 726 597 641 602 508 c 0
 604 463 598 413 589 359 c 0
 551 143 454 -10 279 -10 c 0
295 68 m 0
 405 68 466 173 499 358 c 0
 509 414 513 462 512 503 c 0
 509 597 474 648 398 648 c 0
 285 648 223 541 190 358 c 0
 180 304 176 256 177 216 c 0
 180 121 218 68 295 68 c 0
EndSplineSet
Substitution2: "'c2sc' Capitals to Small Capitals lookup 34 subtable" oacute.sc
Substitution2: "'aalt' Access All Alternates lookup 0 subtable" oacute.sc
EndChar

StartChar: Ocircumflex
Encoding: 212 212 150
Width: 563
GlyphClass: 2
Flags: HW
AnchorPoint: "Anchor-3" 346 357 basechar 0
AnchorPoint: "Anchor-2" 690 714 basechar 0
AnchorPoint: "Anchor-1" 450 944 basechar 0
AnchorPoint: "Anchor-0" 282 0 basechar 0
LayerCount: 2
Fore
SplineSet
268 795 m 1
 312 837 376 900 406 944 c 1
 491 944 l 1
 506 899 550 835 578 795 c 1
 577 784 l 1
 521 784 l 1
 493 807 463 844 436 880 c 1
 395 844 356 806 321 784 c 1
 267 784 l 1
 268 795 l 1
279 -10 m 0
 149 -10 94 76 89 207 c 0
 87 252 91 303 101 358 c 0
 141 584 242 726 411 726 c 0
 540 726 597 641 602 508 c 0
 604 463 598 413 589 359 c 0
 551 143 454 -10 279 -10 c 0
295 68 m 0
 405 68 466 173 499 358 c 0
 509 414 513 462 512 503 c 0
 509 597 474 648 398 648 c 0
 285 648 223 541 190 358 c 0
 180 304 176 256 177 216 c 0
 180 121 218 68 295 68 c 0
EndSplineSet
Substitution2: "'c2sc' Capitals to Small Capitals lookup 34 subtable" ocircumflex.sc
Substitution2: "'aalt' Access All Alternates lookup 0 subtable" ocircumflex.sc
EndChar

StartChar: Otilde
Encoding: 213 213 151
Width: 563
GlyphClass: 2
Flags: HW
AnchorPoint: "Anchor-3" 346 357 basechar 0
AnchorPoint: "Anchor-2" 690 714 basechar 0
AnchorPoint: "Anchor-1" 444 912 basechar 0
AnchorPoint: "Anchor-0" 282 0 basechar 0
LayerCount: 2
Fore
SplineSet
253 785 m 1
 274 858 315 911 376 911 c 0
 429 911 464 854 504 854 c 0
 532 854 546 874 562 912 c 1
 612 912 l 1
 591 834 547 786 491 786 c 0
 438 786 403 843 363 843 c 0
 334 843 319 823 304 785 c 1
 253 785 l 1
279 -10 m 0
 149 -10 94 76 89 207 c 0
 87 252 91 303 101 358 c 0
 141 584 242 726 411 726 c 0
 540 726 597 641 602 508 c 0
 604 463 598 413 589 359 c 0
 551 143 454 -10 279 -10 c 0
295 68 m 0
 405 68 466 173 499 358 c 0
 509 414 513 462 512 503 c 0
 509 597 474 648 398 648 c 0
 285 648 223 541 190 358 c 0
 180 304 176 256 177 216 c 0
 180 121 218 68 295 68 c 0
EndSplineSet
Substitution2: "'c2sc' Capitals to Small Capitals lookup 34 subtable" otilde.sc
Substitution2: "'aalt' Access All Alternates lookup 0 subtable" otilde.sc
EndChar

StartChar: Odieresis
Encoding: 214 214 152
Width: 563
GlyphClass: 2
Flags: HW
AnchorPoint: "Anchor-3" 346 357 basechar 0
AnchorPoint: "Anchor-2" 690 714 basechar 0
AnchorPoint: "Anchor-1" 444 915 basechar 0
AnchorPoint: "Anchor-0" 282 0 basechar 0
LayerCount: 2
Fore
SplineSet
529 797 m 0
 505 797 487 810 486 839 c 0
 486 844 486 850 487 857 c 0
 495 898 521 915 550 915 c 0
 575 915 594 903 595 874 c 0
 595 869 595 863 594 857 c 0
 586 816 558 797 529 797 c 0
315 797 m 0
 291 797 273 810 272 839 c 0
 272 844 272 850 273 857 c 0
 281 898 307 915 336 915 c 0
 360 915 379 903 380 875 c 0
 380 870 380 864 379 857 c 0
 371 816 344 797 315 797 c 0
279 -10 m 0
 149 -10 94 76 89 207 c 0
 87 252 91 303 101 358 c 0
 141 584 242 726 411 726 c 0
 540 726 597 641 602 508 c 0
 604 463 598 413 589 359 c 0
 551 143 454 -10 279 -10 c 0
295 68 m 0
 405 68 466 173 499 358 c 0
 509 414 513 462 512 503 c 0
 509 597 474 648 398 648 c 0
 285 648 223 541 190 358 c 0
 180 304 176 256 177 216 c 0
 180 121 218 68 295 68 c 0
EndSplineSet
Substitution2: "'c2sc' Capitals to Small Capitals lookup 34 subtable" odieresis.sc
Substitution2: "'aalt' Access All Alternates lookup 0 subtable" odieresis.sc
EndChar

StartChar: multiply
Encoding: 215 215 153
Width: 563
Flags: HW
LayerCount: 2
Fore
SplineSet
155 150 m 1
 114 198 l 1
 295 353 l 1
 168 507 l 1
 226 556 l 1
 352 401 l 1
 536 557 l 1
 576 509 l 1
 394 353 l 1
 519 198 l 1
 463 150 l 1
 334 303 l 1
 155 150 l 1
EndSplineSet
EndChar

StartChar: Oslash
Encoding: 216 216 154
Width: 563
GlyphClass: 2
Flags: HW
AnchorPoint: "Anchor-3" 346 357 basechar 0
AnchorPoint: "Anchor-2" 690 714 basechar 0
AnchorPoint: "Anchor-1" 409 714 basechar 0
AnchorPoint: "Anchor-0" 282 0 basechar 0
LayerCount: 2
Fore
SplineSet
87 -39 m 1
 31 -5 l 1
 110 98 l 1
 97 129 90 166 89 207 c 0
 87 252 91 303 101 358 c 0
 141 584 242 726 411 726 c 0
 471 726 515 707 546 674 c 1
 604 749 l 1
 659 715 l 1
 583 615 l 1
 595 584 601 547 602 506 c 0
 604 462 598 412 589 359 c 0
 551 143 454 -10 279 -10 c 0
 220 -10 176 8 146 39 c 1
 87 -39 l 1
190 358 m 0
 181 304 177 257 178 217 c 0
 178 208 179 199 180 191 c 1
 491 600 l 1
 472 631 441 648 398 648 c 0
 285 648 223 541 190 358 c 0
295 68 m 0
 405 68 466 173 499 358 c 0
 509 414 514 462 513 502 c 0
 513 509 512 516 512 522 c 1
 203 114 l 1
 222 84 252 68 295 68 c 0
EndSplineSet
Substitution2: "'c2sc' Capitals to Small Capitals lookup 34 subtable" oslash.sc
Substitution2: "'aalt' Access All Alternates lookup 0 subtable" oslash.sc
EndChar

StartChar: Ugrave
Encoding: 217 217 155
Width: 563
GlyphClass: 2
Flags: HW
AnchorPoint: "Anchor-2" 670 714 basechar 0
AnchorPoint: "Anchor-1" 450 944 basechar 0
AnchorPoint: "Anchor-0" 282 0 basechar 0
LayerCount: 2
Fore
SplineSet
436 784 m 1
 399 819 340 895 323 934 c 1
 325 944 l 1
 427 944 l 1
 441 899 471 833 494 796 c 1
 493 784 l 1
 436 784 l 1
279 -10 m 0
 156 -10 101 48 97 152 c 0
 96 179 98 209 104 241 c 2
 188 714 l 1
 276 714 l 1
 192 245 l 2
 187 218 185 194 186 173 c 0
 188 106 220 68 294 68 c 0
 396 68 439 138 458 246 c 2
 542 714 l 1
 630 714 l 1
 546 240 l 2
 519 88 437 -10 279 -10 c 0
EndSplineSet
Substitution2: "'c2sc' Capitals to Small Capitals lookup 34 subtable" ugrave.sc
Substitution2: "'aalt' Access All Alternates lookup 0 subtable" ugrave.sc
EndChar

StartChar: Uacute
Encoding: 218 218 156
Width: 563
GlyphClass: 2
Flags: HW
AnchorPoint: "Anchor-2" 670 714 basechar 0
AnchorPoint: "Anchor-1" 450 944 basechar 0
AnchorPoint: "Anchor-0" 282 0 basechar 0
LayerCount: 2
Fore
SplineSet
377 796 m 1
 417 839 467 899 497 944 c 1
 600 944 l 1
 598 934 l 1
 566 896 484 820 432 784 c 1
 376 784 l 1
 377 796 l 1
279 -10 m 0
 156 -10 101 48 97 152 c 0
 96 179 98 209 104 241 c 2
 188 714 l 1
 276 714 l 1
 192 245 l 2
 187 218 185 194 186 173 c 0
 188 106 220 68 294 68 c 0
 396 68 439 138 458 246 c 2
 542 714 l 1
 630 714 l 1
 546 240 l 2
 519 88 437 -10 279 -10 c 0
EndSplineSet
Substitution2: "'c2sc' Capitals to Small Capitals lookup 34 subtable" uacute.sc
Substitution2: "'aalt' Access All Alternates lookup 0 subtable" uacute.sc
EndChar

StartChar: Ucircumflex
Encoding: 219 219 157
Width: 563
GlyphClass: 2
Flags: HW
AnchorPoint: "Anchor-2" 670 714 basechar 0
AnchorPoint: "Anchor-1" 450 944 basechar 0
AnchorPoint: "Anchor-0" 282 0 basechar 0
LayerCount: 2
Fore
SplineSet
268 795 m 1
 312 837 376 900 406 944 c 1
 491 944 l 1
 506 899 550 835 578 795 c 1
 577 784 l 1
 521 784 l 1
 493 807 463 844 436 880 c 1
 395 844 356 806 321 784 c 1
 267 784 l 1
 268 795 l 1
279 -10 m 0
 156 -10 101 48 97 152 c 0
 96 179 98 209 104 241 c 2
 188 714 l 1
 276 714 l 1
 192 245 l 2
 187 218 185 194 186 173 c 0
 188 106 220 68 294 68 c 0
 396 68 439 138 458 246 c 2
 542 714 l 1
 630 714 l 1
 546 240 l 2
 519 88 437 -10 279 -10 c 0
EndSplineSet
Substitution2: "'c2sc' Capitals to Small Capitals lookup 34 subtable" ucircumflex.sc
Substitution2: "'aalt' Access All Alternates lookup 0 subtable" ucircumflex.sc
EndChar

StartChar: Udieresis
Encoding: 220 220 158
Width: 563
GlyphClass: 2
Flags: HW
AnchorPoint: "Anchor-2" 670 714 basechar 0
AnchorPoint: "Anchor-1" 444 915 basechar 0
AnchorPoint: "Anchor-0" 282 0 basechar 0
LayerCount: 2
Fore
SplineSet
529 797 m 0
 505 797 487 810 486 839 c 0
 486 844 486 850 487 857 c 0
 495 898 521 915 550 915 c 0
 575 915 594 903 595 874 c 0
 595 869 595 863 594 857 c 0
 586 816 558 797 529 797 c 0
315 797 m 0
 291 797 273 810 272 839 c 0
 272 844 272 850 273 857 c 0
 281 898 307 915 336 915 c 0
 360 915 379 903 380 875 c 0
 380 870 380 864 379 857 c 0
 371 816 344 797 315 797 c 0
279 -10 m 0
 156 -10 101 48 97 152 c 0
 96 179 98 209 104 241 c 2
 188 714 l 1
 276 714 l 1
 192 245 l 2
 187 218 185 194 186 173 c 0
 188 106 220 68 294 68 c 0
 396 68 439 138 458 246 c 2
 542 714 l 1
 630 714 l 1
 546 240 l 2
 519 88 437 -10 279 -10 c 0
EndSplineSet
Substitution2: "'c2sc' Capitals to Small Capitals lookup 34 subtable" udieresis.sc
Substitution2: "'aalt' Access All Alternates lookup 0 subtable" udieresis.sc
EndChar

StartChar: Yacute
Encoding: 221 221 159
Width: 563
GlyphClass: 2
Flags: HW
AnchorPoint: "Anchor-2" 670 714 basechar 0
AnchorPoint: "Anchor-1" 450 944 basechar 0
AnchorPoint: "Anchor-0" 282 0 basechar 0
LayerCount: 2
Fore
SplineSet
377 796 m 1
 417 839 467 899 497 944 c 1
 600 944 l 1
 598 934 l 1
 566 896 484 820 432 784 c 1
 376 784 l 1
 377 796 l 1
239 0 m 1
 288 276 l 1
 157 714 l 1
 253 714 l 1
 345 352 l 1
 567 714 l 1
 661 714 l 1
 373 276 l 1
 324 0 l 1
 239 0 l 1
EndSplineSet
Substitution2: "'c2sc' Capitals to Small Capitals lookup 34 subtable" yacute.sc
Substitution2: "'aalt' Access All Alternates lookup 0 subtable" yacute.sc
EndChar

StartChar: Thorn
Encoding: 222 222 160
Width: 563
GlyphClass: 2
Flags: HW
AnchorPoint: "Anchor-1" 409 714 basechar 0
AnchorPoint: "Anchor-0" 282 0 basechar 0
LayerCount: 2
Fore
SplineSet
84 0 m 1
 211 714 l 1
 298 714 l 1
 275 588 l 1
 385 588 l 2
 518 588 582 536 585 441 c 0
 586 422 584 401 580 379 c 0
 558 255 476 150 296 150 c 2
 198 150 l 1
 171 0 l 1
 84 0 l 1
300 227 m 2
 409 227 469 268 488 374 c 0
 490 389 491 403 491 416 c 0
 489 479 448 510 365 510 c 2
 261 510 l 1
 211 227 l 1
 300 227 l 2
EndSplineSet
Substitution2: "'c2sc' Capitals to Small Capitals lookup 34 subtable" thorn.sc
Substitution2: "'aalt' Access All Alternates lookup 0 subtable" thorn.sc
EndChar

StartChar: germandbls
Encoding: 223 223 161
Width: 563
GlyphClass: 2
Flags: HW
AnchorPoint: "Anchor-1" 418 765 basechar 0
AnchorPoint: "Anchor-0" 282 0 basechar 0
LayerCount: 2
Fore
SplineSet
355 -10 m 0
 307 -10 264 1 235 21 c 1
 250 102 l 1
 278 82 319 63 367 63 c 0
 429 63 461 95 471 150 c 0
 473 159 473 168 473 175 c 0
 472 207 452 227 409 266 c 0
 366 304 338 334 336 378 c 0
 336 386 336 395 338 404 c 0
 357 512 478 522 494 611 c 0
 495 617 495 623 495 629 c 0
 494 670 458 691 400 691 c 0
 333 691 280 661 265 577 c 2
 162 0 l 1
 76 0 l 1
 180 585 l 2
 202 709 293 765 414 765 c 0
 518 765 583 724 586 650 c 0
 586 640 586 630 584 619 c 0
 563 502 439 482 426 408 c 0
 425 404 424 400 424 396 c 0
 425 374 443 359 483 320 c 0
 528 274 557 244 559 190 c 0
 559 178 559 164 557 149 c 0
 538 43 461 -10 355 -10 c 0
EndSplineSet
Substitution2: "'smcp' Lowercase to Small Capitals lookup 35 subtable" germandbls.sc
Substitution2: "'aalt' Access All Alternates lookup 0 subtable" germandbls.sc
EndChar

StartChar: agrave
Encoding: 224 224 162
Width: 563
GlyphClass: 2
Flags: HW
AnchorPoint: "Anchor-2" 638 536 basechar 0
AnchorPoint: "Anchor-1" 418 766 basechar 0
AnchorPoint: "Anchor-0" 282 0 basechar 0
LayerCount: 2
Fore
SplineSet
413 606 m 1
 375 641 318 717 301 756 c 1
 302 766 l 1
 404 766 l 1
 418 721 448 655 470 618 c 1
 469 606 l 1
 413 606 l 1
230 -10 m 0
 147 -10 92 28 89 105 c 0
 89 118 90 133 92 148 c 0
 112 263 202 318 352 322 c 2
 461 325 l 1
 466 351 l 2
 468 366 468 379 468 391 c 0
 466 452 425 473 363 473 c 0
 309 473 255 457 208 432 c 1
 189 499 l 1
 245 525 305 546 381 546 c 0
 489 546 549 505 552 417 c 0
 553 400 551 382 548 362 c 2
 484 0 l 1
 416 0 l 1
 416 75 l 1
 412 75 l 1
 361 19 304 -10 230 -10 c 0
261 63 m 0
 341 63 422 111 440 214 c 2
 449 262 l 1
 361 259 l 2
 244 255 191 218 179 151 c 0
 177 142 177 133 177 126 c 0
 179 81 212 63 261 63 c 0
EndSplineSet
Substitution2: "'smcp' Lowercase to Small Capitals lookup 35 subtable" agrave.sc
Substitution2: "'aalt' Access All Alternates lookup 0 subtable" agrave.sc
EndChar

StartChar: aacute
Encoding: 225 225 163
Width: 563
GlyphClass: 2
Flags: HW
AnchorPoint: "Anchor-2" 638 536 basechar 0
AnchorPoint: "Anchor-1" 418 766 basechar 0
AnchorPoint: "Anchor-0" 282 0 basechar 0
LayerCount: 2
Fore
SplineSet
354 618 m 1
 393 661 443 721 474 766 c 1
 576 766 l 1
 575 756 l 1
 543 718 461 642 409 606 c 1
 353 606 l 1
 354 618 l 1
230 -10 m 0
 147 -10 92 28 89 105 c 0
 89 118 90 133 92 148 c 0
 112 263 202 318 352 322 c 2
 461 325 l 1
 466 351 l 2
 468 366 468 379 468 391 c 0
 466 452 425 473 363 473 c 0
 309 473 255 457 208 432 c 1
 189 499 l 1
 245 525 305 546 381 546 c 0
 489 546 549 505 552 417 c 0
 553 400 551 382 548 362 c 2
 484 0 l 1
 416 0 l 1
 416 75 l 1
 412 75 l 1
 361 19 304 -10 230 -10 c 0
261 63 m 0
 341 63 422 111 440 214 c 2
 449 262 l 1
 361 259 l 2
 244 255 191 218 179 151 c 0
 177 142 177 133 177 126 c 0
 179 81 212 63 261 63 c 0
EndSplineSet
Substitution2: "'smcp' Lowercase to Small Capitals lookup 35 subtable" aacute.sc
Substitution2: "'aalt' Access All Alternates lookup 0 subtable" aacute.sc
EndChar

StartChar: acircumflex
Encoding: 226 226 164
Width: 563
GlyphClass: 2
Flags: HW
AnchorPoint: "Anchor-2" 638 536 basechar 0
AnchorPoint: "Anchor-1" 418 766 basechar 0
AnchorPoint: "Anchor-0" 282 0 basechar 0
LayerCount: 2
Fore
SplineSet
244 617 m 1
 289 659 352 722 383 766 c 1
 468 766 l 1
 483 721 526 657 554 617 c 1
 553 606 l 1
 498 606 l 1
 469 629 440 666 413 702 c 1
 372 666 333 628 298 606 c 1
 243 606 l 1
 244 617 l 1
230 -10 m 0
 147 -10 92 28 89 105 c 0
 89 118 90 133 92 148 c 0
 112 263 202 318 352 322 c 2
 461 325 l 1
 466 351 l 2
 468 366 468 379 468 391 c 0
 466 452 425 473 363 473 c 0
 309 473 255 457 208 432 c 1
 189 499 l 1
 245 525 305 546 381 546 c 0
 489 546 549 505 552 417 c 0
 553 400 551 382 548 362 c 2
 484 0 l 1
 416 0 l 1
 416 75 l 1
 412 75 l 1
 361 19 304 -10 230 -10 c 0
261 63 m 0
 341 63 422 111 440 214 c 2
 449 262 l 1
 361 259 l 2
 244 255 191 218 179 151 c 0
 177 142 177 133 177 126 c 0
 179 81 212 63 261 63 c 0
EndSplineSet
Substitution2: "'smcp' Lowercase to Small Capitals lookup 35 subtable" acircumflex.sc
Substitution2: "'aalt' Access All Alternates lookup 0 subtable" acircumflex.sc
EndChar

StartChar: atilde
Encoding: 227 227 165
Width: 563
GlyphClass: 2
Flags: HW
AnchorPoint: "Anchor-2" 638 536 basechar 0
AnchorPoint: "Anchor-1" 412 734 basechar 0
AnchorPoint: "Anchor-0" 282 0 basechar 0
LayerCount: 2
Fore
SplineSet
230 607 m 1
 250 680 292 733 352 733 c 0
 406 733 440 676 481 676 c 0
 508 676 523 696 538 734 c 1
 589 734 l 1
 568 656 524 608 467 608 c 0
 414 608 379 665 339 665 c 0
 311 665 296 645 281 607 c 1
 230 607 l 1
230 -10 m 0
 147 -10 92 28 89 105 c 0
 89 118 90 133 92 148 c 0
 112 263 202 318 352 322 c 2
 461 325 l 1
 466 351 l 2
 468 366 468 379 468 391 c 0
 466 452 425 473 363 473 c 0
 309 473 255 457 208 432 c 1
 189 499 l 1
 245 525 305 546 381 546 c 0
 489 546 549 505 552 417 c 0
 553 400 551 382 548 362 c 2
 484 0 l 1
 416 0 l 1
 416 75 l 1
 412 75 l 1
 361 19 304 -10 230 -10 c 0
261 63 m 0
 341 63 422 111 440 214 c 2
 449 262 l 1
 361 259 l 2
 244 255 191 218 179 151 c 0
 177 142 177 133 177 126 c 0
 179 81 212 63 261 63 c 0
EndSplineSet
Substitution2: "'smcp' Lowercase to Small Capitals lookup 35 subtable" atilde.sc
Substitution2: "'aalt' Access All Alternates lookup 0 subtable" atilde.sc
EndChar

StartChar: adieresis
Encoding: 228 228 166
Width: 563
GlyphClass: 2
Flags: HW
AnchorPoint: "Anchor-2" 638 536 basechar 0
AnchorPoint: "Anchor-1" 421 737 basechar 0
AnchorPoint: "Anchor-0" 282 0 basechar 0
LayerCount: 2
Fore
SplineSet
507 619 m 0
 483 619 464 632 463 661 c 0
 463 666 463 672 464 679 c 0
 472 720 499 737 528 737 c 0
 553 737 572 725 573 696 c 0
 573 691 572 685 571 679 c 0
 563 638 536 619 507 619 c 0
293 619 m 0
 269 619 250 632 249 661 c 0
 249 666 249 672 250 679 c 0
 258 720 285 737 314 737 c 0
 338 737 357 725 358 696 c 0
 358 691 357 685 356 679 c 0
 348 638 321 619 293 619 c 0
230 -10 m 0
 147 -10 92 28 89 105 c 0
 89 118 90 133 92 148 c 0
 112 263 202 318 352 322 c 2
 461 325 l 1
 466 351 l 2
 468 366 468 379 468 391 c 0
 466 452 425 473 363 473 c 0
 309 473 255 457 208 432 c 1
 189 499 l 1
 245 525 305 546 381 546 c 0
 489 546 549 505 552 417 c 0
 553 400 551 382 548 362 c 2
 484 0 l 1
 416 0 l 1
 416 75 l 1
 412 75 l 1
 361 19 304 -10 230 -10 c 0
261 63 m 0
 341 63 422 111 440 214 c 2
 449 262 l 1
 361 259 l 2
 244 255 191 218 179 151 c 0
 177 142 177 133 177 126 c 0
 179 81 212 63 261 63 c 0
EndSplineSet
Substitution2: "'smcp' Lowercase to Small Capitals lookup 35 subtable" adieresis.sc
Substitution2: "'aalt' Access All Alternates lookup 0 subtable" adieresis.sc
EndChar

StartChar: aring
Encoding: 229 229 167
Width: 563
GlyphClass: 2
Flags: HW
AnchorPoint: "Anchor-2" 638 536 basechar 0
AnchorPoint: "Anchor-1" 427 814 basechar 0
AnchorPoint: "Anchor-0" 282 0 basechar 0
LayerCount: 2
Fore
SplineSet
398 607 m 0
 343 607 308 635 306 684 c 0
 306 692 306 701 308 711 c 0
 320 775 370 814 435 814 c 0
 489 814 524 785 526 736 c 0
 526 728 526 721 524 712 c 0
 512 647 462 607 398 607 c 0
407 658 m 0
 439 658 464 678 470 711 c 0
 471 716 472 721 472 725 c 0
 471 750 453 765 426 765 c 0
 395 765 369 744 363 711 c 0
 362 706 363 701 363 697 c 0
 364 672 381 658 407 658 c 0
230 -10 m 0
 147 -10 92 28 89 105 c 0
 89 118 90 133 92 148 c 0
 112 263 202 318 352 322 c 2
 461 325 l 1
 466 351 l 2
 468 366 468 379 468 391 c 0
 466 452 425 473 363 473 c 0
 309 473 255 457 208 432 c 1
 189 499 l 1
 245 525 305 546 381 546 c 0
 489 546 549 505 552 417 c 0
 553 400 551 382 548 362 c 2
 484 0 l 1
 416 0 l 1
 416 75 l 1
 412 75 l 1
 361 19 304 -10 230 -10 c 0
261 63 m 0
 341 63 422 111 440 214 c 2
 449 262 l 1
 361 259 l 2
 244 255 191 218 179 151 c 0
 177 142 177 133 177 126 c 0
 179 81 212 63 261 63 c 0
EndSplineSet
Substitution2: "'smcp' Lowercase to Small Capitals lookup 35 subtable" aring.sc
Substitution2: "'aalt' Access All Alternates lookup 0 subtable" aring.sc
EndChar

StartChar: ae
Encoding: 230 230 168
Width: 563
GlyphClass: 2
Flags: HW
AnchorPoint: "Anchor-1" 377 536 basechar 0
AnchorPoint: "Anchor-0" 282 0 basechar 0
LayerCount: 2
Fore
SplineSet
138 -10 m 0
 81 -10 42 24 40 94 c 0
 39 110 42 129 45 149 c 0
 64 256 130 316 226 320 c 2
 295 322 l 1
 302 356 l 2
 306 378 308 397 307 412 c 0
 305 456 285 473 249 473 c 0
 219 473 183 458 154 436 c 1
 135 499 l 1
 172 525 226 546 269 546 c 0
 327 546 364 522 375 466 c 1
 405 516 448 546 503 546 c 0
 569 546 605 498 608 410 c 0
 609 380 606 345 599 306 c 2
 589 251 l 1
 361 251 l 1
 355 217 353 189 354 165 c 0
 357 90 390 63 439 63 c 0
 477 63 509 75 550 105 c 1
 537 26 l 1
 496 0 463 -10 420 -10 c 0
 359 -10 309 17 296 100 c 1
 252 20 204 -10 138 -10 c 0
524 322 m 1
 530 355 533 382 532 404 c 0
 530 450 514 473 482 473 c 0
 437 473 397 420 376 322 c 1
 524 322 l 1
165 63 m 0
 210 63 255 101 275 214 c 2
 283 259 l 1
 242 256 l 2
 174 252 136 218 123 149 c 0
 120 137 120 126 120 116 c 0
 121 79 140 63 165 63 c 0
EndSplineSet
Substitution2: "'smcp' Lowercase to Small Capitals lookup 35 subtable" ae.sc
Substitution2: "'aalt' Access All Alternates lookup 0 subtable" ae.sc
EndChar

StartChar: ccedilla
Encoding: 231 231 169
Width: 563
GlyphClass: 2
Flags: HW
AnchorPoint: "Anchor-2" 638 536 basechar 0
AnchorPoint: "Anchor-1" 420 536 basechar 0
AnchorPoint: "Anchor-0" 260 -240 basechar 0
LayerCount: 2
Fore
SplineSet
227 -240 m 0
 207 -240 188 -238 177 -235 c 1
 187 -180 l 1
 198 -183 218 -185 235 -185 c 0
 280 -185 307 -171 313 -140 c 0
 314 -136 314 -133 314 -130 c 0
 313 -103 285 -90 238 -83 c 1
 285 -8 l 1
 184 2 123 57 119 170 c 0
 118 198 121 229 127 264 c 0
 164 470 282 546 427 546 c 0
 486 546 532 534 572 512 c 1
 533 440 l 1
 497 462 463 470 419 470 c 0
 304 470 241 404 217 266 c 0
 212 237 208 210 209 188 c 0
 212 102 259 66 344 66 c 0
 397 66 450 80 492 98 c 1
 477 20 l 1
 439 3 388 -8 339 -10 c 1
 314 -52 l 1
 355 -61 383 -81 384 -120 c 0
 384 -126 385 -133 383 -141 c 0
 372 -203 317 -240 227 -240 c 0
EndSplineSet
Substitution2: "'smcp' Lowercase to Small Capitals lookup 35 subtable" ccedilla.sc
Substitution2: "'aalt' Access All Alternates lookup 0 subtable" ccedilla.sc
EndChar

StartChar: egrave
Encoding: 232 232 170
Width: 563
GlyphClass: 2
Flags: HW
AnchorPoint: "Anchor-2" 638 536 basechar 0
AnchorPoint: "Anchor-1" 418 766 basechar 0
AnchorPoint: "Anchor-0" 282 0 basechar 0
LayerCount: 2
Fore
SplineSet
408 606 m 1
 371 641 313 717 296 756 c 1
 297 766 l 1
 399 766 l 1
 413 721 443 655 466 618 c 1
 465 606 l 1
 408 606 l 1
316 -10 m 0
 180 -10 100 58 96 184 c 0
 95 209 97 236 102 265 c 0
 133 441 245 546 389 546 c 0
 501 546 563 480 567 372 c 0
 568 349 567 323 562 296 c 2
 553 250 l 1
 187 250 l 1
 184 229 182 210 183 193 c 0
 186 101 243 64 334 64 c 0
 391 64 445 80 505 107 c 1
 491 28 l 1
 430 1 372 -10 316 -10 c 0
479 322 m 1
 481 338 482 352 482 366 c 0
 480 433 444 473 376 473 c 0
 293 473 230 416 202 322 c 1
 479 322 l 1
EndSplineSet
Substitution2: "'smcp' Lowercase to Small Capitals lookup 35 subtable" egrave.sc
Substitution2: "'aalt' Access All Alternates lookup 0 subtable" egrave.sc
EndChar

StartChar: eacute
Encoding: 233 233 171
Width: 563
GlyphClass: 2
Flags: HW
AnchorPoint: "Anchor-2" 638 536 basechar 0
AnchorPoint: "Anchor-1" 418 766 basechar 0
AnchorPoint: "Anchor-0" 282 0 basechar 0
LayerCount: 2
Fore
SplineSet
349 618 m 1
 389 661 439 721 469 766 c 1
 572 766 l 1
 571 756 l 1
 539 718 456 642 404 606 c 1
 348 606 l 1
 349 618 l 1
316 -10 m 0
 180 -10 100 58 96 184 c 0
 95 209 97 236 102 265 c 0
 133 441 245 546 389 546 c 0
 501 546 563 480 567 372 c 0
 568 349 567 323 562 296 c 2
 553 250 l 1
 187 250 l 1
 184 229 182 210 183 193 c 0
 186 101 243 64 334 64 c 0
 391 64 445 80 505 107 c 1
 491 28 l 1
 430 1 372 -10 316 -10 c 0
479 322 m 1
 481 338 482 352 482 366 c 0
 480 433 444 473 376 473 c 0
 293 473 230 416 202 322 c 1
 479 322 l 1
EndSplineSet
Substitution2: "'smcp' Lowercase to Small Capitals lookup 35 subtable" eacute.sc
Substitution2: "'aalt' Access All Alternates lookup 0 subtable" eacute.sc
EndChar

StartChar: ecircumflex
Encoding: 234 234 172
Width: 563
GlyphClass: 2
Flags: HW
AnchorPoint: "Anchor-2" 638 536 basechar 0
AnchorPoint: "Anchor-1" 418 766 basechar 0
AnchorPoint: "Anchor-0" 282 0 basechar 0
LayerCount: 2
Fore
SplineSet
240 617 m 1
 284 659 348 722 378 766 c 1
 463 766 l 1
 478 721 522 657 550 617 c 1
 549 606 l 1
 493 606 l 1
 465 629 435 666 408 702 c 1
 367 666 328 628 293 606 c 1
 239 606 l 1
 240 617 l 1
316 -10 m 0
 180 -10 100 58 96 184 c 0
 95 209 97 236 102 265 c 0
 133 441 245 546 389 546 c 0
 501 546 563 480 567 372 c 0
 568 349 567 323 562 296 c 2
 553 250 l 1
 187 250 l 1
 184 229 182 210 183 193 c 0
 186 101 243 64 334 64 c 0
 391 64 445 80 505 107 c 1
 491 28 l 1
 430 1 372 -10 316 -10 c 0
479 322 m 1
 481 338 482 352 482 366 c 0
 480 433 444 473 376 473 c 0
 293 473 230 416 202 322 c 1
 479 322 l 1
EndSplineSet
Substitution2: "'smcp' Lowercase to Small Capitals lookup 35 subtable" ecircumflex.sc
Substitution2: "'aalt' Access All Alternates lookup 0 subtable" ecircumflex.sc
EndChar

StartChar: edieresis
Encoding: 235 235 173
Width: 563
GlyphClass: 2
Flags: HW
AnchorPoint: "Anchor-2" 638 536 basechar 0
AnchorPoint: "Anchor-1" 413 737 basechar 0
AnchorPoint: "Anchor-0" 282 0 basechar 0
LayerCount: 2
Fore
SplineSet
502 619 m 0
 478 619 459 632 458 661 c 0
 458 666 458 672 459 679 c 0
 467 720 494 737 523 737 c 0
 548 737 567 725 568 696 c 0
 568 691 567 685 566 679 c 0
 558 638 531 619 502 619 c 0
288 619 m 0
 264 619 245 632 244 661 c 0
 244 666 244 672 245 679 c 0
 253 720 280 737 309 737 c 0
 333 737 352 725 353 697 c 0
 353 692 352 686 351 679 c 0
 343 638 317 619 288 619 c 0
316 -10 m 0
 180 -10 100 58 96 184 c 0
 95 209 97 236 102 265 c 0
 133 441 245 546 389 546 c 0
 501 546 563 480 567 372 c 0
 568 349 567 323 562 296 c 2
 553 250 l 1
 187 250 l 1
 184 229 182 210 183 193 c 0
 186 101 243 64 334 64 c 0
 391 64 445 80 505 107 c 1
 491 28 l 1
 430 1 372 -10 316 -10 c 0
479 322 m 1
 481 338 482 352 482 366 c 0
 480 433 444 473 376 473 c 0
 293 473 230 416 202 322 c 1
 479 322 l 1
EndSplineSet
Substitution2: "'smcp' Lowercase to Small Capitals lookup 35 subtable" edieresis.sc
Substitution2: "'aalt' Access All Alternates lookup 0 subtable" edieresis.sc
EndChar

StartChar: igrave
Encoding: 236 236 174
Width: 563
GlyphClass: 2
Flags: HW
AnchorPoint: "Anchor-3" 347 284 basechar 0
AnchorPoint: "Anchor-1" 418 766 basechar 0
AnchorPoint: "Anchor-0" 282 0 basechar 0
LayerCount: 2
Fore
SplineSet
404 606 m 1
 367 641 309 717 292 756 c 1
 293 766 l 1
 395 766 l 1
 409 721 439 655 462 618 c 1
 461 606 l 1
 404 606 l 1
78 0 m 1
 89 60 l 1
 264 73 l 1
 333 462 l 1
 174 475 l 1
 185 536 l 1
 433 536 l 1
 351 73 l 1
 509 60 l 1
 498 0 l 1
 78 0 l 1
EndSplineSet
Substitution2: "'smcp' Lowercase to Small Capitals lookup 35 subtable" igrave.sc
Substitution2: "'aalt' Access All Alternates lookup 0 subtable" igrave.sc
EndChar

StartChar: iacute
Encoding: 237 237 175
Width: 563
GlyphClass: 2
Flags: HW
AnchorPoint: "Anchor-3" 347 284 basechar 0
AnchorPoint: "Anchor-1" 418 766 basechar 0
AnchorPoint: "Anchor-0" 282 0 basechar 0
LayerCount: 2
Fore
SplineSet
345 618 m 1
 385 661 435 721 465 766 c 1
 568 766 l 1
 567 756 l 1
 535 718 452 642 400 606 c 1
 344 606 l 1
 345 618 l 1
78 0 m 1
 89 60 l 1
 264 73 l 1
 333 462 l 1
 174 475 l 1
 185 536 l 1
 433 536 l 1
 351 73 l 1
 509 60 l 1
 498 0 l 1
 78 0 l 1
EndSplineSet
Substitution2: "'smcp' Lowercase to Small Capitals lookup 35 subtable" iacute.sc
Substitution2: "'aalt' Access All Alternates lookup 0 subtable" iacute.sc
EndChar

StartChar: icircumflex
Encoding: 238 238 176
Width: 563
GlyphClass: 2
Flags: HW
AnchorPoint: "Anchor-3" 347 284 basechar 0
AnchorPoint: "Anchor-1" 418 766 basechar 0
AnchorPoint: "Anchor-0" 282 0 basechar 0
LayerCount: 2
Fore
SplineSet
236 617 m 1
 280 659 344 722 374 766 c 1
 459 766 l 1
 474 721 518 657 546 617 c 1
 545 606 l 1
 489 606 l 1
 461 629 431 666 404 702 c 1
 363 666 324 628 289 606 c 1
 235 606 l 1
 236 617 l 1
78 0 m 1
 89 60 l 1
 264 73 l 1
 333 462 l 1
 174 475 l 1
 185 536 l 1
 433 536 l 1
 351 73 l 1
 509 60 l 1
 498 0 l 1
 78 0 l 1
EndSplineSet
Substitution2: "'smcp' Lowercase to Small Capitals lookup 35 subtable" icircumflex.sc
Substitution2: "'aalt' Access All Alternates lookup 0 subtable" icircumflex.sc
EndChar

StartChar: idieresis
Encoding: 239 239 177
Width: 563
GlyphClass: 2
Flags: HW
AnchorPoint: "Anchor-3" 347 284 basechar 0
AnchorPoint: "Anchor-1" 413 737 basechar 0
AnchorPoint: "Anchor-0" 282 0 basechar 0
LayerCount: 2
Fore
SplineSet
498 619 m 0
 474 619 455 632 454 661 c 0
 454 666 454 672 455 679 c 0
 463 720 490 737 519 737 c 0
 544 737 563 725 564 696 c 0
 564 691 563 685 562 679 c 0
 554 638 527 619 498 619 c 0
284 619 m 0
 260 619 241 632 240 661 c 0
 240 666 240 672 241 679 c 0
 249 720 276 737 305 737 c 0
 329 737 348 725 349 697 c 0
 349 692 348 686 347 679 c 0
 339 638 313 619 284 619 c 0
78 0 m 1
 89 60 l 1
 264 73 l 1
 333 462 l 1
 174 475 l 1
 185 536 l 1
 433 536 l 1
 351 73 l 1
 509 60 l 1
 498 0 l 1
 78 0 l 1
EndSplineSet
Substitution2: "'smcp' Lowercase to Small Capitals lookup 35 subtable" idieresis.sc
Substitution2: "'aalt' Access All Alternates lookup 0 subtable" idieresis.sc
EndChar

StartChar: eth
Encoding: 240 240 178
Width: 563
GlyphClass: 2
Flags: HW
AnchorPoint: "Anchor-3" 330 268 basechar 0
AnchorPoint: "Anchor-2" 678 760 basechar 0
AnchorPoint: "Anchor-1" 418 765 basechar 0
AnchorPoint: "Anchor-0" 282 0 basechar 0
LayerCount: 2
Fore
SplineSet
281 -10 m 0
 163 -10 90 59 86 169 c 0
 85 189 88 210 92 233 c 0
 119 383 220 473 356 473 c 0
 421 473 468 456 491 418 c 1
 495 420 l 1
 486 493 455 557 408 610 c 1
 278 541 l 1
 251 596 l 1
 362 655 l 1
 340 674 317 691 291 707 c 1
 338 765 l 1
 376 745 409 721 437 694 c 1
 564 762 l 1
 590 708 l 1
 479 648 l 1
 536 576 568 488 571 389 c 0
 572 351 571 312 563 272 c 0
 530 85 425 -10 281 -10 c 0
296 62 m 0
 394 62 448 127 470 249 c 0
 472 264 474 278 474 292 c 0
 472 355 435 402 356 402 c 0
 253 402 198 342 178 230 c 0
 175 211 173 193 174 176 c 0
 176 108 213 62 296 62 c 0
EndSplineSet
Substitution2: "'smcp' Lowercase to Small Capitals lookup 35 subtable" eth.sc
Substitution2: "'aalt' Access All Alternates lookup 0 subtable" eth.sc
EndChar

StartChar: ntilde
Encoding: 241 241 179
Width: 563
GlyphClass: 2
Flags: HW
AnchorPoint: "Anchor-2" 638 536 basechar 0
AnchorPoint: "Anchor-1" 412 734 basechar 0
AnchorPoint: "Anchor-0" 282 0 basechar 0
LayerCount: 2
Fore
SplineSet
233 607 m 1
 253 680 295 733 355 733 c 0
 409 733 443 676 484 676 c 0
 511 676 526 696 541 734 c 1
 592 734 l 1
 571 656 527 608 470 608 c 0
 417 608 382 665 342 665 c 0
 314 665 299 645 284 607 c 1
 233 607 l 1
73 0 m 1
 168 536 l 1
 238 536 l 1
 237 460 l 1
 242 460 l 1
 283 519 347 546 420 546 c 0
 507 546 561 506 564 418 c 0
 565 399 563 378 559 355 c 2
 496 0 l 1
 409 0 l 1
 470 343 l 2
 473 362 475 378 474 393 c 0
 472 447 444 473 385 473 c 0
 286 473 232 401 209 276 c 2
 160 0 l 1
 73 0 l 1
EndSplineSet
Substitution2: "'smcp' Lowercase to Small Capitals lookup 35 subtable" ntilde.sc
Substitution2: "'aalt' Access All Alternates lookup 0 subtable" ntilde.sc
EndChar

StartChar: ograve
Encoding: 242 242 180
Width: 563
GlyphClass: 2
Flags: HW
AnchorPoint: "Anchor-3" 330 268 basechar 0
AnchorPoint: "Anchor-2" 638 536 basechar 0
AnchorPoint: "Anchor-1" 418 766 basechar 0
AnchorPoint: "Anchor-0" 282 0 basechar 0
LayerCount: 2
Fore
SplineSet
404 606 m 1
 367 641 309 717 292 756 c 1
 293 766 l 1
 395 766 l 1
 409 721 439 655 462 618 c 1
 461 606 l 1
 404 606 l 1
281 -10 m 0
 168 -10 95 54 91 180 c 0
 90 207 92 237 98 270 c 0
 131 452 240 546 377 546 c 0
 489 546 565 482 569 356 c 0
 570 329 568 299 562 267 c 0
 529 85 417 -10 281 -10 c 0
293 62 m 0
 388 62 450 138 473 269 c 0
 478 299 481 325 480 349 c 0
 477 429 438 474 365 474 c 0
 270 474 208 400 185 269 c 0
 180 239 177 212 178 188 c 0
 181 107 219 62 293 62 c 0
EndSplineSet
Substitution2: "'smcp' Lowercase to Small Capitals lookup 35 subtable" ograve.sc
Substitution2: "'aalt' Access All Alternates lookup 0 subtable" ograve.sc
EndChar

StartChar: oacute
Encoding: 243 243 181
Width: 563
GlyphClass: 2
Flags: HW
AnchorPoint: "Anchor-3" 330 268 basechar 0
AnchorPoint: "Anchor-2" 638 536 basechar 0
AnchorPoint: "Anchor-1" 418 766 basechar 0
AnchorPoint: "Anchor-0" 282 0 basechar 0
LayerCount: 2
Fore
SplineSet
345 618 m 1
 385 661 435 721 465 766 c 1
 568 766 l 1
 567 756 l 1
 535 718 452 642 400 606 c 1
 344 606 l 1
 345 618 l 1
281 -10 m 0
 168 -10 95 54 91 180 c 0
 90 207 92 237 98 270 c 0
 131 452 240 546 377 546 c 0
 489 546 565 482 569 356 c 0
 570 329 568 299 562 267 c 0
 529 85 417 -10 281 -10 c 0
293 62 m 0
 388 62 450 138 473 269 c 0
 478 299 481 325 480 349 c 0
 477 429 438 474 365 474 c 0
 270 474 208 400 185 269 c 0
 180 239 177 212 178 188 c 0
 181 107 219 62 293 62 c 0
EndSplineSet
Substitution2: "'smcp' Lowercase to Small Capitals lookup 35 subtable" oacute.sc
Substitution2: "'aalt' Access All Alternates lookup 0 subtable" oacute.sc
EndChar

StartChar: ocircumflex
Encoding: 244 244 182
Width: 563
GlyphClass: 2
Flags: HW
AnchorPoint: "Anchor-3" 330 268 basechar 0
AnchorPoint: "Anchor-2" 638 536 basechar 0
AnchorPoint: "Anchor-1" 418 766 basechar 0
AnchorPoint: "Anchor-0" 282 0 basechar 0
LayerCount: 2
Fore
SplineSet
236 617 m 1
 280 659 344 722 374 766 c 1
 459 766 l 1
 474 721 518 657 546 617 c 1
 545 606 l 1
 489 606 l 1
 461 629 431 666 404 702 c 1
 363 666 324 628 289 606 c 1
 235 606 l 1
 236 617 l 1
281 -10 m 0
 168 -10 95 54 91 180 c 0
 90 207 92 237 98 270 c 0
 131 452 240 546 377 546 c 0
 489 546 565 482 569 356 c 0
 570 329 568 299 562 267 c 0
 529 85 417 -10 281 -10 c 0
293 62 m 0
 388 62 450 138 473 269 c 0
 478 299 481 325 480 349 c 0
 477 429 438 474 365 474 c 0
 270 474 208 400 185 269 c 0
 180 239 177 212 178 188 c 0
 181 107 219 62 293 62 c 0
EndSplineSet
Substitution2: "'smcp' Lowercase to Small Capitals lookup 35 subtable" ocircumflex.sc
Substitution2: "'aalt' Access All Alternates lookup 0 subtable" ocircumflex.sc
EndChar

StartChar: otilde
Encoding: 245 245 183
Width: 563
GlyphClass: 2
Flags: HW
AnchorPoint: "Anchor-3" 330 268 basechar 0
AnchorPoint: "Anchor-2" 638 536 basechar 0
AnchorPoint: "Anchor-1" 412 734 basechar 0
AnchorPoint: "Anchor-0" 282 0 basechar 0
LayerCount: 2
Fore
SplineSet
221 607 m 1
 242 680 283 733 344 733 c 0
 397 733 432 676 472 676 c 0
 500 676 514 696 530 734 c 1
 580 734 l 1
 559 656 515 608 459 608 c 0
 406 608 371 665 331 665 c 0
 302 665 287 645 272 607 c 1
 221 607 l 1
281 -10 m 0
 168 -10 95 54 91 180 c 0
 90 207 92 237 98 270 c 0
 131 452 240 546 377 546 c 0
 489 546 565 482 569 356 c 0
 570 329 568 299 562 267 c 0
 529 85 417 -10 281 -10 c 0
293 62 m 0
 388 62 450 138 473 269 c 0
 478 299 481 325 480 349 c 0
 477 429 438 474 365 474 c 0
 270 474 208 400 185 269 c 0
 180 239 177 212 178 188 c 0
 181 107 219 62 293 62 c 0
EndSplineSet
Substitution2: "'smcp' Lowercase to Small Capitals lookup 35 subtable" otilde.sc
Substitution2: "'aalt' Access All Alternates lookup 0 subtable" otilde.sc
EndChar

StartChar: odieresis
Encoding: 246 246 184
Width: 563
GlyphClass: 2
Flags: HW
AnchorPoint: "Anchor-3" 330 268 basechar 0
AnchorPoint: "Anchor-2" 638 536 basechar 0
AnchorPoint: "Anchor-1" 413 737 basechar 0
AnchorPoint: "Anchor-0" 282 0 basechar 0
LayerCount: 2
Fore
SplineSet
498 619 m 0
 474 619 455 632 454 661 c 0
 454 666 454 672 455 679 c 0
 463 720 490 737 519 737 c 0
 544 737 563 725 564 696 c 0
 564 691 563 685 562 679 c 0
 554 638 527 619 498 619 c 0
284 619 m 0
 260 619 241 632 240 661 c 0
 240 666 240 672 241 679 c 0
 249 720 276 737 305 737 c 0
 329 737 348 725 349 697 c 0
 349 692 348 686 347 679 c 0
 339 638 313 619 284 619 c 0
281 -10 m 0
 168 -10 95 54 91 180 c 0
 90 207 92 237 98 270 c 0
 131 452 240 546 377 546 c 0
 489 546 565 482 569 356 c 0
 570 329 568 299 562 267 c 0
 529 85 417 -10 281 -10 c 0
293 62 m 0
 388 62 450 138 473 269 c 0
 478 299 481 325 480 349 c 0
 477 429 438 474 365 474 c 0
 270 474 208 400 185 269 c 0
 180 239 177 212 178 188 c 0
 181 107 219 62 293 62 c 0
EndSplineSet
Substitution2: "'smcp' Lowercase to Small Capitals lookup 35 subtable" odieresis.sc
Substitution2: "'aalt' Access All Alternates lookup 0 subtable" odieresis.sc
EndChar

StartChar: divide
Encoding: 247 247 185
Width: 563
Flags: HW
LayerCount: 2
Fore
SplineSet
365 465 m 0
 339 465 321 478 320 506 c 0
 320 512 320 519 322 526 c 0
 329 569 355 587 387 587 c 0
 413 587 429 574 430 546 c 0
 430 540 431 534 429 526 c 0
 422 483 394 465 365 465 c 0
132 318 m 1
 143 388 l 1
 556 388 l 1
 545 318 l 1
 132 318 l 1
303 118 m 0
 277 118 259 131 258 159 c 0
 258 165 258 172 260 179 c 0
 267 223 293 240 325 240 c 0
 351 240 367 229 368 200 c 0
 368 194 369 187 367 179 c 0
 360 136 332 118 303 118 c 0
EndSplineSet
EndChar

StartChar: oslash
Encoding: 248 248 186
Width: 563
GlyphClass: 2
Flags: HW
AnchorPoint: "Anchor-3" 330 268 basechar 0
AnchorPoint: "Anchor-2" 638 536 basechar 0
AnchorPoint: "Anchor-1" 377 536 basechar 0
AnchorPoint: "Anchor-0" 282 0 basechar 0
LayerCount: 2
Fore
SplineSet
117 -39 m 1
 67 -3 l 1
 123 63 l 1
 104 93 93 132 91 179 c 0
 90 206 92 237 98 270 c 0
 131 452 240 546 377 546 c 0
 427 546 468 534 501 509 c 1
 553 570 l 1
 604 534 l 1
 542 461 l 1
 558 433 568 398 569 356 c 0
 570 329 568 299 562 267 c 0
 529 85 417 -10 281 -10 c 0
 236 -10 198 0 167 20 c 1
 117 -39 l 1
185 269 m 0
 180 240 177 213 178 190 c 0
 179 170 181 153 186 137 c 1
 446 444 l 1
 426 464 400 474 365 474 c 0
 270 474 208 400 185 269 c 0
293 62 m 0
 388 62 450 138 473 269 c 0
 478 298 480 324 479 347 c 0
 479 360 477 372 475 383 c 1
 222 84 l 1
 239 70 263 62 293 62 c 0
EndSplineSet
Substitution2: "'smcp' Lowercase to Small Capitals lookup 35 subtable" oslash.sc
Substitution2: "'aalt' Access All Alternates lookup 0 subtable" oslash.sc
EndChar

StartChar: ugrave
Encoding: 249 249 187
Width: 563
GlyphClass: 2
Flags: HW
AnchorPoint: "Anchor-2" 638 536 basechar 0
AnchorPoint: "Anchor-1" 418 766 basechar 0
AnchorPoint: "Anchor-0" 282 0 basechar 0
LayerCount: 2
Fore
SplineSet
404 606 m 1
 367 641 309 717 292 756 c 1
 293 766 l 1
 395 766 l 1
 409 721 439 655 462 618 c 1
 461 606 l 1
 404 606 l 1
241 -10 m 0
 146 -10 97 31 94 114 c 0
 93 133 96 154 100 177 c 2
 163 536 l 1
 250 536 l 1
 189 192 l 2
 186 173 184 156 185 141 c 0
 187 87 215 63 278 63 c 0
 378 63 428 135 450 259 c 2
 499 536 l 1
 586 536 l 1
 491 0 l 1
 420 0 l 1
 419 72 l 1
 414 72 l 1
 369 13 312 -10 241 -10 c 0
EndSplineSet
Substitution2: "'smcp' Lowercase to Small Capitals lookup 35 subtable" ugrave.sc
Substitution2: "'aalt' Access All Alternates lookup 0 subtable" ugrave.sc
EndChar

StartChar: uacute
Encoding: 250 250 188
Width: 563
GlyphClass: 2
Flags: HW
AnchorPoint: "Anchor-2" 638 536 basechar 0
AnchorPoint: "Anchor-1" 418 766 basechar 0
AnchorPoint: "Anchor-0" 282 0 basechar 0
LayerCount: 2
Fore
SplineSet
345 618 m 1
 385 661 435 721 465 766 c 1
 568 766 l 1
 567 756 l 1
 535 718 452 642 400 606 c 1
 344 606 l 1
 345 618 l 1
241 -10 m 0
 146 -10 97 31 94 114 c 0
 93 133 96 154 100 177 c 2
 163 536 l 1
 250 536 l 1
 189 192 l 2
 186 173 184 156 185 141 c 0
 187 87 215 63 278 63 c 0
 378 63 428 135 450 259 c 2
 499 536 l 1
 586 536 l 1
 491 0 l 1
 420 0 l 1
 419 72 l 1
 414 72 l 1
 369 13 312 -10 241 -10 c 0
EndSplineSet
Substitution2: "'smcp' Lowercase to Small Capitals lookup 35 subtable" uacute.sc
Substitution2: "'aalt' Access All Alternates lookup 0 subtable" uacute.sc
EndChar

StartChar: ucircumflex
Encoding: 251 251 189
Width: 563
GlyphClass: 2
Flags: HW
AnchorPoint: "Anchor-2" 638 536 basechar 0
AnchorPoint: "Anchor-1" 418 766 basechar 0
AnchorPoint: "Anchor-0" 282 0 basechar 0
LayerCount: 2
Fore
SplineSet
236 617 m 1
 280 659 344 722 374 766 c 1
 459 766 l 1
 474 721 518 657 546 617 c 1
 545 606 l 1
 489 606 l 1
 461 629 431 666 404 702 c 1
 363 666 324 628 289 606 c 1
 235 606 l 1
 236 617 l 1
241 -10 m 0
 146 -10 97 31 94 114 c 0
 93 133 96 154 100 177 c 2
 163 536 l 1
 250 536 l 1
 189 192 l 2
 186 173 184 156 185 141 c 0
 187 87 215 63 278 63 c 0
 378 63 428 135 450 259 c 2
 499 536 l 1
 586 536 l 1
 491 0 l 1
 420 0 l 1
 419 72 l 1
 414 72 l 1
 369 13 312 -10 241 -10 c 0
EndSplineSet
Substitution2: "'smcp' Lowercase to Small Capitals lookup 35 subtable" ucircumflex.sc
Substitution2: "'aalt' Access All Alternates lookup 0 subtable" ucircumflex.sc
EndChar

StartChar: udieresis
Encoding: 252 252 190
Width: 563
GlyphClass: 2
Flags: HW
AnchorPoint: "Anchor-2" 638 536 basechar 0
AnchorPoint: "Anchor-1" 413 737 basechar 0
AnchorPoint: "Anchor-0" 282 0 basechar 0
LayerCount: 2
Fore
SplineSet
498 619 m 0
 474 619 455 632 454 661 c 0
 454 666 454 672 455 679 c 0
 463 720 490 737 519 737 c 0
 544 737 563 725 564 696 c 0
 564 691 563 685 562 679 c 0
 554 638 527 619 498 619 c 0
284 619 m 0
 260 619 241 632 240 661 c 0
 240 666 240 672 241 679 c 0
 249 720 276 737 305 737 c 0
 329 737 348 725 349 697 c 0
 349 692 348 686 347 679 c 0
 339 638 313 619 284 619 c 0
241 -10 m 0
 146 -10 97 31 94 114 c 0
 93 133 96 154 100 177 c 2
 163 536 l 1
 250 536 l 1
 189 192 l 2
 186 173 184 156 185 141 c 0
 187 87 215 63 278 63 c 0
 378 63 428 135 450 259 c 2
 499 536 l 1
 586 536 l 1
 491 0 l 1
 420 0 l 1
 419 72 l 1
 414 72 l 1
 369 13 312 -10 241 -10 c 0
EndSplineSet
Substitution2: "'smcp' Lowercase to Small Capitals lookup 35 subtable" udieresis.sc
Substitution2: "'aalt' Access All Alternates lookup 0 subtable" udieresis.sc
EndChar

StartChar: yacute
Encoding: 253 253 191
Width: 563
GlyphClass: 2
Flags: HW
AnchorPoint: "Anchor-2" 638 536 basechar 0
AnchorPoint: "Anchor-1" 418 766 basechar 0
AnchorPoint: "Anchor-0" 239 -245 basechar 0
LayerCount: 2
Fore
SplineSet
345 618 m 1
 385 661 435 721 465 766 c 1
 568 766 l 1
 567 756 l 1
 535 718 452 642 400 606 c 1
 344 606 l 1
 345 618 l 1
83 -245 m 0
 58 -245 34 -241 15 -237 c 1
 27 -168 l 1
 42 -171 65 -174 85 -174 c 0
 141 -174 171 -147 209 -78 c 2
 250 -5 l 1
 135 536 l 1
 221 536 l 1
 284 222 l 2
 293 177 300 124 304 79 c 1
 307 79 l 1
 326 125 352 181 373 223 c 2
 528 536 l 1
 618 536 l 1
 297 -70 l 2
 242 -174 188 -245 83 -245 c 0
EndSplineSet
Substitution2: "'smcp' Lowercase to Small Capitals lookup 35 subtable" yacute.sc
Substitution2: "'aalt' Access All Alternates lookup 0 subtable" yacute.sc
EndChar

StartChar: thorn
Encoding: 254 254 192
Width: 563
GlyphClass: 2
Flags: HW
AnchorPoint: "Anchor-1" 437 760 basechar 0
AnchorPoint: "Anchor-0" 259 -240 basechar 0
LayerCount: 2
Fore
SplineSet
30 -240 m 1
 208 760 l 1
 294 760 l 1
 257 549 l 2
 251 518 245 492 237 463 c 1
 241 463 l 1
 280 513 334 546 409 546 c 0
 507 546 566 486 570 370 c 0
 571 340 569 306 562 269 c 0
 529 86 432 -10 309 -10 c 0
 236 -10 195 27 172 69 c 1
 166 69 l 1
 165 42 162 15 157 -11 c 2
 116 -240 l 1
 30 -240 l 1
303 63 m 0
 393 63 449 133 473 271 c 0
 479 305 481 335 480 361 c 0
 477 436 444 473 375 473 c 0
 282 473 231 407 210 289 c 2
 207 269 l 2
 201 234 198 204 199 177 c 0
 202 105 232 63 303 63 c 0
EndSplineSet
Substitution2: "'smcp' Lowercase to Small Capitals lookup 35 subtable" thorn.sc
Substitution2: "'aalt' Access All Alternates lookup 0 subtable" thorn.sc
EndChar

StartChar: ydieresis
Encoding: 255 255 193
Width: 563
GlyphClass: 2
Flags: HW
AnchorPoint: "Anchor-2" 638 536 basechar 0
AnchorPoint: "Anchor-1" 413 737 basechar 0
AnchorPoint: "Anchor-0" 239 -245 basechar 0
LayerCount: 2
Fore
SplineSet
498 619 m 0
 474 619 455 632 454 661 c 0
 454 666 454 672 455 679 c 0
 463 720 490 737 519 737 c 0
 544 737 563 725 564 696 c 0
 564 691 563 685 562 679 c 0
 554 638 527 619 498 619 c 0
284 619 m 0
 260 619 241 632 240 661 c 0
 240 666 240 672 241 679 c 0
 249 720 276 737 305 737 c 0
 329 737 348 725 349 697 c 0
 349 692 348 686 347 679 c 0
 339 638 313 619 284 619 c 0
83 -245 m 0
 58 -245 34 -241 15 -237 c 1
 27 -168 l 1
 42 -171 65 -174 85 -174 c 0
 141 -174 171 -147 209 -78 c 2
 250 -5 l 1
 135 536 l 1
 221 536 l 1
 284 222 l 2
 293 177 300 124 304 79 c 1
 307 79 l 1
 326 125 352 181 373 223 c 2
 528 536 l 1
 618 536 l 1
 297 -70 l 2
 242 -174 188 -245 83 -245 c 0
EndSplineSet
Substitution2: "'smcp' Lowercase to Small Capitals lookup 35 subtable" ydieresis.sc
Substitution2: "'aalt' Access All Alternates lookup 0 subtable" ydieresis.sc
EndChar

StartChar: Amacron
Encoding: 256 256 194
Width: 563
GlyphClass: 2
Flags: HW
AnchorPoint: "Anchor-2" 670 714 basechar 0
AnchorPoint: "Anchor-1" 436 867 basechar 0
AnchorPoint: "Anchor-0" 282 0 basechar 0
LayerCount: 2
Fore
SplineSet
285 800 m 1
 297 867 l 1
 574 867 l 1
 562 800 l 1
 285 800 l 1
20 0 m 1
 358 716 l 1
 458 716 l 1
 543 0 l 1
 454 0 l 1
 431 222 l 1
 210 222 l 1
 109 0 l 1
 20 0 l 1
347 521 m 2
 246 300 l 1
 424 300 l 1
 401 521 l 2
 398 549 393 594 392 631 c 1
 378 594 359 548 347 521 c 2
EndSplineSet
Substitution2: "'c2sc' Capitals to Small Capitals lookup 34 subtable" amacron.sc
Substitution2: "'aalt' Access All Alternates lookup 0 subtable" amacron.sc
EndChar

StartChar: amacron
Encoding: 257 257 195
Width: 563
GlyphClass: 2
Flags: HW
AnchorPoint: "Anchor-2" 638 536 basechar 0
AnchorPoint: "Anchor-1" 404 689 basechar 0
AnchorPoint: "Anchor-0" 282 0 basechar 0
LayerCount: 2
Fore
SplineSet
262 622 m 1
 274 689 l 1
 551 689 l 1
 539 622 l 1
 262 622 l 1
230 -10 m 0
 147 -10 92 28 89 105 c 0
 89 118 90 133 92 148 c 0
 112 263 202 318 352 322 c 2
 461 325 l 1
 466 351 l 2
 468 366 468 379 468 391 c 0
 466 452 425 473 363 473 c 0
 309 473 255 457 208 432 c 1
 189 499 l 1
 245 525 305 546 381 546 c 0
 489 546 549 505 552 417 c 0
 553 400 551 382 548 362 c 2
 484 0 l 1
 416 0 l 1
 416 75 l 1
 412 75 l 1
 361 19 304 -10 230 -10 c 0
261 63 m 0
 341 63 422 111 440 214 c 2
 449 262 l 1
 361 259 l 2
 244 255 191 218 179 151 c 0
 177 142 177 133 177 126 c 0
 179 81 212 63 261 63 c 0
EndSplineSet
Substitution2: "'smcp' Lowercase to Small Capitals lookup 35 subtable" amacron.sc
Substitution2: "'aalt' Access All Alternates lookup 0 subtable" amacron.sc
EndChar

StartChar: Abreve
Encoding: 258 258 196
Width: 563
GlyphClass: 2
Flags: HW
AnchorPoint: "Anchor-2" 670 714 basechar 0
AnchorPoint: "Anchor-1" 445 918 basechar 0
AnchorPoint: "Anchor-0" 282 0 basechar 0
LayerCount: 2
Fore
SplineSet
419 786 m 0
 343 786 301 825 299 888 c 0
 299 898 299 907 301 918 c 1
 357 918 l 1
 357 863 392 847 431 847 c 0
 472 847 512 863 531 918 c 1
 588 918 l 1
 572 839 510 786 419 786 c 0
20 0 m 1
 358 716 l 1
 458 716 l 1
 543 0 l 1
 454 0 l 1
 431 222 l 1
 210 222 l 1
 109 0 l 1
 20 0 l 1
347 521 m 2
 246 300 l 1
 424 300 l 1
 401 521 l 2
 398 549 393 594 392 631 c 1
 378 594 359 548 347 521 c 2
EndSplineSet
Substitution2: "'c2sc' Capitals to Small Capitals lookup 34 subtable" abreve.sc
Substitution2: "'aalt' Access All Alternates lookup 0 subtable" abreve.sc
EndChar

StartChar: abreve
Encoding: 259 259 197
Width: 563
GlyphClass: 2
Flags: HW
AnchorPoint: "Anchor-2" 638 536 basechar 0
AnchorPoint: "Anchor-1" 413 740 basechar 0
AnchorPoint: "Anchor-0" 282 0 basechar 0
LayerCount: 2
Fore
SplineSet
396 608 m 0
 320 608 278 647 276 710 c 0
 276 720 276 729 278 740 c 1
 334 740 l 1
 334 685 370 669 409 669 c 0
 449 669 488 685 508 740 c 1
 564 740 l 1
 549 661 486 608 396 608 c 0
230 -10 m 0
 147 -10 92 28 89 105 c 0
 89 118 90 133 92 148 c 0
 112 263 202 318 352 322 c 2
 461 325 l 1
 466 351 l 2
 468 366 468 379 468 391 c 0
 466 452 425 473 363 473 c 0
 309 473 255 457 208 432 c 1
 189 499 l 1
 245 525 305 546 381 546 c 0
 489 546 549 505 552 417 c 0
 553 400 551 382 548 362 c 2
 484 0 l 1
 416 0 l 1
 416 75 l 1
 412 75 l 1
 361 19 304 -10 230 -10 c 0
261 63 m 0
 341 63 422 111 440 214 c 2
 449 262 l 1
 361 259 l 2
 244 255 191 218 179 151 c 0
 177 142 177 133 177 126 c 0
 179 81 212 63 261 63 c 0
EndSplineSet
Substitution2: "'smcp' Lowercase to Small Capitals lookup 35 subtable" abreve.sc
Substitution2: "'aalt' Access All Alternates lookup 0 subtable" abreve.sc
EndChar

StartChar: Aogonek
Encoding: 260 260 198
Width: 563
GlyphClass: 2
Flags: HW
AnchorPoint: "Anchor-2" 670 714 basechar 0
AnchorPoint: "Anchor-1" 409 714 basechar 0
AnchorPoint: "Anchor-0" 243 -221 basechar 0
LayerCount: 2
Fore
SplineSet
20 0 m 1
 358 716 l 1
 458 716 l 1
 543 0 l 1
 492 -43 465 -77 458 -115 c 0
 457 -121 457 -126 457 -131 c 0
 458 -154 472 -163 498 -163 c 0
 512 -163 527 -160 537 -157 c 1
 527 -213 l 1
 510 -218 493 -221 470 -221 c 0
 412 -221 383 -196 382 -156 c 0
 382 -149 383 -140 385 -132 c 0
 395 -77 436 -32 479 0 c 1
 454 0 l 1
 431 222 l 1
 210 222 l 1
 109 0 l 1
 20 0 l 1
347 521 m 2
 246 300 l 1
 424 300 l 1
 401 521 l 2
 398 549 393 594 392 631 c 1
 378 594 359 548 347 521 c 2
EndSplineSet
Substitution2: "'c2sc' Capitals to Small Capitals lookup 34 subtable" aogonek.sc
Substitution2: "'locl' Localized Forms in Latin lookup 10 subtable" Aogonek.loclNAV
Ligature2: "'ccmp' Glyph Composition/Decomposition lookup 6 subtable" A uni0328
AlternateSubs2: "'aalt' Access All Alternates lookup 1 subtable" Aogonek.loclNAV aogonek.sc
EndChar

StartChar: aogonek
Encoding: 261 261 199
Width: 563
GlyphClass: 2
Flags: HW
AnchorPoint: "Anchor-2" 638 536 basechar 0
AnchorPoint: "Anchor-1" 377 536 basechar 0
AnchorPoint: "Anchor-0" 243 -221 basechar 0
LayerCount: 2
Fore
SplineSet
230 -10 m 0
 147 -10 92 28 89 105 c 0
 89 118 90 133 92 148 c 0
 112 263 202 318 352 322 c 2
 461 325 l 1
 466 351 l 2
 468 366 468 379 468 391 c 0
 466 452 425 473 363 473 c 0
 309 473 255 457 208 432 c 1
 189 499 l 1
 245 525 305 546 381 546 c 0
 489 546 549 505 552 417 c 0
 553 400 551 382 548 362 c 2
 484 0 l 1
 480 0 l 1
 428 -43 402 -77 395 -115 c 0
 394 -121 394 -126 394 -131 c 0
 395 -153 408 -163 435 -163 c 0
 449 -163 463 -160 474 -157 c 1
 464 -213 l 1
 446 -218 429 -221 407 -221 c 0
 349 -221 320 -196 319 -156 c 0
 319 -149 320 -140 322 -132 c 0
 332 -77 373 -32 416 0 c 1
 416 75 l 1
 412 75 l 1
 361 19 304 -10 230 -10 c 0
261 63 m 0
 341 63 422 111 440 214 c 2
 449 262 l 1
 361 259 l 2
 244 255 191 218 179 151 c 0
 177 142 177 133 177 126 c 0
 179 81 212 63 261 63 c 0
EndSplineSet
Substitution2: "'smcp' Lowercase to Small Capitals lookup 35 subtable" aogonek.sc
Substitution2: "'locl' Localized Forms in Latin lookup 10 subtable" aogonek.loclNAV
Ligature2: "'ccmp' Glyph Composition/Decomposition lookup 6 subtable" a uni0328
AlternateSubs2: "'aalt' Access All Alternates lookup 1 subtable" aogonek.loclNAV aogonek.sc
EndChar

StartChar: Cacute
Encoding: 262 262 200
Width: 563
GlyphClass: 2
Flags: HW
AnchorPoint: "Anchor-2" 670 714 basechar 0
AnchorPoint: "Anchor-1" 515 944 basechar 0
AnchorPoint: "Anchor-0" 340 0 basechar 0
LayerCount: 2
Fore
SplineSet
436 796 m 1
 475 839 525 899 556 944 c 1
 658 944 l 1
 656 934 l 1
 624 896 543 820 491 784 c 1
 435 784 l 1
 436 796 l 1
342 -10 m 0
 187 -10 114 82 109 228 c 0
 108 267 112 310 120 357 c 0
 159 577 289 725 479 725 c 0
 544 725 599 710 644 684 c 1
 598 612 l 1
 563 634 514 647 465 647 c 0
 331 647 242 535 210 357 c 0
 202 315 199 277 200 243 c 0
 204 134 254 70 362 70 c 0
 409 70 461 80 512 99 c 1
 497 18 l 1
 444 -2 398 -10 342 -10 c 0
EndSplineSet
Substitution2: "'c2sc' Capitals to Small Capitals lookup 34 subtable" cacute.sc
Substitution2: "'aalt' Access All Alternates lookup 0 subtable" cacute.sc
EndChar

StartChar: cacute
Encoding: 263 263 201
Width: 563
GlyphClass: 2
Flags: HW
AnchorPoint: "Anchor-2" 638 536 basechar 0
AnchorPoint: "Anchor-1" 467 766 basechar 0
AnchorPoint: "Anchor-0" 310 0 basechar 0
LayerCount: 2
Fore
SplineSet
376 618 m 1
 415 661 465 721 496 766 c 1
 598 766 l 1
 597 756 l 1
 565 718 482 642 431 606 c 1
 375 606 l 1
 376 618 l 1
322 -10 m 0
 199 -10 123 44 119 170 c 0
 118 198 121 229 127 264 c 0
 164 470 282 546 427 546 c 0
 486 546 532 534 572 512 c 1
 533 440 l 1
 497 462 463 470 419 470 c 0
 304 470 241 404 217 266 c 0
 212 237 208 210 209 188 c 0
 212 102 259 66 344 66 c 0
 397 66 450 80 492 98 c 1
 477 20 l 1
 434 1 377 -10 322 -10 c 0
EndSplineSet
Substitution2: "'smcp' Lowercase to Small Capitals lookup 35 subtable" cacute.sc
Substitution2: "'aalt' Access All Alternates lookup 0 subtable" cacute.sc
EndChar

StartChar: Ccircumflex
Encoding: 264 264 202
Width: 563
GlyphClass: 2
Flags: HW
AnchorPoint: "Anchor-2" 670 714 basechar 0
AnchorPoint: "Anchor-1" 506 944 basechar 0
AnchorPoint: "Anchor-0" 340 0 basechar 0
LayerCount: 2
Fore
SplineSet
326 795 m 1
 371 837 434 900 465 944 c 1
 550 944 l 1
 565 899 608 835 636 795 c 1
 635 784 l 1
 580 784 l 1
 551 807 522 844 495 880 c 1
 454 844 415 806 380 784 c 1
 325 784 l 1
 326 795 l 1
342 -10 m 0
 187 -10 114 82 109 228 c 0
 108 267 112 310 120 357 c 0
 159 577 289 725 479 725 c 0
 544 725 599 710 644 684 c 1
 598 612 l 1
 563 634 514 647 465 647 c 0
 331 647 242 535 210 357 c 0
 202 315 199 277 200 243 c 0
 204 134 254 70 362 70 c 0
 409 70 461 80 512 99 c 1
 497 18 l 1
 444 -2 398 -10 342 -10 c 0
EndSplineSet
Substitution2: "'c2sc' Capitals to Small Capitals lookup 34 subtable" ccircumflex.sc
Substitution2: "'aalt' Access All Alternates lookup 0 subtable" ccircumflex.sc
EndChar

StartChar: ccircumflex
Encoding: 265 265 203
Width: 563
GlyphClass: 2
Flags: HW
AnchorPoint: "Anchor-2" 638 536 basechar 0
AnchorPoint: "Anchor-1" 450 764 basechar 0
AnchorPoint: "Anchor-0" 337 0 basechar 0
LayerCount: 2
Fore
SplineSet
266 617 m 1
 311 659 374 722 405 766 c 1
 490 766 l 1
 505 721 548 657 576 617 c 1
 575 606 l 1
 520 606 l 1
 491 629 462 666 435 702 c 1
 394 666 355 628 320 606 c 1
 265 606 l 1
 266 617 l 1
322 -10 m 0
 199 -10 123 44 119 170 c 0
 118 198 121 229 127 264 c 0
 164 470 282 546 427 546 c 0
 486 546 532 534 572 512 c 1
 533 440 l 1
 497 462 463 470 419 470 c 0
 304 470 241 404 217 266 c 0
 212 237 208 210 209 188 c 0
 212 102 259 66 344 66 c 0
 397 66 450 80 492 98 c 1
 477 20 l 1
 434 1 377 -10 322 -10 c 0
EndSplineSet
Substitution2: "'smcp' Lowercase to Small Capitals lookup 35 subtable" ccircumflex.sc
Substitution2: "'aalt' Access All Alternates lookup 0 subtable" ccircumflex.sc
EndChar

StartChar: Cdot
Encoding: 266 266 204
Width: 563
GlyphClass: 2
Flags: HW
AnchorPoint: "Anchor-2" 670 714 basechar 0
AnchorPoint: "Anchor-1" 501 910 basechar 0
AnchorPoint: "Anchor-0" 340 0 basechar 0
LayerCount: 2
Fore
SplineSet
482 803 m 0
 453 803 432 819 431 849 c 0
 431 855 432 860 433 867 c 0
 441 912 470 932 504 932 c 0
 533 932 554 918 555 886 c 0
 555 880 555 874 554 867 c 0
 547 824 516 803 482 803 c 0
342 -10 m 0
 187 -10 114 82 109 228 c 0
 108 267 112 310 120 357 c 0
 159 577 289 725 479 725 c 0
 544 725 599 710 644 684 c 1
 598 612 l 1
 563 634 514 647 465 647 c 0
 331 647 242 535 210 357 c 0
 202 315 199 277 200 243 c 0
 204 134 254 70 362 70 c 0
 409 70 461 80 512 99 c 1
 497 18 l 1
 444 -2 398 -10 342 -10 c 0
EndSplineSet
Substitution2: "'c2sc' Capitals to Small Capitals lookup 34 subtable" cdotaccent.sc
Substitution2: "'aalt' Access All Alternates lookup 0 subtable" cdotaccent.sc
EndChar

StartChar: cdot
Encoding: 267 267 205
Width: 563
GlyphClass: 2
Flags: HW
AnchorPoint: "Anchor-2" 638 536 basechar 0
AnchorPoint: "Anchor-1" 442 732 basechar 0
AnchorPoint: "Anchor-0" 326 0 basechar 0
LayerCount: 2
Fore
SplineSet
424 633 m 0
 395 633 374 648 373 678 c 0
 373 684 374 689 375 696 c 0
 383 741 412 761 446 761 c 0
 475 761 496 747 497 715 c 0
 497 709 497 703 496 696 c 0
 488 654 458 633 424 633 c 0
322 -10 m 0
 199 -10 123 44 119 170 c 0
 118 198 121 229 127 264 c 0
 164 470 282 546 427 546 c 0
 486 546 532 534 572 512 c 1
 533 440 l 1
 497 462 463 470 419 470 c 0
 304 470 241 404 217 266 c 0
 212 237 208 210 209 188 c 0
 212 102 259 66 344 66 c 0
 397 66 450 80 492 98 c 1
 477 20 l 1
 434 1 377 -10 322 -10 c 0
EndSplineSet
EndChar

StartChar: Ccaron
Encoding: 268 268 206
Width: 563
GlyphClass: 2
Flags: HW
AnchorPoint: "Anchor-2" 670 714 basechar 0
AnchorPoint: "Anchor-1" 507 944 basechar 0
AnchorPoint: "Anchor-0" 332 0 basechar 0
LayerCount: 2
Fore
SplineSet
437 784 m 1
 421 829 378 891 350 932 c 1
 353 944 l 1
 408 944 l 1
 435 921 465 887 490 851 c 1
 532 889 568 917 608 944 c 1
 663 944 l 1
 660 932 l 1
 618 893 553 829 522 784 c 1
 437 784 l 1
342 -10 m 0
 187 -10 114 82 109 228 c 0
 108 267 112 310 120 357 c 0
 159 577 289 725 479 725 c 0
 544 725 599 710 644 684 c 1
 598 612 l 1
 563 634 514 647 465 647 c 0
 331 647 242 535 210 357 c 0
 202 315 199 277 200 243 c 0
 204 134 254 70 362 70 c 0
 409 70 461 80 512 99 c 1
 497 18 l 1
 444 -2 398 -10 342 -10 c 0
EndSplineSet
Substitution2: "'c2sc' Capitals to Small Capitals lookup 34 subtable" ccaron.sc
Substitution2: "'aalt' Access All Alternates lookup 0 subtable" ccaron.sc
EndChar

StartChar: ccaron
Encoding: 269 269 207
Width: 563
GlyphClass: 2
Flags: HW
AnchorPoint: "Anchor-2" 638 536 basechar 0
AnchorPoint: "Anchor-1" 449 766 basechar 0
AnchorPoint: "Anchor-0" 314 0 basechar 0
LayerCount: 2
Fore
SplineSet
377 606 m 1
 361 651 319 713 291 754 c 1
 293 766 l 1
 348 766 l 1
 375 743 405 709 430 673 c 1
 472 711 508 739 548 766 c 1
 603 766 l 1
 601 754 l 1
 559 715 493 651 462 606 c 1
 377 606 l 1
322 -10 m 0
 199 -10 123 44 119 170 c 0
 118 198 121 229 127 264 c 0
 164 470 282 546 427 546 c 0
 486 546 532 534 572 512 c 1
 533 440 l 1
 497 462 463 470 419 470 c 0
 304 470 241 404 217 266 c 0
 212 237 208 210 209 188 c 0
 212 102 259 66 344 66 c 0
 397 66 450 80 492 98 c 1
 477 20 l 1
 434 1 377 -10 322 -10 c 0
EndSplineSet
Substitution2: "'smcp' Lowercase to Small Capitals lookup 35 subtable" ccaron.sc
Substitution2: "'aalt' Access All Alternates lookup 0 subtable" ccaron.sc
EndChar

StartChar: Dcaron
Encoding: 270 270 208
Width: 563
GlyphClass: 2
Flags: HW
AnchorPoint: "Anchor-3" 349 357 basechar 0
AnchorPoint: "Anchor-2" 690 714 basechar 0
AnchorPoint: "Anchor-1" 428 944 basechar 0
AnchorPoint: "Anchor-0" 282 0 basechar 0
LayerCount: 2
Fore
SplineSet
358 784 m 1
 342 829 299 891 271 932 c 1
 274 944 l 1
 329 944 l 1
 356 921 386 887 411 851 c 1
 453 889 489 917 529 944 c 1
 584 944 l 1
 581 932 l 1
 539 893 474 829 443 784 c 1
 358 784 l 1
61 0 m 1
 188 714 l 1
 367 714 l 2
 510 714 595 634 600 482 c 0
 601 447 598 408 591 365 c 0
 548 124 416 0 222 0 c 2
 61 0 l 1
229 78 m 2
 380 78 467 175 500 363 c 0
 508 404 511 439 510 470 c 0
 506 585 446 636 339 636 c 2
 261 636 l 1
 162 78 l 1
 229 78 l 2
EndSplineSet
Substitution2: "'c2sc' Capitals to Small Capitals lookup 34 subtable" dcaron.sc
Substitution2: "'aalt' Access All Alternates lookup 0 subtable" dcaron.sc
EndChar

StartChar: dcaron
Encoding: 271 271 209
Width: 563
GlyphClass: 2
Flags: HW
AnchorPoint: "Anchor-3" 290 268 basechar 0
AnchorPoint: "Anchor-2" 664 760 basechar 0
AnchorPoint: "Anchor-1" 433 760 basechar 0
AnchorPoint: "Anchor-0" 267 0 basechar 0
LayerCount: 2
Fore
SplineSet
225 -10 m 0
 136 -10 82 47 78 159 c 0
 77 191 80 227 88 268 c 0
 120 449 206 546 328 546 c 0
 401 546 432 512 451 468 c 1
 457 468 l 1
 458 492 461 520 466 550 c 2
 503 760 l 1
 589 760 l 1
 454 0 l 1
 384 0 l 1
 385 72 l 1
 381 72 l 1
 345 24 294 -10 225 -10 c 0
601 611 m 1
 619 646 646 719 658 760 c 1
 745 760 l 1
 744 752 l 1
 728 715 683 642 647 600 c 1
 599 600 l 1
 601 611 l 1
258 63 m 0
 343 63 393 135 413 247 c 2
 417 267 l 2
 424 302 426 335 425 363 c 0
 423 430 397 473 334 473 c 0
 254 473 201 404 176 262 c 0
 169 226 166 194 167 168 c 0
 169 98 198 63 258 63 c 0
EndSplineSet
Substitution2: "'smcp' Lowercase to Small Capitals lookup 35 subtable" dcaron.sc
Substitution2: "'aalt' Access All Alternates lookup 0 subtable" dcaron.sc
EndChar

StartChar: Dcroat
Encoding: 272 272 210
Width: 563
GlyphClass: 2
Flags: HW
AnchorPoint: "Anchor-3" 359 357 basechar 0
AnchorPoint: "Anchor-2" 700 714 basechar 0
AnchorPoint: "Anchor-1" 409 714 basechar 0
AnchorPoint: "Anchor-0" 282 0 basechar 0
LayerCount: 2
Fore
SplineSet
71 0 m 1
 128 320 l 1
 57 320 l 1
 70 396 l 1
 141 396 l 1
 198 714 l 1
 377 714 l 2
 520 714 605 634 610 482 c 0
 611 447 608 408 601 365 c 0
 558 124 426 0 232 0 c 2
 71 0 l 1
239 78 m 2
 390 78 477 175 510 363 c 0
 518 404 521 439 520 470 c 0
 516 585 456 636 349 636 c 2
 271 636 l 1
 228 396 l 1
 360 396 l 1
 347 320 l 1
 215 320 l 1
 172 78 l 1
 239 78 l 2
EndSplineSet
Substitution2: "'c2sc' Capitals to Small Capitals lookup 34 subtable" dcroat.sc
Substitution2: "'aalt' Access All Alternates lookup 0 subtable" dcroat.sc
EndChar

StartChar: dcroat
Encoding: 273 273 211
Width: 563
GlyphClass: 2
Flags: HW
AnchorPoint: "Anchor-3" 330 268 basechar 0
AnchorPoint: "Anchor-2" 678 760 basechar 0
AnchorPoint: "Anchor-1" 417 760 basechar 0
AnchorPoint: "Anchor-0" 282 0 basechar 0
LayerCount: 2
Fore
SplineSet
253 -10 m 0
 154 -10 93 48 89 165 c 0
 88 195 91 229 98 266 c 0
 130 445 220 541 357 541 c 0
 429 541 468 507 487 463 c 1
 492 463 l 1
 494 487 495 516 500 542 c 2
 511 604 l 1
 336 604 l 1
 348 670 l 1
 523 670 l 1
 539 760 l 1
 626 760 l 1
 610 670 l 1
 682 670 l 1
 670 604 l 1
 598 604 l 1
 491 0 l 1
 421 0 l 1
 421 72 l 1
 417 72 l 1
 381 25 329 -10 253 -10 c 0
286 63 m 0
 377 63 428 133 448 244 c 2
 452 264 l 2
 458 298 462 330 461 357 c 0
 459 426 430 468 361 468 c 0
 270 468 210 399 185 258 c 0
 179 226 177 198 178 174 c 0
 181 100 214 63 286 63 c 0
EndSplineSet
Substitution2: "'smcp' Lowercase to Small Capitals lookup 35 subtable" dcroat.sc
Substitution2: "'aalt' Access All Alternates lookup 0 subtable" dcroat.sc
EndChar

StartChar: Emacron
Encoding: 274 274 212
Width: 563
GlyphClass: 2
Flags: HW
AnchorPoint: "Anchor-2" 670 714 basechar 0
AnchorPoint: "Anchor-1" 445 867 basechar 0
AnchorPoint: "Anchor-0" 282 0 basechar 0
LayerCount: 2
Fore
SplineSet
288 800 m 1
 300 867 l 1
 578 867 l 1
 566 800 l 1
 288 800 l 1
84 0 m 1
 211 714 l 1
 615 714 l 1
 601 635 l 1
 285 635 l 1
 246 412 l 1
 543 412 l 1
 528 332 l 1
 231 332 l 1
 186 79 l 1
 502 79 l 1
 488 0 l 1
 84 0 l 1
EndSplineSet
Substitution2: "'c2sc' Capitals to Small Capitals lookup 34 subtable" emacron.sc
Substitution2: "'aalt' Access All Alternates lookup 0 subtable" emacron.sc
EndChar

StartChar: emacron
Encoding: 275 275 213
Width: 563
GlyphClass: 2
Flags: HW
AnchorPoint: "Anchor-2" 638 536 basechar 0
AnchorPoint: "Anchor-1" 409 689 basechar 0
AnchorPoint: "Anchor-0" 282 0 basechar 0
LayerCount: 2
Fore
SplineSet
257 622 m 1
 269 689 l 1
 546 689 l 1
 534 622 l 1
 257 622 l 1
316 -10 m 0
 180 -10 100 58 96 184 c 0
 95 209 97 236 102 265 c 0
 133 441 245 546 389 546 c 0
 501 546 563 480 567 372 c 0
 568 349 567 323 562 296 c 2
 553 250 l 1
 187 250 l 1
 184 229 182 210 183 193 c 0
 186 101 243 64 334 64 c 0
 391 64 445 80 505 107 c 1
 491 28 l 1
 430 1 372 -10 316 -10 c 0
479 322 m 1
 481 338 482 352 482 366 c 0
 480 433 444 473 376 473 c 0
 293 473 230 416 202 322 c 1
 479 322 l 1
EndSplineSet
Substitution2: "'smcp' Lowercase to Small Capitals lookup 35 subtable" emacron.sc
Substitution2: "'aalt' Access All Alternates lookup 0 subtable" emacron.sc
EndChar

StartChar: Ebreve
Encoding: 276 276 214
Width: 563
GlyphClass: 2
Flags: HW
AnchorPoint: "Anchor-2" 670 714 basechar 0
AnchorPoint: "Anchor-1" 447 918 basechar 0
AnchorPoint: "Anchor-0" 282 0 basechar 0
LayerCount: 2
Fore
SplineSet
423 786 m 0
 347 786 305 825 303 888 c 0
 303 898 303 907 305 918 c 1
 361 918 l 1
 361 916 361 914 361 912 c 0
 363 862 396 847 434 847 c 0
 475 847 515 863 535 918 c 1
 591 918 l 1
 575 839 513 786 423 786 c 0
84 0 m 1
 211 714 l 1
 615 714 l 1
 601 635 l 1
 285 635 l 1
 246 412 l 1
 543 412 l 1
 528 332 l 1
 231 332 l 1
 186 79 l 1
 502 79 l 1
 488 0 l 1
 84 0 l 1
EndSplineSet
Substitution2: "'c2sc' Capitals to Small Capitals lookup 34 subtable" ebreve.sc
Substitution2: "'aalt' Access All Alternates lookup 0 subtable" ebreve.sc
EndChar

StartChar: ebreve
Encoding: 277 277 215
Width: 563
GlyphClass: 2
Flags: HW
AnchorPoint: "Anchor-2" 638 536 basechar 0
AnchorPoint: "Anchor-1" 417 740 basechar 0
AnchorPoint: "Anchor-0" 282 0 basechar 0
LayerCount: 2
Fore
SplineSet
391 608 m 0
 315 608 273 647 271 710 c 0
 271 720 271 729 273 740 c 1
 329 740 l 1
 329 685 365 669 404 669 c 0
 445 669 484 685 503 740 c 1
 560 740 l 1
 544 661 482 608 391 608 c 0
316 -10 m 0
 180 -10 100 58 96 184 c 0
 95 209 97 236 102 265 c 0
 133 441 245 546 389 546 c 0
 501 546 563 480 567 372 c 0
 568 349 567 323 562 296 c 2
 553 250 l 1
 187 250 l 1
 184 229 182 210 183 193 c 0
 186 101 243 64 334 64 c 0
 391 64 445 80 505 107 c 1
 491 28 l 1
 430 1 372 -10 316 -10 c 0
479 322 m 1
 481 338 482 352 482 366 c 0
 480 433 444 473 376 473 c 0
 293 473 230 416 202 322 c 1
 479 322 l 1
EndSplineSet
Substitution2: "'smcp' Lowercase to Small Capitals lookup 35 subtable" ebreve.sc
Substitution2: "'aalt' Access All Alternates lookup 0 subtable" ebreve.sc
EndChar

StartChar: Edotaccent
Encoding: 278 278 216
Width: 563
GlyphClass: 2
Flags: HW
AnchorPoint: "Anchor-2" 670 714 basechar 0
AnchorPoint: "Anchor-1" 446 910 basechar 0
AnchorPoint: "Anchor-0" 282 0 basechar 0
LayerCount: 2
Fore
SplineSet
427 803 m 0
 398 803 377 819 376 849 c 0
 376 855 377 860 378 867 c 0
 386 912 414 932 449 932 c 0
 478 932 499 918 500 886 c 0
 500 880 500 874 499 867 c 0
 492 824 461 803 427 803 c 0
84 0 m 1
 211 714 l 1
 615 714 l 1
 601 635 l 1
 285 635 l 1
 246 412 l 1
 543 412 l 1
 528 332 l 1
 231 332 l 1
 186 79 l 1
 502 79 l 1
 488 0 l 1
 84 0 l 1
EndSplineSet
Substitution2: "'c2sc' Capitals to Small Capitals lookup 34 subtable" edotaccent.sc
Substitution2: "'aalt' Access All Alternates lookup 0 subtable" edotaccent.sc
EndChar

StartChar: edotaccent
Encoding: 279 279 217
Width: 563
GlyphClass: 2
Flags: HW
AnchorPoint: "Anchor-2" 638 536 basechar 0
AnchorPoint: "Anchor-1" 417 732 basechar 0
AnchorPoint: "Anchor-0" 282 0 basechar 0
LayerCount: 2
Fore
SplineSet
398 633 m 0
 368 633 347 648 346 678 c 0
 346 683 347 690 348 696 c 0
 356 741 385 761 420 761 c 0
 449 761 469 747 470 716 c 0
 470 710 471 703 469 696 c 0
 461 654 432 633 398 633 c 0
316 -10 m 0
 180 -10 100 58 96 184 c 0
 95 209 97 236 102 265 c 0
 133 441 245 546 389 546 c 0
 501 546 563 480 567 372 c 0
 568 349 567 323 562 296 c 2
 553 250 l 1
 187 250 l 1
 184 229 182 210 183 193 c 0
 186 101 243 64 334 64 c 0
 391 64 445 80 505 107 c 1
 491 28 l 1
 430 1 372 -10 316 -10 c 0
479 322 m 1
 481 338 482 352 482 366 c 0
 480 433 444 473 376 473 c 0
 293 473 230 416 202 322 c 1
 479 322 l 1
EndSplineSet
Substitution2: "'smcp' Lowercase to Small Capitals lookup 35 subtable" edotaccent.sc
Substitution2: "'aalt' Access All Alternates lookup 0 subtable" edotaccent.sc
EndChar

StartChar: Eogonek
Encoding: 280 280 218
Width: 563
GlyphClass: 2
Flags: HW
AnchorPoint: "Anchor-2" 670 714 basechar 0
AnchorPoint: "Anchor-1" 418 714 basechar 0
AnchorPoint: "Anchor-0" 264 -221 basechar 0
LayerCount: 2
Fore
SplineSet
84 0 m 1
 211 714 l 1
 615 714 l 1
 601 635 l 1
 285 635 l 1
 246 412 l 1
 543 412 l 1
 528 332 l 1
 231 332 l 1
 186 79 l 1
 502 79 l 1
 488 0 l 1
 440 0 l 1
 389 -43 362 -77 355 -115 c 0
 354 -121 354 -126 354 -131 c 0
 355 -154 369 -163 396 -163 c 0
 409 -163 424 -160 434 -157 c 1
 424 -213 l 1
 407 -218 390 -221 367 -221 c 0
 309 -221 280 -196 279 -156 c 0
 279 -149 280 -140 282 -132 c 0
 292 -77 333 -32 376 0 c 1
 84 0 l 1
EndSplineSet
Substitution2: "'c2sc' Capitals to Small Capitals lookup 34 subtable" eogonek.sc
Substitution2: "'locl' Localized Forms in Latin lookup 10 subtable" Eogonek.loclNAV
Ligature2: "'ccmp' Glyph Composition/Decomposition lookup 6 subtable" E uni0328
AlternateSubs2: "'aalt' Access All Alternates lookup 1 subtable" Eogonek.loclNAV eogonek.sc
EndChar

StartChar: eogonek
Encoding: 281 281 219
Width: 563
GlyphClass: 2
Flags: HW
AnchorPoint: "Anchor-2" 638 536 basechar 0
AnchorPoint: "Anchor-1" 377 536 basechar 0
AnchorPoint: "Anchor-0" 259 -221 basechar 0
LayerCount: 2
Fore
SplineSet
316 -10 m 0
 180 -10 100 58 96 184 c 0
 95 209 97 236 102 265 c 0
 133 441 245 546 389 546 c 0
 501 546 563 480 567 372 c 0
 568 349 567 323 562 296 c 2
 553 250 l 1
 187 250 l 1
 184 229 182 210 183 193 c 0
 186 101 243 64 334 64 c 0
 391 64 445 80 505 107 c 1
 491 28 l 1
 432 -12 387 -58 378 -109 c 0
 377 -115 376 -122 376 -127 c 0
 377 -151 392 -163 418 -163 c 0
 430 -163 445 -160 456 -157 c 1
 446 -213 l 1
 429 -218 411 -221 390 -221 c 0
 332 -221 305 -191 303 -148 c 0
 303 -139 303 -131 305 -121 c 0
 313 -73 345 -35 382 -5 c 1
 359 -8 338 -10 316 -10 c 0
479 322 m 1
 481 338 482 352 482 366 c 0
 480 433 444 473 376 473 c 0
 293 473 230 416 202 322 c 1
 479 322 l 1
EndSplineSet
Substitution2: "'smcp' Lowercase to Small Capitals lookup 35 subtable" eogonek.sc
Substitution2: "'locl' Localized Forms in Latin lookup 10 subtable" eogonek.loclNAV
Ligature2: "'ccmp' Glyph Composition/Decomposition lookup 6 subtable" e uni0328
AlternateSubs2: "'aalt' Access All Alternates lookup 1 subtable" eogonek.loclNAV eogonek.sc
EndChar

StartChar: Ecaron
Encoding: 282 282 220
Width: 563
GlyphClass: 2
Flags: HW
AnchorPoint: "Anchor-2" 670 714 basechar 0
AnchorPoint: "Anchor-1" 453 944 basechar 0
AnchorPoint: "Anchor-0" 282 0 basechar 0
LayerCount: 2
Fore
SplineSet
382 784 m 1
 366 829 323 891 295 932 c 1
 298 944 l 1
 353 944 l 1
 380 921 410 887 435 851 c 1
 477 889 513 917 552 944 c 1
 608 944 l 1
 605 932 l 1
 563 893 498 829 467 784 c 1
 382 784 l 1
84 0 m 1
 211 714 l 1
 615 714 l 1
 601 635 l 1
 285 635 l 1
 246 412 l 1
 543 412 l 1
 528 332 l 1
 231 332 l 1
 186 79 l 1
 502 79 l 1
 488 0 l 1
 84 0 l 1
EndSplineSet
Substitution2: "'c2sc' Capitals to Small Capitals lookup 34 subtable" ecaron.sc
Substitution2: "'aalt' Access All Alternates lookup 0 subtable" ecaron.sc
EndChar

StartChar: ecaron
Encoding: 283 283 221
Width: 563
GlyphClass: 2
Flags: HW
AnchorPoint: "Anchor-2" 638 536 basechar 0
AnchorPoint: "Anchor-1" 421 766 basechar 0
AnchorPoint: "Anchor-0" 282 0 basechar 0
LayerCount: 2
Fore
SplineSet
350 606 m 1
 334 651 292 713 265 754 c 1
 267 766 l 1
 321 766 l 1
 348 743 379 709 403 673 c 1
 446 711 481 739 521 766 c 1
 577 766 l 1
 575 754 l 1
 533 715 466 651 435 606 c 1
 350 606 l 1
316 -10 m 0
 180 -10 100 58 96 184 c 0
 95 209 97 236 102 265 c 0
 133 441 245 546 389 546 c 0
 501 546 563 480 567 372 c 0
 568 349 567 323 562 296 c 2
 553 250 l 1
 187 250 l 1
 184 229 182 210 183 193 c 0
 186 101 243 64 334 64 c 0
 391 64 445 80 505 107 c 1
 491 28 l 1
 430 1 372 -10 316 -10 c 0
479 322 m 1
 481 338 482 352 482 366 c 0
 480 433 444 473 376 473 c 0
 293 473 230 416 202 322 c 1
 479 322 l 1
EndSplineSet
Substitution2: "'smcp' Lowercase to Small Capitals lookup 35 subtable" ecaron.sc
Substitution2: "'aalt' Access All Alternates lookup 0 subtable" ecaron.sc
EndChar

StartChar: Gcircumflex
Encoding: 284 284 222
Width: 563
GlyphClass: 2
Flags: HW
AnchorPoint: "Anchor-2" 670 714 basechar 0
AnchorPoint: "Anchor-1" 467 944 basechar 0
AnchorPoint: "Anchor-0" 282 0 basechar 0
LayerCount: 2
Fore
SplineSet
290 795 m 1
 334 837 398 900 428 944 c 1
 513 944 l 1
 528 899 572 835 600 795 c 1
 599 784 l 1
 543 784 l 1
 515 807 485 844 458 880 c 1
 417 844 378 806 343 784 c 1
 289 784 l 1
 290 795 l 1
317 -10 m 0
 168 -10 94 74 89 219 c 0
 88 259 93 303 101 351 c 0
 142 580 265 725 457 725 c 0
 522 725 574 710 618 682 c 1
 573 609 l 1
 539 633 499 646 444 646 c 0
 310 646 223 540 190 353 c 0
 182 312 179 273 180 238 c 0
 184 136 227 68 333 68 c 0
 372 68 403 75 431 83 c 1
 469 298 l 1
 350 298 l 1
 364 377 l 1
 568 377 l 1
 506 26 l 1
 451 5 387 -10 317 -10 c 0
EndSplineSet
Substitution2: "'c2sc' Capitals to Small Capitals lookup 34 subtable" gcircumflex.sc
Substitution2: "'aalt' Access All Alternates lookup 0 subtable" gcircumflex.sc
EndChar

StartChar: gcircumflex
Encoding: 285 285 223
Width: 563
GlyphClass: 2
Flags: HW
AnchorPoint: "Anchor-2" 638 536 basechar 0
AnchorPoint: "Anchor-1" 418 766 basechar 0
AnchorPoint: "Anchor-0" 239 -245 basechar 0
LayerCount: 2
Fore
SplineSet
236 617 m 1
 280 659 344 722 374 766 c 1
 459 766 l 1
 474 721 518 657 546 617 c 1
 545 606 l 1
 489 606 l 1
 461 629 431 666 404 702 c 1
 363 666 324 628 289 606 c 1
 235 606 l 1
 236 617 l 1
216 -245 m 0
 150 -245 91 -231 43 -208 c 1
 57 -128 l 1
 104 -158 172 -173 227 -173 c 0
 335 -173 387 -113 404 -17 c 2
 408 5 l 2
 410 21 416 41 422 65 c 1
 419 65 l 1
 374 10 322 -10 257 -10 c 0
 152 -10 93 55 89 169 c 0
 88 198 91 230 97 265 c 0
 128 439 224 546 353 546 c 0
 419 546 462 523 488 468 c 1
 493 468 l 1
 516 536 l 1
 586 536 l 1
 488 -14 l 2
 460 -167 374 -245 216 -245 c 0
291 63 m 0
 375 63 431 119 454 246 c 2
 459 267 l 2
 465 302 468 332 467 357 c 0
 464 438 426 473 361 473 c 0
 267 473 210 399 187 268 c 0
 181 236 179 208 180 183 c 0
 183 104 219 63 291 63 c 0
EndSplineSet
Substitution2: "'smcp' Lowercase to Small Capitals lookup 35 subtable" gcircumflex.sc
Substitution2: "'aalt' Access All Alternates lookup 0 subtable" gcircumflex.sc
EndChar

StartChar: Gbreve
Encoding: 286 286 224
Width: 563
GlyphClass: 2
Flags: HW
AnchorPoint: "Anchor-2" 670 714 basechar 0
AnchorPoint: "Anchor-1" 468 917 basechar 0
AnchorPoint: "Anchor-0" 282 0 basechar 0
LayerCount: 2
Fore
SplineSet
441 786 m 0
 365 786 323 825 321 888 c 0
 321 898 321 907 323 918 c 1
 379 918 l 1
 379 863 414 847 453 847 c 0
 494 847 534 863 553 918 c 1
 610 918 l 1
 594 839 532 786 441 786 c 0
317 -10 m 0
 168 -10 94 74 89 219 c 0
 88 259 93 303 101 351 c 0
 142 580 265 725 457 725 c 0
 522 725 574 710 618 682 c 1
 573 609 l 1
 539 633 499 646 444 646 c 0
 310 646 223 540 190 353 c 0
 182 312 179 273 180 238 c 0
 184 136 227 68 333 68 c 0
 372 68 403 75 431 83 c 1
 469 298 l 1
 350 298 l 1
 364 377 l 1
 568 377 l 1
 506 26 l 1
 451 5 387 -10 317 -10 c 0
EndSplineSet
Substitution2: "'c2sc' Capitals to Small Capitals lookup 34 subtable" gbreve.sc
Substitution2: "'aalt' Access All Alternates lookup 0 subtable" gbreve.sc
EndChar

StartChar: gbreve
Encoding: 287 287 225
Width: 563
GlyphClass: 2
Flags: HW
AnchorPoint: "Anchor-2" 638 536 basechar 0
AnchorPoint: "Anchor-1" 413 740 basechar 0
AnchorPoint: "Anchor-0" 239 -245 basechar 0
LayerCount: 2
Fore
SplineSet
387 608 m 0
 311 608 269 647 267 710 c 0
 267 720 267 729 269 740 c 1
 325 740 l 1
 325 685 361 669 400 669 c 0
 441 669 480 685 499 740 c 1
 556 740 l 1
 540 661 478 608 387 608 c 0
216 -245 m 0
 150 -245 91 -231 43 -208 c 1
 57 -128 l 1
 104 -158 172 -173 227 -173 c 0
 335 -173 387 -113 404 -17 c 2
 408 5 l 2
 410 21 416 41 422 65 c 1
 419 65 l 1
 374 10 322 -10 257 -10 c 0
 152 -10 93 55 89 169 c 0
 88 198 91 230 97 265 c 0
 128 439 224 546 353 546 c 0
 419 546 462 523 488 468 c 1
 493 468 l 1
 516 536 l 1
 586 536 l 1
 488 -14 l 2
 460 -167 374 -245 216 -245 c 0
291 63 m 0
 375 63 431 119 454 246 c 2
 459 267 l 2
 465 302 468 332 467 357 c 0
 464 438 426 473 361 473 c 0
 267 473 210 399 187 268 c 0
 181 236 179 208 180 183 c 0
 183 104 219 63 291 63 c 0
EndSplineSet
Substitution2: "'smcp' Lowercase to Small Capitals lookup 35 subtable" gbreve.sc
Substitution2: "'aalt' Access All Alternates lookup 0 subtable" gbreve.sc
EndChar

StartChar: Gdot
Encoding: 288 288 226
Width: 563
GlyphClass: 2
Flags: HW
AnchorPoint: "Anchor-2" 670 714 basechar 0
AnchorPoint: "Anchor-1" 465 910 basechar 0
AnchorPoint: "Anchor-0" 282 0 basechar 0
LayerCount: 2
Fore
SplineSet
446 803 m 0
 416 803 395 819 394 849 c 0
 394 855 395 861 396 867 c 0
 404 912 433 932 468 932 c 0
 497 932 518 918 519 887 c 0
 519 881 519 874 517 867 c 0
 510 824 480 803 446 803 c 0
317 -10 m 0
 168 -10 94 74 89 219 c 0
 88 259 93 303 101 351 c 0
 142 580 265 725 457 725 c 0
 522 725 574 710 618 682 c 1
 573 609 l 1
 539 633 499 646 444 646 c 0
 310 646 223 540 190 353 c 0
 182 312 179 273 180 238 c 0
 184 136 227 68 333 68 c 0
 372 68 403 75 431 83 c 1
 469 298 l 1
 350 298 l 1
 364 377 l 1
 568 377 l 1
 506 26 l 1
 451 5 387 -10 317 -10 c 0
EndSplineSet
Substitution2: "'c2sc' Capitals to Small Capitals lookup 34 subtable" gdotaccent.sc
Substitution2: "'aalt' Access All Alternates lookup 0 subtable" gdotaccent.sc
EndChar

StartChar: gdot
Encoding: 289 289 227
Width: 563
GlyphClass: 2
Flags: HW
AnchorPoint: "Anchor-2" 638 536 basechar 0
AnchorPoint: "Anchor-1" 412 732 basechar 0
AnchorPoint: "Anchor-0" 239 -245 basechar 0
LayerCount: 2
Fore
SplineSet
394 633 m 0
 364 633 343 648 342 678 c 0
 342 683 343 690 344 696 c 0
 352 741 381 761 416 761 c 0
 445 761 465 747 466 716 c 0
 466 710 467 703 465 696 c 0
 457 654 428 633 394 633 c 0
216 -245 m 0
 150 -245 91 -231 43 -208 c 1
 57 -128 l 1
 104 -158 172 -173 227 -173 c 0
 335 -173 387 -113 404 -17 c 2
 408 5 l 2
 410 21 416 41 422 65 c 1
 419 65 l 1
 374 10 322 -10 257 -10 c 0
 152 -10 93 55 89 169 c 0
 88 198 91 230 97 265 c 0
 128 439 224 546 353 546 c 0
 419 546 462 523 488 468 c 1
 493 468 l 1
 516 536 l 1
 586 536 l 1
 488 -14 l 2
 460 -167 374 -245 216 -245 c 0
291 63 m 0
 375 63 431 119 454 246 c 2
 459 267 l 2
 465 302 468 332 467 357 c 0
 464 438 426 473 361 473 c 0
 267 473 210 399 187 268 c 0
 181 236 179 208 180 183 c 0
 183 104 219 63 291 63 c 0
EndSplineSet
EndChar

StartChar: uni0122
Encoding: 290 290 228
Width: 563
GlyphClass: 2
Flags: HW
AnchorPoint: "Anchor-2" 670 714 basechar 0
AnchorPoint: "Anchor-1" 444 714 basechar 0
AnchorPoint: "Anchor-0" 243 -221 basechar 0
LayerCount: 2
Fore
SplineSet
317 -10 m 0
 168 -10 94 74 89 219 c 0
 88 259 93 303 101 351 c 0
 142 580 265 725 457 725 c 0
 522 725 574 710 618 682 c 1
 573 609 l 1
 539 633 499 646 444 646 c 0
 310 646 223 540 190 353 c 0
 182 312 179 273 180 238 c 0
 184 136 227 68 333 68 c 0
 372 68 403 75 431 83 c 1
 469 298 l 1
 350 298 l 1
 364 377 l 1
 568 377 l 1
 506 26 l 1
 451 5 387 -10 317 -10 c 0
198 -209 m 1
 219 -176 252 -104 264 -61 c 1
 350 -61 l 1
 349 -68 l 1
 332 -107 286 -179 244 -221 c 1
 196 -221 l 1
 198 -209 l 1
EndSplineSet
Substitution2: "'c2sc' Capitals to Small Capitals lookup 34 subtable" uni0123.sc
Substitution2: "'aalt' Access All Alternates lookup 0 subtable" uni0123.sc
EndChar

StartChar: uni0123
Encoding: 291 291 229
Width: 563
GlyphClass: 2
Flags: HW
AnchorPoint: "Anchor-2" 638 536 basechar 0
AnchorPoint: "Anchor-1" 420 766 basechar 0
AnchorPoint: "Anchor-0" 239 -245 basechar 0
LayerCount: 2
Fore
SplineSet
327 614 m 1
 344 652 390 723 432 766 c 1
 481 766 l 1
 479 754 l 1
 457 720 425 648 412 606 c 1
 325 606 l 1
 327 614 l 1
216 -245 m 0
 150 -245 91 -231 43 -208 c 1
 57 -128 l 1
 104 -158 172 -173 227 -173 c 0
 335 -173 387 -113 404 -17 c 2
 408 5 l 2
 410 21 416 41 422 65 c 1
 419 65 l 1
 374 10 322 -10 257 -10 c 0
 152 -10 93 55 89 169 c 0
 88 198 91 230 97 265 c 0
 128 439 224 546 353 546 c 0
 419 546 462 523 488 468 c 1
 493 468 l 1
 516 536 l 1
 586 536 l 1
 488 -14 l 2
 460 -167 374 -245 216 -245 c 0
291 63 m 0
 375 63 431 119 454 246 c 2
 459 267 l 2
 465 302 468 332 467 357 c 0
 464 438 426 473 361 473 c 0
 267 473 210 399 187 268 c 0
 181 236 179 208 180 183 c 0
 183 104 219 63 291 63 c 0
EndSplineSet
Substitution2: "'smcp' Lowercase to Small Capitals lookup 35 subtable" uni0123.sc
Substitution2: "'aalt' Access All Alternates lookup 0 subtable" uni0123.sc
EndChar

StartChar: Hcircumflex
Encoding: 292 292 230
Width: 563
GlyphClass: 2
Flags: HW
AnchorPoint: "Anchor-3" 348 373 basechar 0
AnchorPoint: "Anchor-2" 690 714 basechar 0
AnchorPoint: "Anchor-1" 450 944 basechar 0
AnchorPoint: "Anchor-0" 282 0 basechar 0
LayerCount: 2
Fore
SplineSet
268 795 m 1
 312 837 376 900 406 944 c 1
 491 944 l 1
 506 899 550 835 578 795 c 1
 577 784 l 1
 521 784 l 1
 493 807 463 844 436 880 c 1
 395 844 356 806 321 784 c 1
 267 784 l 1
 268 795 l 1
61 0 m 1
 188 714 l 1
 276 714 l 1
 222 411 l 1
 488 411 l 1
 542 714 l 1
 630 714 l 1
 503 0 l 1
 415 0 l 1
 474 332 l 1
 208 332 l 1
 149 0 l 1
 61 0 l 1
EndSplineSet
Substitution2: "'c2sc' Capitals to Small Capitals lookup 34 subtable" hcircumflex.sc
Substitution2: "'aalt' Access All Alternates lookup 0 subtable" hcircumflex.sc
EndChar

StartChar: hcircumflex
Encoding: 293 293 231
Width: 563
GlyphClass: 2
Flags: HW
AnchorPoint: "Anchor-3" 330 268 basechar 0
AnchorPoint: "Anchor-2" 678 760 basechar 0
AnchorPoint: "Anchor-1" 291 990 basechar 0
AnchorPoint: "Anchor-0" 282 0 basechar 0
LayerCount: 2
Fore
SplineSet
111 841 m 1
 156 883 218 946 248 990 c 1
 333 990 l 1
 348 945 393 881 422 841 c 1
 419 830 l 1
 363 830 l 1
 334 853 307 890 280 926 c 1
 239 890 198 852 163 830 c 1
 108 830 l 1
 111 841 l 1
73 0 m 1
 208 760 l 1
 295 760 l 1
 256 540 l 2
 252 515 242 478 237 455 c 1
 242 455 l 1
 284 515 343 546 415 546 c 0
 502 546 561 505 564 413 c 0
 565 394 562 373 558 350 c 2
 496 0 l 1
 409 0 l 1
 468 332 l 2
 471 352 474 369 473 384 c 0
 471 444 438 473 380 473 c 0
 294 473 231 402 209 278 c 2
 160 0 l 1
 73 0 l 1
EndSplineSet
Substitution2: "'smcp' Lowercase to Small Capitals lookup 35 subtable" hcircumflex.sc
Substitution2: "'aalt' Access All Alternates lookup 0 subtable" hcircumflex.sc
EndChar

StartChar: Hbar
Encoding: 294 294 232
Width: 563
GlyphClass: 2
Flags: HW
AnchorPoint: "Anchor-3" 346 357 basechar 0
AnchorPoint: "Anchor-1" 409 714 basechar 0
AnchorPoint: "Anchor-0" 282 0 basechar 0
LayerCount: 2
Fore
SplineSet
61 0 m 1
 154 524 l 1
 93 524 l 1
 105 595 l 1
 166 595 l 1
 188 714 l 1
 276 714 l 1
 254 595 l 1
 520 595 l 1
 542 714 l 1
 630 714 l 1
 608 595 l 1
 668 595 l 1
 656 524 l 1
 596 524 l 1
 503 0 l 1
 415 0 l 1
 474 332 l 1
 208 332 l 1
 149 0 l 1
 61 0 l 1
222 411 m 1
 488 411 l 1
 508 524 l 1
 242 524 l 1
 222 411 l 1
EndSplineSet
Substitution2: "'c2sc' Capitals to Small Capitals lookup 34 subtable" hbar.sc
Substitution2: "'aalt' Access All Alternates lookup 0 subtable" hbar.sc
EndChar

StartChar: hbar
Encoding: 295 295 233
Width: 563
GlyphClass: 2
Flags: HW
AnchorPoint: "Anchor-3" 330 268 basechar 0
AnchorPoint: "Anchor-1" 251 760 basechar 0
AnchorPoint: "Anchor-0" 282 0 basechar 0
LayerCount: 2
Fore
SplineSet
73 0 m 1
 180 604 l 1
 107 604 l 1
 119 670 l 1
 192 670 l 1
 208 760 l 1
 295 760 l 1
 279 670 l 1
 454 670 l 1
 442 604 l 1
 267 604 l 1
 256 540 l 2
 252 515 242 478 237 455 c 1
 242 455 l 1
 284 515 343 546 415 546 c 0
 502 546 561 505 564 413 c 0
 565 394 562 373 558 350 c 2
 496 0 l 1
 409 0 l 1
 468 332 l 2
 471 352 474 369 473 384 c 0
 471 444 438 473 380 473 c 0
 294 473 231 402 209 278 c 2
 160 0 l 1
 73 0 l 1
EndSplineSet
Substitution2: "'smcp' Lowercase to Small Capitals lookup 35 subtable" hbar.sc
Substitution2: "'aalt' Access All Alternates lookup 0 subtable" hbar.sc
EndChar

StartChar: Itilde
Encoding: 296 296 234
Width: 563
GlyphClass: 2
Flags: HW
AnchorPoint: "Anchor-2" 670 714 basechar 0
AnchorPoint: "Anchor-1" 444 912 basechar 0
AnchorPoint: "Anchor-0" 282 0 basechar 0
LayerCount: 2
Fore
SplineSet
253 785 m 1
 274 858 315 911 376 911 c 0
 429 911 464 854 504 854 c 0
 532 854 546 874 562 912 c 1
 612 912 l 1
 591 834 547 786 491 786 c 0
 438 786 403 843 363 843 c 0
 334 843 319 823 304 785 c 1
 253 785 l 1
97 0 m 1
 108 61 l 1
 250 73 l 1
 351 641 l 1
 213 653 l 1
 224 714 l 1
 593 714 l 1
 582 653 l 1
 438 641 l 1
 337 73 l 1
 477 61 l 1
 466 0 l 1
 97 0 l 1
EndSplineSet
Substitution2: "'c2sc' Capitals to Small Capitals lookup 34 subtable" itilde.sc
Substitution2: "'aalt' Access All Alternates lookup 0 subtable" itilde.sc
EndChar

StartChar: itilde
Encoding: 297 297 235
Width: 563
GlyphClass: 2
Flags: HW
AnchorPoint: "Anchor-3" 347 284 basechar 0
AnchorPoint: "Anchor-1" 412 734 basechar 0
AnchorPoint: "Anchor-0" 282 0 basechar 0
LayerCount: 2
Fore
SplineSet
221 607 m 1
 242 680 283 733 344 733 c 0
 397 733 432 676 472 676 c 0
 500 676 514 696 530 734 c 1
 580 734 l 1
 559 656 515 608 459 608 c 0
 406 608 371 665 331 665 c 0
 302 665 287 645 272 607 c 1
 221 607 l 1
78 0 m 1
 89 60 l 1
 264 73 l 1
 333 462 l 1
 174 475 l 1
 185 536 l 1
 433 536 l 1
 351 73 l 1
 509 60 l 1
 498 0 l 1
 78 0 l 1
EndSplineSet
Substitution2: "'smcp' Lowercase to Small Capitals lookup 35 subtable" itilde.sc
Substitution2: "'aalt' Access All Alternates lookup 0 subtable" itilde.sc
EndChar

StartChar: Imacron
Encoding: 298 298 236
Width: 563
GlyphClass: 2
Flags: HW
AnchorPoint: "Anchor-2" 670 714 basechar 0
AnchorPoint: "Anchor-1" 436 867 basechar 0
AnchorPoint: "Anchor-0" 282 0 basechar 0
LayerCount: 2
Fore
SplineSet
285 800 m 1
 297 867 l 1
 574 867 l 1
 562 800 l 1
 285 800 l 1
97 0 m 1
 108 61 l 1
 250 73 l 1
 351 641 l 1
 213 653 l 1
 224 714 l 1
 593 714 l 1
 582 653 l 1
 438 641 l 1
 337 73 l 1
 477 61 l 1
 466 0 l 1
 97 0 l 1
EndSplineSet
Substitution2: "'c2sc' Capitals to Small Capitals lookup 34 subtable" imacron.sc
Substitution2: "'aalt' Access All Alternates lookup 0 subtable" imacron.sc
EndChar

StartChar: imacron
Encoding: 299 299 237
Width: 563
GlyphClass: 2
Flags: HW
AnchorPoint: "Anchor-3" 347 284 basechar 0
AnchorPoint: "Anchor-1" 404 689 basechar 0
AnchorPoint: "Anchor-0" 282 0 basechar 0
LayerCount: 2
Fore
SplineSet
253 622 m 1
 265 689 l 1
 542 689 l 1
 530 622 l 1
 253 622 l 1
78 0 m 1
 89 60 l 1
 264 73 l 1
 333 462 l 1
 174 475 l 1
 185 536 l 1
 433 536 l 1
 351 73 l 1
 509 60 l 1
 498 0 l 1
 78 0 l 1
EndSplineSet
Substitution2: "'smcp' Lowercase to Small Capitals lookup 35 subtable" imacron.sc
Substitution2: "'aalt' Access All Alternates lookup 0 subtable" imacron.sc
EndChar

StartChar: Ibreve
Encoding: 300 300 238
Width: 563
GlyphClass: 2
Flags: HW
AnchorPoint: "Anchor-2" 670 714 basechar 0
AnchorPoint: "Anchor-1" 445 918 basechar 0
AnchorPoint: "Anchor-0" 282 0 basechar 0
LayerCount: 2
Fore
SplineSet
419 786 m 0
 343 786 301 825 299 888 c 0
 299 898 299 907 301 918 c 1
 357 918 l 1
 357 863 392 847 431 847 c 0
 472 847 512 863 531 918 c 1
 588 918 l 1
 572 839 510 786 419 786 c 0
97 0 m 1
 108 61 l 1
 250 73 l 1
 351 641 l 1
 213 653 l 1
 224 714 l 1
 593 714 l 1
 582 653 l 1
 438 641 l 1
 337 73 l 1
 477 61 l 1
 466 0 l 1
 97 0 l 1
EndSplineSet
Substitution2: "'c2sc' Capitals to Small Capitals lookup 34 subtable" ibreve.sc
Substitution2: "'aalt' Access All Alternates lookup 0 subtable" ibreve.sc
EndChar

StartChar: ibreve
Encoding: 301 301 239
Width: 563
GlyphClass: 2
Flags: HW
AnchorPoint: "Anchor-3" 347 284 basechar 0
AnchorPoint: "Anchor-1" 413 740 basechar 0
AnchorPoint: "Anchor-0" 282 0 basechar 0
LayerCount: 2
Fore
SplineSet
387 608 m 0
 311 608 269 647 267 710 c 0
 267 720 267 729 269 740 c 1
 325 740 l 1
 325 685 361 669 400 669 c 0
 441 669 480 685 499 740 c 1
 556 740 l 1
 540 661 478 608 387 608 c 0
78 0 m 1
 89 60 l 1
 264 73 l 1
 333 462 l 1
 174 475 l 1
 185 536 l 1
 433 536 l 1
 351 73 l 1
 509 60 l 1
 498 0 l 1
 78 0 l 1
EndSplineSet
Substitution2: "'smcp' Lowercase to Small Capitals lookup 35 subtable" ibreve.sc
Substitution2: "'aalt' Access All Alternates lookup 0 subtable" ibreve.sc
EndChar

StartChar: Iogonek
Encoding: 302 302 240
Width: 563
GlyphClass: 2
Flags: HW
AnchorPoint: "Anchor-2" 670 714 basechar 0
AnchorPoint: "Anchor-1" 409 714 basechar 0
AnchorPoint: "Anchor-0" 243 -221 basechar 0
LayerCount: 2
Fore
SplineSet
97 0 m 1
 108 61 l 1
 250 73 l 1
 351 641 l 1
 213 653 l 1
 224 714 l 1
 593 714 l 1
 582 653 l 1
 438 641 l 1
 337 73 l 1
 477 61 l 1
 466 0 l 1
 418 0 l 1
 367 -43 340 -77 333 -115 c 0
 332 -121 332 -126 332 -131 c 0
 333 -153 346 -163 373 -163 c 0
 387 -163 401 -160 412 -157 c 1
 402 -213 l 1
 385 -218 367 -221 345 -221 c 0
 287 -221 258 -196 257 -156 c 0
 257 -149 258 -140 260 -132 c 0
 270 -77 311 -32 354 0 c 1
 97 0 l 1
EndSplineSet
Substitution2: "'c2sc' Capitals to Small Capitals lookup 34 subtable" iogonek.sc
Substitution2: "'locl' Localized Forms in Latin lookup 10 subtable" Iogonek.loclNAV
Ligature2: "'ccmp' Glyph Composition/Decomposition lookup 6 subtable" I uni0328
AlternateSubs2: "'aalt' Access All Alternates lookup 1 subtable" Iogonek.loclNAV iogonek.sc
EndChar

StartChar: iogonek
Encoding: 303 303 241
Width: 563
GlyphClass: 2
Flags: HW
AnchorPoint: "Anchor-3" 347 284 basechar 0
AnchorPoint: "Anchor-2" 600 762 basechar 0
AnchorPoint: "Anchor-1" 433 762 basechar 0
AnchorPoint: "Anchor-0" 259 -221 basechar 0
LayerCount: 2
Fore
SplineSet
400 633 m 0
 370 633 349 648 348 679 c 0
 348 685 349 690 350 697 c 0
 357 741 387 762 422 762 c 0
 451 762 472 747 473 716 c 0
 473 710 473 704 472 697 c 0
 465 654 434 633 400 633 c 0
78 0 m 1
 89 60 l 1
 264 73 l 1
 333 462 l 1
 174 475 l 1
 185 536 l 1
 433 536 l 1
 351 73 l 1
 509 60 l 1
 498 0 l 1
 433 0 l 1
 382 -43 355 -77 348 -115 c 0
 347 -121 347 -126 347 -131 c 0
 348 -153 361 -163 388 -163 c 0
 402 -163 416 -160 427 -157 c 1
 417 -213 l 1
 400 -218 383 -221 360 -221 c 0
 302 -221 273 -196 272 -156 c 0
 272 -149 273 -140 275 -132 c 0
 285 -77 326 -32 369 0 c 1
 78 0 l 1
EndSplineSet
Substitution2: "'smcp' Lowercase to Small Capitals lookup 35 subtable" iogonek.sc
Substitution2: "'locl' Localized Forms in Latin lookup 10 subtable" iogonek.loclNAV
Ligature2: "'ccmp' Glyph Composition/Decomposition lookup 6 subtable" i uni0328
Substitution2: "Single Substitution lookup 5 subtable" iogonekdotless
Substitution2: "Single Substitution lookup 4 subtable" iogonekdotless
AlternateSubs2: "'aalt' Access All Alternates lookup 1 subtable" iogonekdotless iogonek.loclNAV iogonek.sc
EndChar

StartChar: Idotaccent
Encoding: 304 304 242
Width: 563
GlyphClass: 2
Flags: HW
AnchorPoint: "Anchor-2" 670 714 basechar 0
AnchorPoint: "Anchor-1" 443 910 basechar 0
AnchorPoint: "Anchor-0" 282 0 basechar 0
LayerCount: 2
Fore
SplineSet
424 803 m 0
 394 803 373 819 372 849 c 0
 372 855 373 861 374 867 c 0
 382 912 411 932 446 932 c 0
 475 932 496 918 497 887 c 0
 497 881 497 874 495 867 c 0
 488 824 458 803 424 803 c 0
97 0 m 1
 108 61 l 1
 250 73 l 1
 351 641 l 1
 213 653 l 1
 224 714 l 1
 593 714 l 1
 582 653 l 1
 438 641 l 1
 337 73 l 1
 477 61 l 1
 466 0 l 1
 97 0 l 1
EndSplineSet
Substitution2: "'c2sc' Capitals to Small Capitals lookup 34 subtable" i.loclTRK.sc
Substitution2: "'aalt' Access All Alternates lookup 0 subtable" i.loclTRK.sc
EndChar

StartChar: IJ
Encoding: 306 306 243
Width: 563
GlyphClass: 2
Flags: HW
AnchorPoint: "Anchor-1" 409 714 basechar 0
AnchorPoint: "Anchor-0" 282 0 basechar 0
LayerCount: 2
Fore
SplineSet
256 -10 m 0
 200 -10 131 2 103 19 c 1
 118 103 l 1
 139 91 204 72 261 72 c 0
 340 72 401 113 421 225 c 2
 508 714 l 1
 596 714 l 1
 507 213 l 2
 482 71 392 -10 256 -10 c 0
132 193 m 1
 225 714 l 1
 313 714 l 1
 220 193 l 1
 132 193 l 1
EndSplineSet
Substitution2: "'c2sc' Capitals to Small Capitals lookup 34 subtable" ij.sc
Substitution2: "'aalt' Access All Alternates lookup 0 subtable" ij.sc
EndChar

StartChar: ij
Encoding: 307 307 244
Width: 563
GlyphClass: 2
Flags: HW
AnchorPoint: "Anchor-1" 419 762 basechar 0
AnchorPoint: "Anchor-0" 248 -245 basechar 0
LayerCount: 2
Fore
SplineSet
266 633 m 0
 237 633 216 647 215 678 c 0
 215 684 215 691 217 698 c 0
 224 741 253 762 288 762 c 0
 317 762 338 747 339 716 c 0
 339 710 339 705 338 698 c 0
 330 653 299 633 266 633 c 0
523 633 m 0
 494 633 473 647 472 678 c 0
 472 684 472 691 474 698 c 0
 481 741 510 762 545 762 c 0
 574 762 595 747 596 716 c 0
 596 710 596 705 595 698 c 0
 587 653 556 633 523 633 c 0
210 -245 m 0
 168 -245 114 -238 81 -228 c 1
 94 -150 l 1
 127 -162 177 -171 217 -171 c 0
 302 -171 349 -130 363 -48 c 2
 466 536 l 1
 553 536 l 1
 448 -56 l 2
 426 -180 341 -245 210 -245 c 0
109 0 m 1
 204 536 l 1
 291 536 l 1
 196 0 l 1
 109 0 l 1
EndSplineSet
Substitution2: "'smcp' Lowercase to Small Capitals lookup 35 subtable" ij.sc
Substitution2: "'aalt' Access All Alternates lookup 0 subtable" ij.sc
EndChar

StartChar: Jcircumflex
Encoding: 308 308 245
Width: 563
GlyphClass: 2
Flags: HW
AnchorPoint: "Anchor-2" 670 714 basechar 0
AnchorPoint: "Anchor-1" 559 944 basechar 0
AnchorPoint: "Anchor-0" 302 0 basechar 0
LayerCount: 2
Fore
SplineSet
380 795 m 1
 424 837 488 900 518 944 c 1
 603 944 l 1
 618 899 662 835 690 795 c 1
 689 784 l 1
 633 784 l 1
 604 807 575 844 548 880 c 1
 507 844 468 806 433 784 c 1
 379 784 l 1
 380 795 l 1
223 -10 m 0
 172 -10 117 2 85 19 c 1
 99 101 l 1
 130 86 182 70 231 70 c 0
 314 70 371 118 390 225 c 2
 477 714 l 1
 565 714 l 1
 476 212 l 2
 452 75 363 -10 223 -10 c 0
EndSplineSet
Substitution2: "'c2sc' Capitals to Small Capitals lookup 34 subtable" jcircumflex.sc
Substitution2: "'aalt' Access All Alternates lookup 0 subtable" jcircumflex.sc
EndChar

StartChar: jcircumflex
Encoding: 309 309 246
Width: 563
GlyphClass: 2
Flags: HW
AnchorPoint: "Anchor-1" 455 766 basechar 0
AnchorPoint: "Anchor-0" 239 -245 basechar 0
LayerCount: 2
Fore
SplineSet
276 617 m 1
 320 659 384 722 414 766 c 1
 499 766 l 1
 514 721 558 657 586 617 c 1
 585 606 l 1
 529 606 l 1
 501 629 471 666 444 702 c 1
 403 666 364 628 329 606 c 1
 275 606 l 1
 276 617 l 1
137 -245 m 0
 96 -245 46 -238 15 -228 c 1
 28 -150 l 1
 58 -162 105 -171 142 -171 c 0
 222 -171 266 -130 280 -48 c 2
 370 462 l 1
 198 475 l 1
 209 536 l 1
 470 536 l 1
 365 -56 l 2
 343 -180 262 -245 137 -245 c 0
EndSplineSet
Substitution2: "'smcp' Lowercase to Small Capitals lookup 35 subtable" jcircumflex.sc
Substitution2: "'aalt' Access All Alternates lookup 0 subtable" jcircumflex.sc
EndChar

StartChar: uni0136
Encoding: 310 310 247
Width: 563
GlyphClass: 2
Flags: HW
AnchorPoint: "Anchor-2" 670 714 basechar 0
AnchorPoint: "Anchor-1" 409 714 basechar 0
AnchorPoint: "Anchor-0" 243 -221 basechar 0
LayerCount: 2
Fore
SplineSet
61 0 m 1
 188 714 l 1
 275 714 l 1
 208 339 l 1
 237 373 268 410 305 453 c 2
 540 714 l 1
 640 714 l 1
 353 392 l 1
 523 0 l 1
 423 0 l 1
 282 331 l 1
 192 247 l 1
 148 0 l 1
 61 0 l 1
174 -209 m 1
 194 -176 227 -104 239 -61 c 1
 326 -61 l 1
 325 -68 l 1
 308 -107 262 -179 220 -221 c 1
 172 -221 l 1
 174 -209 l 1
EndSplineSet
Substitution2: "'c2sc' Capitals to Small Capitals lookup 34 subtable" uni0137.sc
Substitution2: "'aalt' Access All Alternates lookup 0 subtable" uni0137.sc
EndChar

StartChar: uni0137
Encoding: 311 311 248
Width: 563
GlyphClass: 2
Flags: HW
AnchorPoint: "Anchor-2" 624 849 basechar 0
AnchorPoint: "Anchor-1" 417 760 basechar 0
AnchorPoint: "Anchor-0" 243 -221 basechar 0
LayerCount: 2
Fore
SplineSet
90 0 m 1
 225 760 l 1
 312 760 l 1
 248 400 l 2
 241 356 227 303 216 255 c 1
 217 255 l 1
 244 285 268 308 297 335 c 2
 511 536 l 1
 618 536 l 1
 366 305 l 1
 536 0 l 1
 434 0 l 1
 297 248 l 1
 209 179 l 1
 177 0 l 1
 90 0 l 1
197 -209 m 1
 218 -176 251 -104 263 -61 c 1
 349 -61 l 1
 348 -68 l 1
 331 -107 286 -179 243 -221 c 1
 195 -221 l 1
 197 -209 l 1
EndSplineSet
Substitution2: "'smcp' Lowercase to Small Capitals lookup 35 subtable" uni0137.sc
Substitution2: "'aalt' Access All Alternates lookup 0 subtable" uni0137.sc
EndChar

StartChar: kgreenlandic
Encoding: 312 312 249
Width: 563
GlyphClass: 2
Flags: HW
AnchorPoint: "Anchor-1" 377 536 basechar 0
AnchorPoint: "Anchor-0" 282 0 basechar 0
LayerCount: 2
Fore
SplineSet
90 0 m 1
 185 536 l 1
 272 536 l 1
 248 400 l 2
 241 356 227 303 216 255 c 1
 217 255 l 1
 244 285 267 308 297 335 c 2
 511 536 l 1
 618 536 l 1
 366 305 l 1
 536 0 l 1
 434 0 l 1
 297 248 l 1
 209 179 l 1
 177 0 l 1
 90 0 l 1
EndSplineSet
EndChar

StartChar: Lacute
Encoding: 313 313 250
Width: 563
GlyphClass: 2
Flags: HW
AnchorPoint: "Anchor-3" 346 357 basechar 0
AnchorPoint: "Anchor-2" 543 714 basechar 0
AnchorPoint: "Anchor-1" 322 944 basechar 0
AnchorPoint: "Anchor-0" 282 0 basechar 0
LayerCount: 2
Fore
SplineSet
241 796 m 1
 281 839 331 899 361 944 c 1
 464 944 l 1
 462 934 l 1
 430 896 348 820 296 784 c 1
 240 784 l 1
 241 796 l 1
100 0 m 1
 227 714 l 1
 315 714 l 1
 202 82 l 1
 502 82 l 1
 488 0 l 1
 100 0 l 1
EndSplineSet
Substitution2: "'c2sc' Capitals to Small Capitals lookup 34 subtable" lacute.sc
Substitution2: "'aalt' Access All Alternates lookup 0 subtable" lacute.sc
EndChar

StartChar: lacute
Encoding: 314 314 251
Width: 563
GlyphClass: 2
Flags: HW
AnchorPoint: "Anchor-3" 364 381 basechar 0
AnchorPoint: "Anchor-2" 598 760 basechar 0
AnchorPoint: "Anchor-1" 457 990 basechar 0
AnchorPoint: "Anchor-0" 282 0 basechar 0
LayerCount: 2
Fore
SplineSet
386 842 m 1
 426 885 474 945 504 990 c 1
 607 990 l 1
 606 980 l 1
 574 942 491 866 439 830 c 1
 383 830 l 1
 386 842 l 1
78 0 m 1
 89 60 l 1
 265 73 l 1
 374 687 l 1
 208 699 l 1
 218 760 l 1
 474 760 l 1
 352 73 l 1
 509 60 l 1
 498 0 l 1
 78 0 l 1
EndSplineSet
Substitution2: "'smcp' Lowercase to Small Capitals lookup 35 subtable" lacute.sc
Substitution2: "'aalt' Access All Alternates lookup 0 subtable" lacute.sc
EndChar

StartChar: uni013B
Encoding: 315 315 252
Width: 563
GlyphClass: 2
Flags: HW
AnchorPoint: "Anchor-3" 346 357 basechar 0
AnchorPoint: "Anchor-2" 543 714 basechar 0
AnchorPoint: "Anchor-1" 270 714 basechar 0
AnchorPoint: "Anchor-0" 243 -221 basechar 0
LayerCount: 2
Fore
SplineSet
100 0 m 1
 227 714 l 1
 315 714 l 1
 202 82 l 1
 502 82 l 1
 488 0 l 1
 100 0 l 1
191 -209 m 1
 211 -176 244 -104 256 -61 c 1
 342 -61 l 1
 341 -68 l 1
 324 -107 279 -179 236 -221 c 1
 189 -221 l 1
 191 -209 l 1
EndSplineSet
Substitution2: "'c2sc' Capitals to Small Capitals lookup 34 subtable" uni013C.sc
Substitution2: "'locl' Localized Forms in Latin lookup 13 subtable" uni013B.loclMAH
AlternateSubs2: "'aalt' Access All Alternates lookup 1 subtable" uni013B.loclMAH uni013C.sc
EndChar

StartChar: uni013C
Encoding: 316 316 253
Width: 563
GlyphClass: 2
Flags: HW
AnchorPoint: "Anchor-3" 364 381 basechar 0
AnchorPoint: "Anchor-2" 598 760 basechar 0
AnchorPoint: "Anchor-1" 417 760 basechar 0
AnchorPoint: "Anchor-0" 243 -221 basechar 0
LayerCount: 2
Fore
SplineSet
78 0 m 1
 89 60 l 1
 265 73 l 1
 374 687 l 1
 208 699 l 1
 218 760 l 1
 474 760 l 1
 352 73 l 1
 509 60 l 1
 498 0 l 1
 78 0 l 1
179 -209 m 1
 199 -176 232 -104 244 -61 c 1
 331 -61 l 1
 330 -68 l 1
 313 -107 267 -179 225 -221 c 1
 177 -221 l 1
 179 -209 l 1
EndSplineSet
Substitution2: "'smcp' Lowercase to Small Capitals lookup 35 subtable" uni013C.sc
Substitution2: "'locl' Localized Forms in Latin lookup 13 subtable" uni013C.loclMAH
AlternateSubs2: "'aalt' Access All Alternates lookup 1 subtable" uni013C.loclMAH uni013C.sc
EndChar

StartChar: Lcaron
Encoding: 317 317 254
Width: 563
GlyphClass: 2
Flags: HW
AnchorPoint: "Anchor-3" 346 357 basechar 0
AnchorPoint: "Anchor-2" 543 714 basechar 0
AnchorPoint: "Anchor-1" 270 714 basechar 0
AnchorPoint: "Anchor-0" 282 0 basechar 0
LayerCount: 2
Fore
SplineSet
467 565 m 1
 484 600 512 673 525 714 c 1
 611 714 l 1
 609 706 l 1
 593 669 550 596 513 554 c 1
 466 554 l 1
 467 565 l 1
100 0 m 1
 227 714 l 1
 315 714 l 1
 202 82 l 1
 502 82 l 1
 488 0 l 1
 100 0 l 1
EndSplineSet
Substitution2: "'c2sc' Capitals to Small Capitals lookup 34 subtable" lcaron.sc
Substitution2: "'aalt' Access All Alternates lookup 0 subtable" lcaron.sc
EndChar

StartChar: lcaron
Encoding: 318 318 255
Width: 563
GlyphClass: 2
Flags: HW
AnchorPoint: "Anchor-3" 364 381 basechar 0
AnchorPoint: "Anchor-2" 598 760 basechar 0
AnchorPoint: "Anchor-1" 417 760 basechar 0
AnchorPoint: "Anchor-0" 282 0 basechar 0
LayerCount: 2
Fore
SplineSet
520 611 m 1
 538 646 565 719 577 760 c 1
 664 760 l 1
 663 752 l 1
 647 715 602 642 565 600 c 1
 518 600 l 1
 520 611 l 1
78 0 m 1
 89 60 l 1
 265 73 l 1
 374 687 l 1
 208 699 l 1
 218 760 l 1
 474 760 l 1
 352 73 l 1
 509 60 l 1
 498 0 l 1
 78 0 l 1
EndSplineSet
Substitution2: "'smcp' Lowercase to Small Capitals lookup 35 subtable" lcaron.sc
Substitution2: "'aalt' Access All Alternates lookup 0 subtable" lcaron.sc
EndChar

StartChar: Ldot
Encoding: 319 319 256
Width: 563
GlyphClass: 2
Flags: HW
AnchorPoint: "Anchor-3" 346 357 basechar 0
AnchorPoint: "Anchor-2" 543 714 basechar 0
AnchorPoint: "Anchor-1" 269 714 basechar 0
AnchorPoint: "Anchor-0" 282 0 basechar 0
LayerCount: 2
Fore
SplineSet
100 0 m 1
 227 714 l 1
 315 714 l 1
 202 82 l 1
 502 82 l 1
 488 0 l 1
 100 0 l 1
473 307 m 0
 445 307 425 321 424 353 c 0
 424 359 423 366 425 374 c 0
 433 422 464 441 498 441 c 0
 526 441 547 429 548 396 c 0
 548 390 548 382 546 374 c 0
 538 327 507 307 473 307 c 0
EndSplineSet
Substitution2: "'c2sc' Capitals to Small Capitals lookup 34 subtable" ldot.sc
Ligature2: "Ligature Substitution lookup 16 subtable" L periodcentered
Substitution2: "'aalt' Access All Alternates lookup 0 subtable" ldot.sc
EndChar

StartChar: ldot
Encoding: 320 320 257
Width: 563
GlyphClass: 2
Flags: HW
AnchorPoint: "Anchor-3" 364 381 basechar 0
AnchorPoint: "Anchor-2" 598 760 basechar 0
AnchorPoint: "Anchor-1" 417 760 basechar 0
AnchorPoint: "Anchor-0" 282 0 basechar 0
LayerCount: 2
Fore
SplineSet
78 0 m 1
 89 60 l 1
 265 73 l 1
 374 687 l 1
 208 699 l 1
 218 760 l 1
 474 760 l 1
 352 73 l 1
 509 60 l 1
 498 0 l 1
 78 0 l 1
623 339 m 0
 595 339 575 354 574 386 c 0
 574 392 574 399 576 407 c 0
 584 455 613 474 647 474 c 0
 675 474 697 462 698 429 c 0
 698 423 699 415 697 407 c 0
 689 360 657 339 623 339 c 0
EndSplineSet
Substitution2: "'smcp' Lowercase to Small Capitals lookup 35 subtable" ldot.sc
Ligature2: "Ligature Substitution lookup 15 subtable" l periodcentered
Substitution2: "'aalt' Access All Alternates lookup 0 subtable" ldot.sc
EndChar

StartChar: Lslash
Encoding: 321 321 258
Width: 563
GlyphClass: 2
Flags: HW
AnchorPoint: "Anchor-3" 382 357 basechar 0
AnchorPoint: "Anchor-2" 579 714 basechar 0
AnchorPoint: "Anchor-1" 310 714 basechar 0
AnchorPoint: "Anchor-0" 338 0 basechar 0
LayerCount: 2
Fore
SplineSet
137 0 m 1
 184 263 l 1
 118 228 l 1
 94 288 l 1
 198 345 l 1
 264 714 l 1
 351 714 l 1
 295 398 l 1
 432 472 l 1
 457 411 l 1
 280 316 l 1
 238 82 l 1
 538 82 l 1
 524 0 l 1
 137 0 l 1
EndSplineSet
Substitution2: "'c2sc' Capitals to Small Capitals lookup 34 subtable" lslash.sc
Substitution2: "'aalt' Access All Alternates lookup 0 subtable" lslash.sc
EndChar

StartChar: lslash
Encoding: 322 322 259
Width: 563
GlyphClass: 2
Flags: HW
AnchorPoint: "Anchor-3" 364 381 basechar 0
AnchorPoint: "Anchor-2" 598 760 basechar 0
AnchorPoint: "Anchor-1" 417 760 basechar 0
AnchorPoint: "Anchor-0" 282 0 basechar 0
LayerCount: 2
Fore
SplineSet
78 0 m 1
 89 60 l 1
 265 73 l 1
 305 296 l 1
 207 239 l 1
 180 297 l 1
 319 377 l 1
 374 687 l 1
 208 699 l 1
 218 760 l 1
 474 760 l 1
 416 434 l 1
 510 488 l 1
 537 430 l 1
 402 352 l 1
 352 73 l 1
 509 60 l 1
 498 0 l 1
 78 0 l 1
EndSplineSet
Substitution2: "'smcp' Lowercase to Small Capitals lookup 35 subtable" lslash.sc
Substitution2: "'aalt' Access All Alternates lookup 0 subtable" lslash.sc
EndChar

StartChar: Nacute
Encoding: 323 323 260
Width: 563
GlyphClass: 2
Flags: HW
AnchorPoint: "Anchor-2" 690 714 basechar 0
AnchorPoint: "Anchor-1" 450 944 basechar 0
AnchorPoint: "Anchor-0" 282 0 basechar 0
LayerCount: 2
Fore
SplineSet
382 796 m 1
 422 839 472 899 502 944 c 1
 605 944 l 1
 603 934 l 1
 571 896 489 820 437 784 c 1
 381 784 l 1
 382 796 l 1
61 0 m 1
 188 714 l 1
 306 714 l 1
 444 107 l 1
 448 107 l 1
 453 165 460 231 473 307 c 2
 546 714 l 1
 630 714 l 1
 503 0 l 1
 393 0 l 1
 248 625 l 1
 243 625 l 1
 236 555 231 486 218 412 c 2
 144 0 l 1
 61 0 l 1
EndSplineSet
Substitution2: "'c2sc' Capitals to Small Capitals lookup 34 subtable" nacute.sc
Substitution2: "'aalt' Access All Alternates lookup 0 subtable" nacute.sc
EndChar

StartChar: nacute
Encoding: 324 324 261
Width: 563
GlyphClass: 2
Flags: HW
AnchorPoint: "Anchor-2" 638 536 basechar 0
AnchorPoint: "Anchor-1" 418 766 basechar 0
AnchorPoint: "Anchor-0" 282 0 basechar 0
LayerCount: 2
Fore
SplineSet
357 618 m 1
 396 661 446 721 477 766 c 1
 579 766 l 1
 578 756 l 1
 546 718 464 642 412 606 c 1
 356 606 l 1
 357 618 l 1
73 0 m 1
 168 536 l 1
 238 536 l 1
 237 460 l 1
 242 460 l 1
 283 519 347 546 420 546 c 0
 507 546 561 506 564 418 c 0
 565 399 563 378 559 355 c 2
 496 0 l 1
 409 0 l 1
 470 343 l 2
 473 362 475 378 474 393 c 0
 472 447 444 473 385 473 c 0
 286 473 232 401 209 276 c 2
 160 0 l 1
 73 0 l 1
EndSplineSet
Substitution2: "'smcp' Lowercase to Small Capitals lookup 35 subtable" nacute.sc
Substitution2: "'aalt' Access All Alternates lookup 0 subtable" nacute.sc
EndChar

StartChar: uni0145
Encoding: 325 325 262
Width: 563
GlyphClass: 2
Flags: HW
AnchorPoint: "Anchor-2" 690 714 basechar 0
AnchorPoint: "Anchor-1" 428 714 basechar 0
AnchorPoint: "Anchor-0" 233 -221 basechar 0
LayerCount: 2
Fore
SplineSet
61 0 m 1
 188 714 l 1
 306 714 l 1
 444 107 l 1
 448 107 l 1
 453 165 460 231 473 307 c 2
 546 714 l 1
 630 714 l 1
 503 0 l 1
 393 0 l 1
 248 625 l 1
 243 625 l 1
 236 555 231 486 218 412 c 2
 144 0 l 1
 61 0 l 1
164 -209 m 1
 185 -176 218 -104 230 -61 c 1
 316 -61 l 1
 315 -68 l 1
 298 -107 252 -179 210 -221 c 1
 162 -221 l 1
 164 -209 l 1
EndSplineSet
Substitution2: "'c2sc' Capitals to Small Capitals lookup 34 subtable" uni0146.sc
Substitution2: "'locl' Localized Forms in Latin lookup 13 subtable" uni0145.loclMAH
AlternateSubs2: "'aalt' Access All Alternates lookup 1 subtable" uni0145.loclMAH uni0146.sc
EndChar

